<svg width="98" height="63" viewBox="0 0 98 63" fill="none" xmlns="http://www.w3.org/2000/svg">
<g clip-path="url(#clip0_510_12)">
<path d="M37.396 35.3836L43.0269 29.9369C43.1908 29.7731 43.3614 29.6025 43.5389 29.425C43.7163 29.2339 43.8733 29.036 44.0098 28.8312C44.16 28.6264 44.2828 28.4149 44.3784 28.1964C44.4739 27.9644 44.5217 27.7255 44.5217 27.4798C44.5217 27.1795 44.4603 26.9133 44.3374 26.6812C44.2282 26.4491 44.0781 26.2512 43.8869 26.0874C43.6958 25.9236 43.4706 25.8007 43.2112 25.7188C42.9655 25.6233 42.6993 25.5755 42.4127 25.5755C41.7984 25.5755 41.2933 25.753 40.8974 26.1079C40.5015 26.4628 40.2627 26.9406 40.1808 27.5412L37.6008 27.3364C37.6554 26.6676 37.8123 26.0806 38.0717 25.5755C38.3447 25.0568 38.6928 24.6268 39.116 24.2855C39.5392 23.9442 40.0306 23.6849 40.5903 23.5074C41.15 23.3299 41.7574 23.2412 42.4127 23.2412C43.0679 23.2412 43.6754 23.3299 44.235 23.5074C44.8084 23.6712 45.3066 23.9238 45.7298 24.265C46.153 24.5926 46.4874 25.0158 46.7331 25.5345C46.9789 26.0533 47.1017 26.6607 47.1017 27.3569C47.1017 28.2715 46.8901 29.0633 46.4669 29.7322C46.0574 30.3874 45.525 31.0153 44.8698 31.616L40.3855 35.7726H47.1017V37.9841H37.396V35.3836ZM52.8923 25.8212H48.449V23.4869H59.9156V25.8212H55.4723V37.9841H52.8923V25.8212ZM58.6849 33.0698C58.6849 32.2917 58.8214 31.5887 59.0944 30.9607C59.3811 30.3191 59.7633 29.7731 60.2411 29.3226C60.7189 28.8722 61.2854 28.5241 61.9406 28.2784C62.5958 28.0326 63.292 27.9098 64.0292 27.9098C64.7663 27.9098 65.4625 28.0326 66.1177 28.2784C66.773 28.5241 67.3395 28.8722 67.8173 29.3226C68.2949 29.7731 68.6703 30.3191 68.9433 30.9607C69.23 31.5887 69.3733 32.2917 69.3733 33.0698C69.3733 33.8479 69.23 34.5577 68.9433 35.1993C68.6703 35.8272 68.2949 36.3664 67.8173 36.8169C67.3395 37.2674 66.773 37.6155 66.1177 37.8612C65.4625 38.1069 64.7663 38.2298 64.0292 38.2298C63.292 38.2298 62.5958 38.1069 61.9406 37.8612C61.2854 37.6155 60.7189 37.2674 60.2411 36.8169C59.7633 36.3664 59.3811 35.8272 59.0944 35.1993C58.8214 34.5577 58.6849 33.8479 58.6849 33.0698ZM61.142 33.0698C61.142 33.452 61.2035 33.8206 61.3263 34.1755C61.4628 34.5304 61.6539 34.8444 61.8996 35.1174C62.159 35.3904 62.4662 35.6088 62.8211 35.7726C63.176 35.9364 63.5787 36.0184 64.0292 36.0184C64.4796 36.0184 64.8823 35.9364 65.2373 35.7726C65.5922 35.6088 65.8925 35.3904 66.1382 35.1174C66.3976 34.8444 66.5887 34.5304 66.7115 34.1755C66.8481 33.8206 66.9163 33.452 66.9163 33.0698C66.9163 32.6876 66.8481 32.319 66.7115 31.9641C66.5887 31.6091 66.3976 31.2952 66.1382 31.0222C65.8925 30.7491 65.5922 30.5307 65.2373 30.3669C64.8823 30.2031 64.4796 30.1212 64.0292 30.1212C63.5787 30.1212 63.176 30.2031 62.8211 30.3669C62.4662 30.5307 62.159 30.7491 61.8996 31.0222C61.6539 31.2952 61.4628 31.6091 61.3263 31.9641C61.2035 32.319 61.142 32.6876 61.142 33.0698ZM71.6742 28.1555H74.0084V29.6298H74.0494C74.4043 29.0291 74.8821 28.5923 75.4827 28.3193C76.0834 28.0463 76.7318 27.9098 77.428 27.9098C78.1788 27.9098 78.8545 28.0463 79.4551 28.3193C80.0557 28.5787 80.5677 28.9404 80.9908 29.4045C81.414 29.8687 81.7348 30.4147 81.9532 31.0426C82.1716 31.6706 82.2808 32.3463 82.2808 33.0698C82.2808 33.7933 82.1648 34.469 81.9327 35.0969C81.7007 35.7249 81.373 36.2709 80.9499 36.735C80.5403 37.1991 80.0421 37.5677 79.4551 37.8407C78.8681 38.1001 78.2265 38.2298 77.5304 38.2298C77.0662 38.2298 76.6567 38.182 76.3018 38.0864C75.9469 37.9909 75.6329 37.868 75.3599 37.7179C75.0869 37.5677 74.8548 37.4107 74.6637 37.2469C74.4726 37.0695 74.3156 36.8988 74.1927 36.735H74.1313V42.6526H71.6742V28.1555ZM79.8237 33.0698C79.8237 32.6876 79.7554 32.319 79.6189 31.9641C79.4961 31.6091 79.305 31.2952 79.0456 31.0222C78.7999 30.7491 78.4996 30.5307 78.1446 30.3669C77.7897 30.2031 77.387 30.1212 76.9365 30.1212C76.4861 30.1212 76.0834 30.2031 75.7284 30.3669C75.3735 30.5307 75.0664 30.7491 74.807 31.0222C74.5613 31.2952 74.3702 31.6091 74.2337 31.9641C74.1108 32.319 74.0494 32.6876 74.0494 33.0698C74.0494 33.452 74.1108 33.8206 74.2337 34.1755C74.3702 34.5304 74.5613 34.8444 74.807 35.1174C75.0664 35.3904 75.3735 35.6088 75.7284 35.7726C76.0834 35.9364 76.4861 36.0184 76.9365 36.0184C77.387 36.0184 77.7897 35.9364 78.1446 35.7726C78.4996 35.6088 78.7999 35.3904 79.0456 35.1174C79.305 34.8444 79.4961 34.5304 79.6189 34.1755C79.7554 33.8206 79.8237 33.452 79.8237 33.0698Z" fill="black"/>
<path d="M12.1352 15.5287C12.1959 18.1807 12.2809 31.6072 12.1352 36.6118C12.0947 38.0014 11.8778 40.9866 12.352 42.3456C12.4011 42.3943 12.4628 42.4267 12.5359 42.4434C14.1963 42.2685 25.7143 29.4524 26.4381 30.4926C27.5679 32.1163 26.4381 39.1354 27.3188 39.2314L12.7782 52.0538C10.3543 54.1913 6.54181 52.4727 6.53817 49.241L6.52765 39.9092L6.76594 26.9234C6.79694 25.234 4.75521 24.3663 3.56039 25.5611L3.24923 25.8723C2.07572 27.0458 0.0683447 26.2318 0.0435731 24.5724L0.000209488 21.6675C-0.00736958 21.1598 0.190982 20.6707 0.55004 20.3116L7.82306 13.0386C10.7869 11.7267 11.9328 14.152 12.1352 15.5287Z" fill="black"/>
<path d="M14.9515 16.964C15.0973 11.9595 11.0443 10.263 8.99951 10.0403L12.7876 10.0004C17.0286 9.95579 20.4656 13.4287 20.3768 17.6689L20.333 19.7639C20.2977 21.4557 22.342 22.3276 23.5385 21.1311L23.8374 20.8322C25.0109 19.6587 27.0183 20.4727 27.0431 22.1321L27.0864 25.037C27.094 25.5446 26.8956 26.0338 26.5366 26.3929L19.2636 33.6659C16.2998 34.9777 15.1539 32.5524 14.9515 31.1758C14.8907 28.5237 14.8057 21.9685 14.9515 16.964Z" fill="black"/>
<path d="M24.3023 10.1365L19.9219 13.5721V18.0384L24.3023 14.3451V10.1365Z" fill="black"/>
</g>
<defs>
<clipPath id="clip0_510_12">
<rect width="83.9524" height="43" fill="white" transform="translate(0 10)"/>
</clipPath>
</defs>
</svg>
