<svg width="145" height="51" viewBox="0 0 145 51" fill="none" xmlns="http://www.w3.org/2000/svg">
<path d="M15.9311 26.2607H5.10611L5.04775 21.6176H14.5014C16.0964 21.6176 17.4483 21.4147 18.557 21.0087C19.6852 20.5859 20.5412 19.9854 21.1247 19.2073C21.7082 18.4123 22.0001 17.4567 22.0001 16.3403C22.0001 15.1055 21.7277 14.0992 21.1831 13.3211C20.6384 12.543 19.8019 11.9764 18.6737 11.6211C17.565 11.2659 16.145 11.0883 14.4138 11.0883H7.32361V42.9554H0V6.01398H14.4138C16.7481 6.01398 18.8293 6.20849 20.6578 6.59753C22.5057 6.98656 24.0717 7.59549 25.3554 8.4243C26.6587 9.2362 27.6411 10.268 28.3024 11.5197C28.9833 12.7713 29.3236 14.2598 29.3236 15.9851C29.3236 17.5075 28.9054 18.9029 28.069 20.1715C27.2326 21.4232 25.9973 22.4465 24.3634 23.2414C22.7295 24.0364 20.6968 24.51 18.2653 24.6623L15.9311 26.2607ZM15.6101 42.9554H2.80107L6.09815 37.9064H15.6101C17.2635 37.9064 18.6446 37.6696 19.7534 37.196C20.8621 36.7054 21.6888 36.0373 22.2334 35.1916C22.7976 34.3289 23.0796 33.3225 23.0796 32.1723C23.0796 30.9714 22.8364 29.9312 22.3501 29.0516C21.8638 28.1551 21.0955 27.4701 20.0451 26.9965C18.9947 26.5059 17.6234 26.2607 15.9311 26.2607H7.70296L7.76127 21.6176H18.4695L20.1326 23.3683C22.4669 23.436 24.3829 23.8842 25.8807 24.713C27.3979 25.5419 28.5261 26.6159 29.2653 27.9353C30.0044 29.2546 30.374 30.6754 30.374 32.1977C30.374 34.5488 29.7808 36.5194 28.5942 38.1093C27.4271 39.6993 25.7445 40.9087 23.5465 41.7375C21.3484 42.5495 18.7029 42.9554 15.6101 42.9554Z" fill="black"/>
<path d="M79.6589 37.5081V24.4105C79.6589 23.429 79.4811 22.5829 79.126 21.8722C78.771 21.1615 78.229 20.6115 77.5015 20.2222C76.7907 19.8331 75.8937 19.6385 74.8111 19.6385C73.8122 19.6385 72.9494 19.8077 72.2219 20.1461C71.4942 20.4846 70.9274 20.9415 70.5212 21.5168C70.1151 22.0922 69.912 22.7437 69.912 23.4713H63.8201C63.8201 22.3883 64.0824 21.3391 64.607 20.3238C65.1316 19.3085 65.8931 18.4032 66.8914 17.6078C67.8898 16.8125 69.0828 16.1863 70.4705 15.7294C71.8581 15.2726 73.4147 15.0441 75.1411 15.0441C77.205 15.0441 79.0333 15.391 80.6236 16.0848C82.2315 16.7786 83.4919 17.8278 84.4056 19.2323C85.3361 20.6199 85.8021 22.3629 85.8021 24.4612V36.6705C85.8021 37.9227 85.8865 39.048 86.0553 40.0464C86.2415 41.0279 86.5038 41.8824 86.8428 42.6101V43.0162H80.5727C80.2854 42.3562 80.0565 41.5186 79.8878 40.5032C79.735 39.471 79.6589 38.4726 79.6589 37.5081ZM80.5476 26.3142L80.5986 30.0963H76.2069C75.0734 30.0963 74.0745 30.2063 73.2117 30.4263C72.3489 30.6293 71.6296 30.9338 71.0542 31.34C70.4789 31.7461 70.0474 32.2369 69.7597 32.8122C69.472 33.3875 69.3282 34.039 69.3282 34.7667C69.3282 35.4944 69.4974 36.1628 69.8359 36.772C70.1743 37.3642 70.665 37.8296 71.3081 38.1681C71.968 38.5065 72.7632 38.6757 73.6944 38.6757C74.9465 38.6757 76.0381 38.4219 76.9686 37.9142C77.9158 37.3896 78.6608 36.7551 79.2021 36.0105C79.7433 35.249 80.0314 34.5298 80.0649 33.8529L82.0452 36.5689C81.8422 37.2627 81.4948 38.0073 81.0045 38.8026C80.5134 39.5979 79.8703 40.3594 79.0751 41.0871C78.2967 41.7978 77.3578 42.3816 76.2578 42.8385C75.1745 43.2954 73.9225 43.5238 72.5009 43.5238C70.7074 43.5238 69.1082 43.1685 67.7037 42.4577C66.2992 41.7301 65.1992 40.7571 64.4039 39.5387C63.6086 38.3034 63.2109 36.9073 63.2109 35.3505C63.2109 33.8952 63.4816 32.6092 64.0231 31.4923C64.5816 30.3585 65.3939 29.4109 66.46 28.6494C67.5429 27.8879 68.8629 27.3126 70.4197 26.9234C71.9764 26.5172 73.7529 26.3142 75.75 26.3142H80.5476Z" fill="black"/>
<path d="M103.543 35.579C103.543 34.9697 103.391 34.4198 103.087 33.9291C102.782 33.4214 102.198 32.9645 101.335 32.5584C100.489 32.1523 99.2369 31.7799 97.5781 31.4415C96.1231 31.12 94.7867 30.7393 93.5681 30.2993C92.3662 29.8424 91.3346 29.2924 90.471 28.6494C89.6082 28.0064 88.94 27.2449 88.4663 26.365C87.992 25.485 87.7556 24.4697 87.7556 23.319C87.7556 22.2021 88.0003 21.1445 88.4914 20.1461C88.9818 19.1477 89.6842 18.2678 90.5979 17.5063C91.5117 16.7448 92.6201 16.1441 93.9231 15.7041C95.2435 15.2641 96.7153 15.0441 98.3398 15.0441C100.642 15.0441 102.613 15.4334 104.254 16.2117C105.912 16.9732 107.182 18.0139 108.061 19.3339C108.942 20.6368 109.382 22.1091 109.382 23.7505H103.264C103.264 23.0228 103.078 22.3459 102.706 21.7198C102.351 21.0769 101.809 20.5607 101.081 20.1715C100.354 19.7654 99.4398 19.5623 98.3398 19.5623C97.2907 19.5623 96.4196 19.7315 95.7255 20.07C95.0489 20.3915 94.5411 20.8145 94.2028 21.3391C93.8812 21.8637 93.7201 22.4391 93.7201 23.0652C93.7201 23.522 93.8052 23.9367 93.974 24.3089C94.1602 24.6643 94.4651 24.9942 94.8878 25.2989C95.3112 25.5865 95.8859 25.8573 96.6142 26.1111C97.3584 26.365 98.2889 26.6103 99.4064 26.8472C101.505 27.2872 103.306 27.854 104.813 28.5479C106.336 29.2248 107.503 30.1047 108.315 31.1877C109.128 32.2538 109.534 33.6075 109.534 35.249C109.534 36.4673 109.272 37.5842 108.747 38.5996C108.239 39.5979 107.495 40.4694 106.514 41.214C105.532 41.9416 104.356 42.5085 102.985 42.9147C101.632 43.3208 100.108 43.5238 98.4159 43.5238C95.9285 43.5238 93.822 43.0839 92.0955 42.2039C90.3699 41.3071 89.0585 40.1648 88.1615 38.7772C87.2812 37.3727 86.8418 35.9174 86.8418 34.4114H92.7554C92.8231 35.5451 93.1363 36.4505 93.695 37.1274C94.2705 37.7873 94.9813 38.2696 95.8274 38.5742C96.6902 38.8618 97.5781 39.0057 98.4919 39.0057C99.5919 39.0057 100.515 38.8618 101.259 38.5742C102.003 38.2696 102.57 37.8635 102.96 37.3558C103.349 36.8312 103.543 36.2389 103.543 35.579Z" fill="black"/>
<path d="M125.018 15.6137V20.0811H109.535V15.6137H125.018ZM114.002 8.88721H120.119V35.4886C120.119 36.3347 120.238 36.9862 120.475 37.4431C120.729 37.8831 121.076 38.1792 121.516 38.3315C121.955 38.4838 122.471 38.5599 123.064 38.5599C123.487 38.5599 123.893 38.5345 124.282 38.4838C124.672 38.433 124.985 38.3823 125.222 38.3315L125.247 43.0019C124.739 43.1542 124.147 43.2896 123.47 43.408C122.811 43.5266 122.049 43.5858 121.186 43.5858C119.781 43.5858 118.537 43.3404 117.454 42.8497C116.372 42.342 115.526 41.5213 114.916 40.3875C114.307 39.2537 114.002 37.7477 114.002 35.8694V8.88721Z" fill="black"/>
<mask id="mask0_621_290" style="mask-type:luminance" maskUnits="userSpaceOnUse" x="30" y="15" width="34" height="30">
<path d="M63.2118 15.0441H30.375V44.1446H63.2118V15.0441Z" fill="white"/>
</mask>
<g mask="url(#mask0_621_290)">
<path d="M57.9608 29.366C57.9608 29.5282 57.9629 29.7595 57.9629 29.959V29.999C57.9629 30.077 57.9629 30.1502 57.9608 30.2075V30.2116C57.9587 30.3007 57.9539 30.396 57.9518 30.4961C57.8828 32.7488 57.5631 34.7122 57.0012 36.3849C56.4392 38.0577 55.6398 39.4419 54.6021 40.552C53.6557 41.5648 52.5338 42.3601 51.2256 42.9469C49.9194 43.531 48.4219 43.9066 46.734 44.0598C46.7209 44.0619 46.7071 44.0668 46.6939 44.0688C46.1189 44.1157 45.521 44.1441 44.9038 44.1441H43.4824C41.3318 44.1441 39.4485 43.8417 37.831 43.2486C36.2114 42.6556 34.8562 41.7733 33.7433 40.5942C32.6325 39.4212 31.793 37.9348 31.2289 36.1157C30.6614 34.2973 30.375 32.1447 30.375 29.6614C30.375 27.1782 30.6614 24.9945 31.2283 23.1596C31.7923 21.3245 32.6325 19.823 33.7426 18.6348C34.8575 17.4419 36.2127 16.5492 37.8323 15.9493C39.2939 15.406 40.9736 15.1064 42.8728 15.0532C42.5621 15.1644 42.2549 15.2817 41.9621 15.4129C40.5517 16.0349 39.3256 16.8944 38.299 17.9811C37.1219 19.2251 36.2355 20.7798 35.6376 22.628C35.0398 24.4761 34.7291 26.6176 34.6932 29.0526C34.6912 29.2058 34.6891 29.366 34.6891 29.5282C34.6891 29.6904 34.6912 29.8478 34.6932 30.0039V30.0059C34.7174 31.27 34.8396 32.4119 35.055 33.4315C35.1351 33.8313 35.2262 34.2137 35.3346 34.5755C35.6722 35.6953 36.154 36.63 36.792 37.3701C37.4962 38.1896 38.4247 38.8005 39.5445 39.1982C40.0643 39.3825 40.6263 39.5227 41.2283 39.62C41.2725 39.627 41.3173 39.6359 41.3615 39.6422C41.3885 39.6463 41.4147 39.649 41.4396 39.6532C42.0657 39.7443 42.7299 39.7885 43.441 39.7912H44.8624C45.0357 39.7912 45.209 39.7892 45.3774 39.7823C45.8952 39.7692 46.3881 39.7271 46.8569 39.658H46.859C47.8586 39.5179 48.7472 39.2583 49.5293 38.8737C50.3115 38.4892 50.9798 37.9783 51.5238 37.3473C52.239 36.5231 52.7589 35.4571 53.1013 34.1682C53.4438 32.8779 53.6101 31.3625 53.6101 29.6145C53.6101 27.8665 53.4458 26.3532 53.1061 25.0608C52.7685 23.7705 52.2556 22.6997 51.5514 21.8644C51.0116 21.2293 50.3453 20.7135 49.5611 20.3249C49.5321 20.3118 49.501 20.3007 49.472 20.2848H50.1051C50.8003 20.2848 51.4444 20.3318 52.0402 20.416C52.0561 20.4181 52.0733 20.4201 52.0913 20.4229C52.1313 20.4298 52.1713 20.4388 52.2114 20.445C52.3095 20.4608 52.4047 20.4781 52.5 20.496C52.5552 20.5071 52.6111 20.5182 52.6664 20.5292C52.6823 20.5334 52.6975 20.5382 52.7133 20.5403L52.7464 20.5471C52.7755 20.554 52.8017 20.5603 52.8286 20.5672C52.8817 20.5782 52.9349 20.5914 52.9888 20.6051C53.1289 20.6403 53.2684 20.6804 53.4023 20.7205C53.4292 20.7294 53.4534 20.7363 53.4803 20.7446C53.5715 20.7736 53.6605 20.8047 53.7468 20.8357C54.7375 21.2002 55.5176 21.7332 56.1168 22.4395C56.6857 23.1146 57.1455 24.017 57.4672 25.1451C57.5404 25.3984 57.6052 25.6669 57.6626 25.9424C57.8158 26.7246 57.9139 27.5972 57.9511 28.5658C57.9532 28.6659 57.958 28.7591 57.9601 28.8454V28.8496C57.9622 28.9076 57.9622 28.9759 57.9622 29.0539C57.9622 29.136 57.9601 29.2203 57.9601 29.3645L57.9608 29.366Z" fill="black"/>
<path d="M63.2117 29.5281C63.2117 32.0252 62.9252 34.193 62.3584 36.028C61.7944 37.863 60.9543 39.3646 59.8441 40.5527C58.7291 41.7456 57.3739 42.6383 55.7543 43.2383C54.2749 43.7871 52.569 44.0867 50.6429 44.1336C50.9653 44.0204 51.2828 43.8962 51.5893 43.7581C52.9998 43.1271 54.2238 42.2586 55.2504 41.1588C56.3854 39.9458 57.2497 38.4422 57.8428 36.6672C58.4378 34.8923 58.7672 32.844 58.8403 30.5251V30.521C58.8424 30.4346 58.8472 30.3387 58.8493 30.2344V30.2323C58.8514 30.1481 58.8514 30.0722 58.8514 30.008V29.9589C58.8514 29.7525 58.8493 29.5192 58.8493 29.3659C58.8493 29.2306 58.8514 29.1546 58.8514 29.0594V29.0484C58.8514 28.9841 58.8514 28.9103 58.8493 28.8261V28.8219C58.8472 28.7197 58.8424 28.6265 58.8403 28.5396V28.5326C58.7824 27.0373 58.589 25.7312 58.2514 24.6121C57.9159 23.4923 57.4341 22.5575 56.7941 21.8174C56.0899 20.9979 55.1613 20.389 54.0415 19.9893C52.9218 19.5896 51.6094 19.3984 50.1051 19.3962H48.6836C47.9905 19.3962 47.3374 19.4405 46.7285 19.5295H46.7264C45.7288 19.6697 44.8382 19.9292 44.0561 20.3138C43.2766 20.6983 42.6056 21.2092 42.0615 21.8402C41.3484 22.6645 40.8265 23.7305 40.484 25.0194C40.1423 26.3097 39.9752 27.8251 39.9752 29.5731C39.9752 31.3211 40.1396 32.8343 40.4792 34.1267C40.8168 35.417 41.3298 36.4878 42.0339 37.3231C42.5738 37.9583 43.24 38.474 44.0243 38.8626C44.0532 38.8758 44.0843 38.8868 44.1133 38.9027H43.4402C42.0298 38.9027 40.8279 38.7136 39.8392 38.3518C38.8507 37.9873 38.0684 37.4543 37.4713 36.7481C36.9004 36.0728 36.4405 35.1706 36.1181 34.0425C35.7957 32.9138 35.6114 31.5592 35.5804 29.9907C35.5783 29.8354 35.5762 29.6821 35.5762 29.5289C35.5762 29.3756 35.5783 29.2175 35.5804 29.0643C35.6135 26.6984 35.918 24.6438 36.482 22.902C37.046 21.1581 37.8683 19.7276 38.941 18.5927C39.8876 17.5909 41.0094 16.8046 42.3177 16.2268C43.6259 15.6469 45.1213 15.2782 46.8113 15.125C47.4112 15.0718 48.0353 15.0449 48.6815 15.0449H50.103C52.2535 15.0449 54.1369 15.3445 55.7543 15.9382C57.3739 16.5312 58.7291 17.4136 59.8441 18.5927C60.3971 19.1788 60.8859 19.8436 61.3036 20.5899C61.7233 21.3362 62.0768 22.1626 62.3584 23.0711C62.9225 24.8902 63.209 27.0428 63.209 29.5289L63.2117 29.5281Z" fill="black"/>
</g>
</svg>
