<svg width="117" height="41" viewBox="0 0 117 41" fill="none" xmlns="http://www.w3.org/2000/svg">
<mask id="mask0_1045_500" style="mask-type:luminance" maskUnits="userSpaceOnUse" x="0" y="10" width="107" height="21">
<path d="M107 10H0V31H107V10Z" fill="white"/>
</mask>
<g mask="url(#mask0_1045_500)">
<path d="M6.04128 28.7718H3.36629C1.50281 28.7718 0 27.2456 0 25.3532V13.4186C0 11.5262 1.50281 10 3.36629 10H6.04128V11.923H3.36629C2.55477 11.923 1.89354 12.5945 1.89354 13.4186V25.3532C1.89354 26.1773 2.55477 26.8488 3.36629 26.8488H6.04128V28.7718Z" fill="#C351E8"/>
<path d="M25.6086 28.7718H22.9336V26.8488H25.6086C26.4201 26.8488 27.0813 26.1773 27.0813 25.3532V13.4186C27.0813 12.5945 26.4201 11.923 25.6086 11.923H22.9336V10H25.6086C27.4721 10 28.9749 11.5262 28.9749 13.4186V25.3532C28.9749 27.2456 27.442 28.7718 25.6086 28.7718Z" fill="#C351E8"/>
<path d="M42.4996 11.9231H38.2617V26.8489H40.0952V21.4464L42.4696 21.4768C44.0626 21.4768 45.325 21.019 46.1965 20.1338C47.0682 19.2487 47.5491 18.0888 47.5491 16.7152C47.5491 15.3417 47.0983 14.1818 46.1965 13.2661C45.2949 12.3504 44.0926 11.9231 42.4996 11.9231ZM44.9643 18.9129C44.4233 19.4318 43.6719 19.676 42.7101 19.676H40.1252V13.6934H42.7101C43.6719 13.6934 44.4233 13.9682 44.9643 14.5176C45.4752 15.067 45.7457 15.7995 45.7457 16.6847C45.7457 17.6309 45.4752 18.394 44.9643 18.9129Z" fill="#232122"/>
<path d="M58.1577 25.0783C58.0074 24.9257 57.9473 24.6205 57.9473 24.1321V19.9504C57.9473 18.7905 57.5867 17.8443 56.8653 17.1423C56.1439 16.4402 55.1821 16.1045 54.01 16.1045C52.8979 16.1045 51.9361 16.4402 51.1546 17.1118C50.3431 17.7833 49.9524 18.6074 49.9524 19.5231V19.9504L51.6957 19.9199H51.8159V19.7978C51.8459 19.1263 52.0262 18.6379 52.417 18.3021C52.8077 17.9359 53.3187 17.7528 54.01 17.7528C54.6712 17.7528 55.2122 17.9359 55.6029 18.3327C55.9937 18.6989 56.174 19.2484 56.174 19.9199V20.2557L53.3187 20.622C52.1164 20.7746 51.1847 21.1408 50.4934 21.6902C49.8021 22.2702 49.4414 23.0333 49.4414 23.9795C49.4414 24.8647 49.772 25.6278 50.4032 26.2382C51.0645 26.8181 51.906 27.1234 53.0481 27.1234C54.4909 27.1234 55.6029 26.6045 56.4145 25.5667C56.5047 25.933 56.715 26.2382 56.9855 26.4824C57.3462 26.7876 57.8271 26.9708 58.3681 26.9708C58.8189 26.9708 59.2398 26.9097 59.6303 26.8181L59.7207 26.7876V25.3225H58.9392C58.5485 25.292 58.2779 25.2004 58.1577 25.0783ZM53.1083 25.4751C52.5071 25.4751 52.0262 25.353 51.7257 25.0783C51.4251 24.8036 51.2749 24.4679 51.2749 24.01L51.2448 23.949C51.2448 23.5217 51.4251 23.1554 51.7558 22.8807C52.0864 22.5754 52.6274 22.3923 53.2586 22.2702L56.174 21.8734V22.5754C56.174 23.43 55.8735 24.1321 55.3024 24.6815C54.7313 25.2004 53.9799 25.4751 53.1083 25.4751Z" fill="#232122"/>
<path d="M65.9437 24.6205L62.7575 16.4097L62.7278 16.3181H60.7441L64.9819 26.8181L64.441 28.1917C64.3203 28.4969 64.1402 28.7411 63.9601 28.8937C63.5689 29.1684 62.7575 29.1074 61.8861 29.0769H61.5853V30.9388L63.3585 30.9998C64.0498 30.9998 64.6211 30.8167 65.0717 30.4504C65.4926 30.1147 65.8837 29.5652 66.1839 28.7716L71.0233 16.5013L71.0833 16.3181H69.0997L65.9437 24.6205Z" fill="#232122"/>
<path d="M78.5679 16.1045C77.9063 16.1045 77.275 16.3181 76.7043 16.6844C76.3132 16.9591 75.9529 17.2644 75.7425 17.6612V16.3487H74.0293V26.8792H75.8322V21.9955C75.8322 20.744 76.0427 19.7368 76.5236 18.9737C76.9748 18.2106 77.6061 17.8443 78.4472 17.8443C79.0785 17.8443 79.5594 18.0885 79.9803 18.6074C80.4011 19.1263 80.5813 19.8283 80.5813 20.744V21.3545L82.3545 21.3239V20.6829C82.3545 19.2789 82.024 18.1496 81.3326 17.3559C80.6116 16.5013 79.7098 16.1045 78.5679 16.1045Z" fill="#232122"/>
<path d="M89.6288 14.8237C90.1394 14.8237 90.5603 14.6405 90.9211 14.2741C91.2819 13.9078 91.4621 13.4803 91.4621 12.9613C91.4621 12.4423 91.2819 12.0148 90.9211 11.6484C90.5906 11.2821 90.1394 11.0989 89.6288 11.0989C89.1176 11.0989 88.6967 11.2821 88.3365 11.6484C87.9756 12.0148 87.7949 12.4423 87.7949 12.9613C87.7949 13.4803 87.9756 13.9078 88.3365 14.2741C88.6967 14.6405 89.1176 14.8237 89.6288 14.8237Z" fill="#232122"/>
<path d="M90.6796 16.3489H84.9688V18.0276H88.9063V25.2006H84.9991V26.8794H94.5268V25.2006H90.6796V16.3489Z" fill="#232122"/>
<path d="M103.093 21.4155L106.73 16.3181H104.596L101.861 20.1946L99.156 16.3792L99.1257 16.3181H96.9619L100.599 21.4155L96.6914 26.8792H98.8255L101.891 22.6669L104.836 26.8181L104.867 26.8792H107L103.093 21.4155Z" fill="#232122"/>
</g>
</svg>
