<svg width="320" height="76" viewBox="0 0 320 76" fill="none" xmlns="http://www.w3.org/2000/svg">
<g clip-path="url(#clip0_830_1094)">
<path d="M15.9004 46.407V28.6234H22.6788C24.1789 28.6213 25.6219 29.1982 26.7071 30.2338C27.263 30.7732 27.705 31.4187 28.0068 32.1321C28.3086 32.8454 28.4642 33.6121 28.4642 34.3867C28.4642 35.1613 28.3086 35.928 28.0068 36.6413C27.705 37.3547 27.263 38.0002 26.7071 38.5396C26.1768 39.0644 25.5478 39.479 24.8564 39.7594C24.165 40.0397 23.4249 40.1804 22.6788 40.1731H19.0797V46.3978L15.9004 46.407ZM19.0889 37.2983H22.5312C23.2791 37.2685 23.9865 36.9503 24.5051 36.4106C25.0237 35.8709 25.3134 35.1514 25.3134 34.4029C25.3134 33.6543 25.0237 32.9348 24.5051 32.3951C23.9865 31.8553 23.2791 31.5372 22.5312 31.5074H19.0889V37.2983Z" fill="#111111"/>
<path d="M41.1365 43.523V38.6273H48.7639V35.7433H37.9618V46.407H49.4699V43.523H41.1365ZM37.9434 28.6234V31.512H49.2715V28.6234H37.9434Z" fill="#111111"/>
<path d="M68.7809 39.3148C69.7607 38.8892 70.5914 38.1812 71.1668 37.2812C71.7421 36.3812 72.036 35.33 72.0109 34.2621C72.029 33.5134 71.8883 32.7694 71.598 32.079C71.3077 31.3887 70.8744 30.7676 70.3267 30.2569C69.7918 29.7239 69.1548 29.3046 68.4539 29.0239C67.7529 28.7432 67.0025 28.607 66.2477 28.6234H59.3262V46.407H62.5147V40.0946H65.6801L69.4823 46.4208H73.0768L68.7809 39.3148ZM65.9247 37.2245H62.5285V31.5073H66.1784C66.5418 31.505 66.9018 31.5769 67.2364 31.7186C67.571 31.8604 67.8731 32.069 68.1241 32.3318C68.3752 32.5945 68.5699 32.9057 68.6963 33.2464C68.8227 33.587 68.8782 33.95 68.8594 34.3128C68.8759 34.7016 68.8111 35.0895 68.6692 35.4518C68.5273 35.8141 68.3113 36.1428 68.0351 36.4168C67.7588 36.6909 67.4285 36.9042 67.0651 37.0433C66.7017 37.1824 66.3133 37.2441 65.9247 37.2245Z" fill="#111111"/>
<path d="M105.843 43.523V38.6273H113.475V35.7433H102.654V46.407H114.158V43.523H105.843ZM102.654 28.6234V31.512H113.982V28.6234H102.654Z" fill="#111111"/>
<path d="M149.975 61.5973L131.61 36.4539L138.531 28.6096H134.757L127.235 37.1322V28.6234H124.047V46.407H127.235V41.202L129.478 38.7288L146.237 61.5973L148.789 65.0765H152.536L149.975 61.5973Z" fill="#111111"/>
<path d="M146.043 28.6234V31.5074H150.865V46.407H154.053V31.5074H158.875V28.6234H146.043Z" fill="#111111"/>
<path d="M178.265 38.2488C177.223 37.2677 175.99 36.5121 174.643 36.0293L173.595 35.6233L172.672 35.2634C172.34 35.088 171.625 34.7789 171.343 34.5758C171.112 34.3936 170.925 34.1609 170.797 33.8954C170.669 33.6299 170.603 33.3386 170.605 33.0439C170.605 31.9503 171.625 31.1566 173.028 31.1566C173.648 31.1175 174.268 31.2433 174.824 31.5213C175.38 31.7993 175.852 32.2196 176.193 32.7393L178.463 31.1843C177.24 29.2694 175.399 28.3004 172.977 28.3004C171.55 28.2531 170.155 28.7253 169.05 29.6293C168.539 30.0488 168.131 30.5796 167.857 31.181C167.583 31.7824 167.449 32.4385 167.467 33.0992C167.429 33.7584 167.545 34.4174 167.806 35.0239C168.067 35.6303 168.466 36.1674 168.972 36.5923C170.054 37.4239 171.271 38.0624 172.571 38.4795C173.492 38.7616 174.368 39.1733 175.173 39.7023C175.495 39.8794 175.762 40.143 175.942 40.4635C176.122 40.784 176.209 41.1484 176.193 41.5158C176.193 42.6647 175.399 43.8229 173.18 43.8229C172.25 43.8751 171.326 43.6447 170.53 43.1621C169.734 42.6795 169.102 41.9672 168.718 41.1189L166.318 42.6232C167.44 45.1519 169.867 46.6792 173.157 46.6792C177.213 46.6792 179.381 44.5658 179.381 41.4281C179.433 40.264 179.033 39.1249 178.265 38.2488Z" fill="#111111"/>
<path d="M203.975 30.9997C202.186 29.2791 199.799 28.318 197.317 28.318C194.834 28.318 192.448 29.2791 190.658 30.9997C189.792 31.8578 189.104 32.8791 188.635 34.0045C188.165 35.13 187.924 36.3373 187.924 37.5567C187.924 38.7761 188.165 39.9834 188.635 41.1088C189.104 42.2343 189.792 43.2555 190.658 44.1136C192.462 45.8172 194.849 46.7663 197.331 46.7663C199.812 46.7663 202.199 45.8172 204.003 44.1136C204.887 43.2694 205.586 42.2506 206.056 41.1218C206.525 39.993 206.755 38.7789 206.73 37.5567C206.757 36.3316 206.526 35.1145 206.051 33.9848C205.576 32.8551 204.869 31.838 203.975 30.9997ZM201.756 42.0741C200.566 43.2367 198.969 43.8876 197.305 43.8876C195.642 43.8876 194.044 43.2367 192.855 42.0741C192.264 41.484 191.8 40.7792 191.492 40.003C191.184 39.2269 191.039 38.3959 191.064 37.5613C191.043 36.7265 191.191 35.8961 191.498 35.1198C191.806 34.3435 192.267 33.6374 192.855 33.0439C194.037 31.868 195.637 31.208 197.305 31.208C198.973 31.208 200.573 31.868 201.756 33.0439C202.919 34.2591 203.569 35.8766 203.569 37.559C203.569 39.2414 202.919 40.8588 201.756 42.0741Z" fill="#111111"/>
<path d="M258.867 28.6234V46.407H262.056V28.6234H258.867Z" fill="#111111"/>
<path d="M271.289 28.6234V31.5074H276.111V46.407H279.3V31.5074H284.121V28.6234H271.289Z" fill="#111111"/>
<path d="M0 10V65.0765H150.658L148.106 61.5973H3.4792V13.4792H296.539V61.5973H153.034L155.576 65.0765H300V10H0Z" fill="#111111"/>
<path d="M216.318 35.974V46.407H219.507V38.858H226.428V35.974H216.318ZM216.318 28.6234V31.5074H227.093V28.6234H216.318Z" fill="#111111"/>
<path d="M82.2031 28.6234V31.5074H92.9729V28.6234H82.2031ZM82.2031 35.974V46.407H85.3962V38.858H92.3177V35.974H82.2031Z" fill="#111111"/>
<path d="M236.783 28.6234V31.5074H247.548V28.6234H236.783ZM236.783 35.974V46.407H239.972V38.858H246.893V35.974H236.783Z" fill="#111111"/>
</g>
<defs>
<clipPath id="clip0_830_1094">
<rect width="320" height="76" fill="white"/>
</clipPath>
</defs>
</svg>
