<svg width="18" height="18" viewBox="0 0 18 18" fill="none" xmlns="http://www.w3.org/2000/svg">
<g clip-path="url(#clip0_536_235)">
<path d="M16.9868 8.26858V9.00458C16.9858 10.7297 16.4272 12.4083 15.3943 13.79C14.3613 15.1718 12.9094 16.1826 11.2551 16.6717C9.60076 17.1608 7.83262 17.1021 6.21439 16.5042C4.59616 15.9064 3.21454 14.8015 2.27558 13.3542C1.33663 11.907 0.890648 10.195 1.00416 8.47363C1.11767 6.75223 1.78458 5.11364 2.90544 3.80224C4.0263 2.49083 5.54104 1.57688 7.22377 1.1967C8.90649 0.816506 10.667 0.990448 12.2428 1.69258" stroke="white" stroke-width="1.3" stroke-linecap="round" stroke-linejoin="round"/>
<path d="M16.9871 2.60449L8.98703 10.6125L6.58704 8.21249" stroke="white" stroke-width="1.3" stroke-linecap="round" stroke-linejoin="round"/>
</g>
<defs>
<clipPath id="clip0_536_235">
<rect width="18" height="18" fill="white"/>
</clipPath>
</defs>
</svg>
