<svg width="15" height="19" viewBox="0 0 15 19" fill="none" xmlns="http://www.w3.org/2000/svg">
<path d="M1.41304 18.9998H13.587C14.0912 18.9998 14.5 18.5927 14.5 18.0907V8.78763C14.5 8.28557 14.0912 7.87854 13.587 7.87854H12.6739V5.15127C12.6739 2.31073 10.3529 -0.000244141 7.5 -0.000244141C4.6471 -0.000244141 2.32609 2.31073 2.32609 5.15127V7.87854H1.41304C0.9088 7.87854 0.5 8.28557 0.5 8.78763V18.0907C0.5 18.5927 0.9088 18.9998 1.41304 18.9998ZM4.15217 5.15127C4.15217 3.31327 5.65401 1.81794 7.5 1.81794C9.34599 1.81794 10.8478 3.31327 10.8478 5.15127V7.87854H4.15217V5.15127Z" fill="#7F8286"/>
</svg>
