<svg width="49" height="48" viewBox="0 0 49 48" fill="none" xmlns="http://www.w3.org/2000/svg">
<path d="M48.4975 31.3108C48.2638 31.5245 48.0638 31.8045 47.7925 31.942C46.0101 32.8382 44.2102 33.6982 42.4228 34.5844C42.2103 34.6906 41.9928 34.8518 41.8591 35.0443C41.0616 36.1905 40.0829 37.1317 38.8618 37.8192C38.7443 37.8854 38.6268 38.0304 38.593 38.1604C38.2205 39.6391 37.4143 40.3253 35.8719 40.4241C35.5907 41.9502 34.6432 42.7564 33.0983 42.8527C32.8071 44.3326 31.8321 45.1988 30.3459 45.2513C29.961 47.4074 27.8186 48.2574 26.2174 47.185C25.6874 47.4674 25.1862 47.7337 24.6862 47.9999H23.655C23.2126 47.7537 22.6738 47.5949 22.3514 47.24C21.9614 46.8125 21.7539 46.2175 21.4139 45.5975C19.994 45.5588 19.024 44.7876 18.8003 43.1202C18.0603 43.0914 17.3654 42.8977 16.8267 42.344C16.2829 41.7852 16.0929 41.0953 16.1317 40.3078C15.2755 40.1428 14.6168 39.7191 14.1855 38.9641C14.123 38.8541 13.973 38.7854 13.8518 38.7204C12.1094 37.7904 10.5995 36.583 9.37829 35.0193C9.26079 34.8693 9.06955 34.7619 8.89331 34.6744C6.3347 33.4157 3.76983 32.172 1.21746 30.9021C0.942477 30.7633 0.737488 30.4896 0.5 30.2796V29.9984C0.866231 29.3821 1.11872 29.3009 1.75618 29.6121C4.4198 30.9121 7.08466 32.207 9.73702 33.5282C10.0433 33.6807 10.3132 33.9494 10.5357 34.2181C11.5894 35.4918 12.8106 36.5505 13.9918 37.1455C14.1955 36.178 14.983 35.6781 15.6405 35.0706C16.3067 34.4569 16.9816 33.8519 17.6516 33.2432C18.1128 32.8245 18.5303 32.7745 18.8365 33.1019C19.1603 33.4469 19.089 33.8344 18.6141 34.2656C17.6654 35.1256 16.7117 35.9805 15.763 36.8405C15.4017 37.168 15.2255 37.5717 15.3505 38.0592C15.4605 38.4892 15.7517 38.7791 16.1829 38.8554C16.4154 38.8966 16.6817 38.8554 16.9104 38.7804C17.2591 38.6667 17.5629 38.6704 17.8004 38.9679C18.0366 39.2641 17.9841 39.5666 17.7878 39.8766C17.4329 40.4341 17.4654 41.004 17.8516 41.374C18.2703 41.774 18.899 41.7977 19.439 41.4028C19.7802 41.1528 20.1165 41.049 20.4502 41.364C20.8002 41.6952 20.7052 42.0502 20.4627 42.4152C20.1402 42.8989 20.184 43.4727 20.5415 43.8351C20.9164 44.2164 21.5739 44.2714 22.0539 43.9601C22.1189 43.9176 22.1801 43.8689 22.2401 43.8176C22.5564 43.5476 22.8951 43.5039 23.2101 43.7889C23.5238 44.0726 23.5088 44.4051 23.2876 44.7588C22.8901 45.3938 22.9526 45.98 23.4326 46.345C23.9713 46.7537 24.6437 46.64 25.1975 46.0113C24.3538 45.1838 23.7163 44.2389 24.1525 42.9864C24.575 41.7727 25.5124 41.2128 26.7624 41.164C27.0786 39.5529 28.1786 38.7841 29.516 38.7604C30.1547 36.968 30.7059 36.4893 32.1446 36.358C32.5158 35.7468 32.7558 35.1356 33.1783 34.6994C34.217 33.6282 35.7719 33.7119 36.7881 34.8194C37.2843 35.3593 37.7531 35.923 38.283 36.5318C38.5793 36.3243 38.9043 36.1405 39.1755 35.898C39.5705 35.5456 40.0154 35.2056 40.2829 34.7644C40.8404 33.8457 41.6616 33.3357 42.6016 32.9045C44.1465 32.1957 45.6601 31.4208 47.1888 30.6758C47.8788 30.3396 48.1025 30.4008 48.5 31.0245V31.3058L48.4975 31.3108ZM32.2983 37.7554C31.6671 37.8092 31.3134 38.0442 31.0959 38.4542C30.8872 38.8479 30.9322 39.2466 31.2147 39.5904C31.6096 40.0716 32.0146 40.5453 32.4358 41.004C32.9146 41.5265 33.5333 41.5452 34.0458 41.0803C34.532 40.639 34.5695 40.0366 34.1257 39.5016C33.7583 39.0591 33.3933 38.6092 32.9858 38.2042C32.7683 37.9879 32.4633 37.8592 32.2971 37.7554H32.2983ZM33.7583 36.6143C33.782 36.6918 33.7908 36.9055 33.8983 37.0367C34.3782 37.6267 34.8582 38.2242 35.3957 38.7604C35.7882 39.1504 36.3944 39.0666 36.8306 38.6604C37.2568 38.2629 37.3518 37.6779 37.0006 37.2305C36.5794 36.693 36.1244 36.178 35.6557 35.6806C35.3394 35.3443 34.9207 35.2681 34.497 35.4631C34.062 35.6643 33.7708 35.993 33.7595 36.6155L33.7583 36.6143ZM27.5711 46.2463C28.2161 46.1925 28.5648 45.9513 28.776 45.5375C28.9798 45.1413 28.9223 44.7438 28.6398 44.4026C28.2423 43.9239 27.8398 43.4477 27.4174 42.9914C26.9549 42.4927 26.3399 42.4715 25.8412 42.9089C25.3412 43.3464 25.2875 43.9539 25.7224 44.4826C26.0987 44.9388 26.4724 45.4 26.8911 45.8163C27.1074 46.0313 27.4161 46.1525 27.5723 46.2475L27.5711 46.2463ZM30.3097 43.8176C30.9697 43.7939 31.3221 43.5601 31.5371 43.1427C31.7396 42.7477 31.7021 42.3452 31.4209 42.0015C31.0359 41.5303 30.6359 41.0715 30.2272 40.6203C29.7472 40.0903 29.1273 40.0516 28.6135 40.4991C28.1073 40.9403 28.0698 41.5665 28.531 42.1177C28.891 42.5489 29.246 42.9877 29.6447 43.3827C29.8635 43.5989 30.1672 43.7276 30.3109 43.8189L30.3097 43.8176Z" fill="#676BCB"/>
<path d="M0.5 16.8741C0.936227 16.2979 1.13622 16.2491 1.80118 16.5604C5.78473 18.4278 9.76577 20.2977 13.7543 22.1526C13.9755 22.2551 14.2655 22.2851 14.5093 22.2501C16.0379 22.0276 17.5566 21.7238 19.0903 21.5488C21.8189 21.2376 24.2463 22.0226 26.3612 23.76C26.6199 23.9725 26.8249 24.025 27.1536 23.93C29.2723 23.3175 31.4071 23.3275 33.4483 24.155C34.6095 24.6262 35.4894 24.4887 36.5469 23.8412C39.9804 21.7401 43.4865 19.7564 46.9638 17.7278C47.0588 17.6728 47.1513 17.6153 47.2476 17.5641C47.6713 17.3428 48.0638 17.4266 48.2675 17.7815C48.47 18.1328 48.3588 18.534 47.9513 18.7752C46.7038 19.5165 45.4477 20.2439 44.194 20.9751C41.5241 22.5313 38.848 24.0762 36.1894 25.6511C35.5169 26.0499 34.8707 26.1336 34.142 25.8549C32.7371 25.3186 31.3096 24.8587 29.776 24.9412C29.1748 24.9737 28.576 25.0612 27.8661 25.1349C28.0248 25.3286 28.0986 25.4361 28.1886 25.5274C29.0748 26.4298 29.9685 27.3273 30.8522 28.2322C31.8771 29.2834 31.9671 30.7321 31.0822 31.7908C30.191 32.8583 28.721 33.0145 27.4998 32.1595C26.4124 31.3983 25.3337 30.6246 24.2513 29.8584C24.1125 29.7597 23.97 29.6672 23.8075 29.5559C23.0088 30.2821 22.2251 30.9959 21.4402 31.7083C21.3014 31.8346 21.1689 31.9696 21.0189 32.0808C20.6815 32.3308 20.309 32.2995 20.0515 32.0108C19.8065 31.7371 19.8077 31.3208 20.1015 31.0421C20.6777 30.4921 21.2752 29.9647 21.8639 29.4272C22.1751 29.1434 22.4839 28.8547 22.8026 28.5785C23.4338 28.0298 24.0275 27.991 24.7187 28.4735C25.9087 29.3059 27.0774 30.1696 28.2836 30.9771C28.571 31.1696 28.9748 31.2808 29.3198 31.2696C29.766 31.2546 30.0797 30.9309 30.2185 30.4896C30.3634 30.0284 30.2435 29.6222 29.9135 29.2834C29.0285 28.3785 28.1423 27.4748 27.2449 26.5823C26.5924 25.9324 25.9674 25.2412 25.2475 24.6749C23.1401 23.0175 20.7402 22.5813 18.1303 23.0888C16.8904 23.33 15.6405 23.5275 14.388 23.6975C14.0705 23.7412 13.6956 23.68 13.4043 23.5437C9.31579 21.6451 5.23475 19.7289 1.15997 17.8015C0.909979 17.6803 0.718739 17.4353 0.5 17.2491V16.8741Z" fill="#676BCB"/>
<path d="M24.7796 0C25.9833 0.249987 27.1857 0.503724 28.3919 0.747461C29.7831 1.0287 31.1793 1.28993 32.568 1.57992C33.5767 1.78991 34.0854 2.39363 34.0966 3.41357C34.1141 5.03849 34.1066 6.6634 34.0991 8.28832C34.0966 8.82454 33.8466 9.11327 33.4217 9.12577C32.9754 9.13827 32.7042 8.83829 32.7017 8.28207C32.6942 6.71965 32.6904 5.15723 32.7042 3.59481C32.7079 3.20358 32.5867 2.99609 32.1792 2.9186C29.7119 2.44862 27.2507 1.9449 24.7796 1.49742C24.3721 1.42368 23.9184 1.53492 23.4972 1.61492C21.2435 2.04239 18.9949 2.48987 16.7425 2.9211C16.3813 2.98984 16.2101 3.13984 16.2126 3.53982C16.2301 5.57096 16.1913 7.6021 16.2313 9.63325C16.3076 13.568 18.8074 17.0241 22.4972 18.3665C22.746 18.4565 23.011 18.519 23.2409 18.644C24.0584 19.0853 24.8209 18.9715 25.6846 18.6653C28.0819 17.8141 30.0881 16.4904 31.348 14.2443C31.8367 13.3718 32.128 12.3844 32.4692 11.4357C32.6417 10.9557 32.8717 10.7044 33.2692 10.7419C33.7466 10.7869 33.9804 11.1857 33.8504 11.7619C33.4392 13.578 32.6342 15.198 31.408 16.6004C30.2243 17.9528 28.7919 18.9565 27.112 19.6002C26.442 19.8565 25.7758 20.129 25.0896 20.3352C24.7584 20.4339 24.3496 20.5064 24.0396 20.4002C22.611 19.9115 21.1473 19.484 19.8736 18.6303C16.6988 16.5029 14.9601 13.5405 14.8314 9.70824C14.7614 7.6171 14.8076 5.52096 14.8176 3.42857C14.8226 2.38863 15.3439 1.78741 16.3801 1.58367C18.9062 1.08619 21.4323 0.592469 23.9584 0.096245C24.0471 0.0787459 24.1309 0.0362481 24.2171 0.00499974C24.4046 0.00499974 24.5921 0.00499974 24.7796 0.00499974V0Z" fill="#676BCB"/>
<path d="M22.7239 11.7418C24.1326 10.0307 25.4988 8.37074 26.8649 6.70958C26.9612 6.59208 27.0537 6.46959 27.1587 6.36085C27.5924 5.91337 28.1274 5.86462 28.5523 6.2296C28.9561 6.57583 29.0148 7.09331 28.6711 7.57453C28.4311 7.90951 28.1549 8.2195 27.8924 8.53823C26.5112 10.2169 25.1338 11.8981 23.7476 13.573C23.1114 14.3417 22.6352 14.3579 21.8977 13.6667C21.469 13.2655 21.0277 12.878 20.6128 12.4618C20.1628 12.0106 20.1453 11.4068 20.5403 11.0106C20.9265 10.6231 21.4577 10.6281 21.9439 11.0369C22.1927 11.2456 22.4264 11.4731 22.7227 11.7418H22.7239Z" fill="#676BCB"/>
</svg>
