<svg width="40" height="40" viewBox="0 0 40 40" fill="none" xmlns="http://www.w3.org/2000/svg">
<path d="M35.5695 19.7933C35.1559 19.4387 35.0968 19.1433 35.2741 18.6116C36.7512 14.1212 38.2874 9.45352 39.8236 4.72678C40.0599 4.01777 40.0008 3.30876 39.5872 2.77701C39.2327 2.24525 38.5828 2.00891 37.8738 2.00891C32.1426 2.00891 27.0023 2.00891 21.8029 2.00891C17.9624 2.00891 14.4765 2.00891 11.2268 2.00891C9.74973 2.00891 8.62713 2.77701 8.09537 4.13594C7.50453 5.67213 7.03186 7.20832 6.55918 8.74451C6.38193 9.21718 6.26376 9.74894 6.08651 10.2216C5.96834 10.517 6.14559 10.8125 6.44102 10.9306C6.5001 10.9306 6.55918 10.9897 6.67735 10.9897C6.91369 10.9897 7.15003 10.8715 7.20911 10.6352C7.32728 10.3989 7.38636 10.2216 7.44544 9.98528C7.56361 9.27627 8.09537 9.1581 8.50896 9.1581C15.7763 9.1581 23.2209 9.1581 30.3701 9.1581H36.0422C36.1604 9.1581 36.2785 9.1581 36.3967 9.1581C36.4558 9.1581 36.5149 9.1581 36.5739 9.1581H37.0466L36.9285 9.57169L35.9831 12.3486L34.0924 18.0207L33.9742 18.4343L33.6197 18.2571C31.3155 17.0163 29.0112 16.3664 26.766 16.3664C24.6389 16.3664 22.571 16.9572 20.5621 18.0207C16.3672 20.325 14.0629 24.0473 13.7084 29.1286V29.424H13.413C13.3539 29.424 13.3539 29.424 13.2948 29.424C13.1766 29.424 13.1175 29.424 12.9994 29.424C10.9905 29.424 8.98164 29.424 6.97277 29.424C5.3775 29.424 3.78223 29.424 2.18696 29.424C1.89153 29.424 1.53703 29.3649 1.35978 29.1286C1.18252 28.8922 1.24161 28.5377 1.35978 28.2423C1.59611 27.5924 1.77336 26.9424 2.0097 26.2925C2.42329 24.9927 2.89596 23.6928 3.30955 22.393C3.42772 21.9794 3.72314 21.8021 4.13673 21.8021C4.90483 21.8021 5.79109 21.8021 6.8546 21.8021C7.32728 21.8021 7.79995 21.8021 8.27262 21.8021C8.7453 21.8021 9.15889 21.8021 9.63156 21.8021C10.0452 21.8021 10.3997 21.743 10.5178 21.5658C10.636 21.4476 10.636 21.3294 10.636 21.1522C10.636 20.9749 10.636 20.5613 9.63156 20.5613C8.62713 20.5613 7.68178 20.5613 6.67735 20.5613H3.66406C3.42772 20.5613 3.1323 20.5613 2.89596 20.5613C2.65963 20.5613 2.3642 20.5613 2.12787 20.5613C1.59611 20.5613 1.18252 20.5613 0.828018 20.5613C0.591681 20.5613 0.414428 20.6204 0.296259 20.7386C0.178091 20.8568 0.119009 20.9749 0.119009 21.1522C0.119009 21.5067 0.414429 21.743 0.828018 21.743C0.946186 21.743 1.00527 21.743 1.12344 21.743C1.18252 21.743 1.30069 21.743 1.35978 21.743C1.47794 21.743 1.53703 21.743 1.6552 21.743H2.12787L2.0097 22.1566C2.0097 22.2157 1.95062 22.2748 1.95062 22.3339C1.89153 22.452 1.89153 22.5702 1.83245 22.6884C1.65519 23.2201 1.47794 23.6928 1.35978 24.2246C0.946187 25.4653 0.532598 26.7061 0.178093 27.9469C0.0599244 28.3605 0.000837512 28.774 0.0599217 29.1876C0.237174 30.133 1.00527 30.7238 2.06878 30.7238C3.72314 30.7238 5.3775 30.7238 7.09094 30.7238H9.8679H12.6449H12.8812H13.0584H13.2357H13.413H13.6493L13.7084 30.9602C13.7675 31.2556 13.8265 31.4919 13.9447 31.7873C14.122 32.3782 14.2401 32.969 14.4174 33.5599C14.5946 34.1507 14.7128 34.2098 15.3627 34.2098C19.2623 34.2098 23.1618 34.2098 27.1205 34.2098C30.8428 34.2098 34.5651 34.2098 38.2874 34.2098C38.9373 34.2098 39.0555 34.1507 39.2918 33.5008C41.0053 28.774 39.4691 23.1611 35.5695 19.7933ZM36.8103 7.91733C35.3332 7.91733 33.797 7.91733 32.6744 7.91733C32.1426 7.91733 31.5518 7.91733 31.02 7.91733H30.0156C25.0525 7.91733 20.0304 7.91733 15.0673 7.91733H9.21797H9.04072H8.86347H8.62713H8.15446L8.33171 7.44466C8.44988 7.14923 8.50896 6.85381 8.62713 6.55839C8.86346 5.84938 9.04072 5.19946 9.33614 4.54953C9.57248 3.95869 10.1633 3.24968 11.5813 3.24968C14.0038 3.24968 16.4262 3.24968 18.7896 3.24968H20.9757H31.1382H37.4602C37.5193 3.24968 37.5193 3.24968 37.5784 3.24968C37.6375 3.24968 37.6375 3.24968 37.6965 3.24968C37.8147 3.24968 37.8738 3.24968 37.9329 3.24968C38.1692 3.24968 38.4646 3.30876 38.6419 3.5451C38.8191 3.78144 38.7601 4.07686 38.701 4.31319C38.3465 5.55396 37.992 6.55839 37.6375 7.50374C37.5193 7.79916 37.0466 7.91733 36.8103 7.91733ZM38.701 30.6057L38.2874 32.8509L38.2283 33.1463H37.9329H37.4011H33.6788H29.9565C25.6434 33.1463 21.0348 33.1463 16.3081 33.1463C16.0127 33.1463 15.4218 33.1463 15.3036 32.3782C15.2446 31.9646 15.1855 31.6101 15.0673 31.1965C15.0082 31.0192 15.0082 30.842 14.9491 30.6647L14.8901 30.2512H15.3036C16.1899 30.2512 16.4853 30.133 16.4853 29.6012C16.4853 29.3058 16.4853 29.1876 15.3036 28.9513L15.0082 28.8922V28.5968C15.2446 26.1743 16.1308 23.9291 17.7261 22.0385L17.9624 21.8021L18.1988 21.9794C18.4942 22.2157 18.9669 22.5111 19.2032 22.5111C19.2623 22.5111 19.3805 22.5111 19.4986 22.3339C19.6759 22.1566 19.8531 21.9794 19.1441 21.034L18.9078 20.7977L19.1441 20.5613C21.0348 18.9661 23.2209 18.0798 25.5843 17.8435H25.8206L25.9388 18.0798C25.9979 18.198 26.057 18.3752 26.1161 18.4934C26.2342 18.7888 26.3524 19.0252 26.4706 19.2615C26.5296 19.2615 26.6478 19.3206 26.766 19.3206C27.0023 19.3206 27.2386 19.3206 27.3568 18.1389L27.4159 17.7844H27.7704C30.1929 17.9616 32.4381 18.907 34.3878 20.5023L34.6833 20.7386L34.4469 20.9749C33.6788 21.8612 33.8561 22.0385 34.0924 22.2157C34.2697 22.393 34.3878 22.393 34.4469 22.393C34.6833 22.393 34.9787 22.2157 35.3923 21.8612L35.6286 21.6839L35.8649 21.9203C37.283 23.2201 38.701 26.7061 38.6419 28.4786V28.715L38.4646 28.774C38.3465 28.8331 38.1692 28.8922 38.0511 28.9513C37.7556 29.0695 37.5193 29.1876 37.283 29.3058C37.2239 29.3649 37.2239 29.4831 37.2239 29.6603C37.2239 29.8967 37.2239 30.133 38.4056 30.2512L38.7601 30.3102L38.701 30.6057Z" fill="#199FD3"/>
<path d="M0.413478 14.712C0.590731 14.771 0.76798 14.771 0.945232 14.771C1.41791 14.771 1.94966 14.771 2.42234 14.771H3.24952H4.13578H4.60845L4.4312 15.2437C4.37212 15.48 4.31303 15.6573 4.25395 15.8346C4.13578 16.2481 3.95853 16.6617 3.84036 17.0753C3.72219 17.4298 3.72219 17.8434 4.19486 18.0207C4.25395 18.0207 4.31303 18.0798 4.4312 18.0798C4.66754 18.0798 4.90387 17.9025 5.02204 17.548L5.14021 17.2526C5.31747 16.7208 5.5538 16.13 5.67197 15.5982C5.79013 15.0665 6.08556 14.8892 6.6764 14.8892C8.50801 14.8892 10.4578 14.8892 12.9984 14.8892C14.0619 14.8892 15.0664 14.8892 16.1299 14.8892H18.2569H18.316H18.3751C18.4932 14.8892 18.6705 14.8892 18.7887 14.8892C19.1432 14.8301 19.3204 14.5938 19.3204 14.2393C19.3204 14.062 19.3204 13.6484 18.4932 13.6484C15.7754 13.6484 13.1166 13.6484 10.3987 13.6484C7.26724 13.6484 4.07669 13.6484 0.945232 13.6484H0.886149H0.827066C0.767981 13.6484 0.708896 13.6484 0.649811 13.6484C0.35439 13.7075 0.177141 13.9439 0.118057 14.1802C-0.000111073 14.4165 0.177141 14.6529 0.413478 14.712Z" fill="#199FD3"/>
<path d="M9.92687 33.1464C9.69054 33.1464 9.39511 33.1464 9.15878 33.1464C8.98153 33.1464 8.74519 33.1464 8.56794 33.1464C8.39068 33.1464 8.15435 33.1464 7.97709 33.1464C7.50442 33.1464 6.97266 33.1464 6.49999 33.1464C6.02732 33.1464 5.49556 33.1464 5.02289 33.1464C4.13662 33.1464 3.4867 33.1464 2.83677 33.1464C2.54135 33.1464 2.30502 33.2645 2.18685 33.5009C2.06868 33.6781 2.06868 33.9145 2.18685 34.0917C2.30502 34.328 2.54135 34.3871 2.89586 34.3871H4.31388H5.67281H6.38182C6.73633 34.3871 7.09083 34.3871 7.44534 34.3871C7.79984 34.3871 8.15435 34.3871 8.50885 34.3871C9.09969 34.3871 9.57237 34.3871 9.98596 34.3871C10.4586 34.3871 10.7541 34.1508 10.7541 33.7372C10.695 33.3827 10.3995 33.1464 9.92687 33.1464Z" fill="#199FD3"/>
<path d="M20.4436 36.7504C19.4982 36.7504 18.2574 36.7504 17.0167 36.7504C15.4805 36.7504 14.1215 36.7504 12.8808 36.7504C12.7626 36.7504 12.4672 36.8685 12.349 37.0458C12.1718 37.223 12.2899 37.5185 12.349 37.5775C12.4672 37.8139 12.6444 37.932 12.9399 37.932H14.7124H16.7213H16.7803C17.1348 37.932 17.4893 37.932 17.8439 37.932C18.1984 37.932 18.5529 37.932 18.9074 37.932C19.4982 37.932 20.03 37.932 20.5026 37.932C20.9162 37.932 21.1526 37.6957 21.1526 37.3412C21.1526 37.164 21.0935 36.9867 20.9753 36.9276C20.7981 36.8094 20.6208 36.7504 20.4436 36.7504Z" fill="#199FD3"/>
<path d="M34.0916 24.6971C33.9735 24.6381 33.9144 24.6381 33.7962 24.6381C33.678 24.6381 33.5008 24.6971 33.3235 24.8153C32.7327 25.1698 32.2009 25.5243 31.6101 25.8788C30.7238 26.4106 29.8376 27.0014 28.9513 27.5923C28.715 27.7104 28.5377 27.7695 28.3605 27.7695C28.1832 27.7695 28.065 27.7104 27.8287 27.6514C27.5333 27.4741 27.2379 27.415 26.8834 27.415C26.3516 27.415 25.8198 27.5923 25.4063 28.0059C24.7563 28.5967 24.52 29.542 24.8745 30.3692C25.1699 31.1964 25.9971 31.7282 26.8834 31.7282C28.065 31.7282 29.0104 30.8419 29.0104 29.7193C29.0104 29.1285 29.2467 28.7149 29.7785 28.5376C29.8376 28.5376 29.8376 28.4785 29.8966 28.4785L29.9557 28.4194C30.3693 28.1831 30.7238 27.9468 31.1374 27.7104C32.0828 27.1196 33.0281 26.5288 33.9735 25.9379C34.2098 25.7607 34.387 25.5243 34.328 25.288C34.387 24.9926 34.2689 24.8153 34.0916 24.6971ZM27.7696 29.6011C27.7105 30.1329 27.356 30.4283 26.8834 30.4283H26.8243C26.2925 30.4283 25.938 30.0147 25.938 29.483C25.938 28.9512 26.3516 28.5967 26.8243 28.5967C26.8243 28.5967 26.8243 28.5967 26.8834 28.5967C27.1197 28.5967 27.6515 28.7149 27.7696 29.483V29.6011Z" fill="#199FD3"/>
<path d="M29.8374 4.66772V4.84498V4.66772C29.8374 4.66772 29.7783 4.66772 29.8374 4.66772C29.1874 4.66772 28.5375 5.31765 28.4784 5.90849C28.4784 6.32208 28.7738 6.6175 29.1874 6.6175C29.8374 6.6175 30.5464 5.96758 30.4873 5.37673C30.5464 4.90406 30.251 4.66772 29.8374 4.66772Z" fill="#199FD3"/>
<path d="M32.7921 4.66772C32.1421 4.66772 31.4922 5.31765 31.4331 5.90849C31.4331 6.32208 31.7286 6.55842 32.1421 6.55842C32.7921 6.55842 33.442 5.90849 33.442 5.31765C33.5011 4.96315 33.2057 4.66772 32.7921 4.66772Z" fill="#199FD3"/>
<path d="M35.805 4.66772V4.84498V4.66772C35.155 4.66772 34.5051 5.25857 34.5051 5.84941C34.5051 6.263 34.7414 6.55842 35.2141 6.55842C35.864 6.55842 36.514 5.96758 36.514 5.37673C36.514 4.96314 36.2186 4.66772 35.805 4.66772Z" fill="#199FD3"/>
</svg>
