<svg width="40" height="40" viewBox="0 0 40 40" fill="none" xmlns="http://www.w3.org/2000/svg">
<path fill-rule="evenodd" clip-rule="evenodd" d="M3.89971 6.36997H8.09971C8.48596 6.36997 8.79971 6.05622 8.79971 5.66997C8.79971 5.28372 8.48596 4.96997 8.09971 4.96997H3.89971C3.51346 4.96997 3.19971 5.28372 3.19971 5.66997C3.19971 6.05622 3.51346 6.36997 3.89971 6.36997Z" fill="#199FD3"/>
<path fill-rule="evenodd" clip-rule="evenodd" d="M3.89971 16.87H10.1997C10.586 16.87 10.8997 16.5562 10.8997 16.17C10.8997 15.7837 10.586 15.47 10.1997 15.47H3.89971C3.51346 15.47 3.19971 15.7837 3.19971 16.17C3.19971 16.5562 3.51346 16.87 3.89971 16.87Z" fill="#199FD3"/>
<path fill-rule="evenodd" clip-rule="evenodd" d="M21.3997 6.36997H25.5997C25.986 6.36997 26.2997 6.05622 26.2997 5.66997C26.2997 5.28372 25.986 4.96997 25.5997 4.96997H21.3997C21.0135 4.96997 20.6997 5.28372 20.6997 5.66997C20.6997 6.05622 21.0135 6.36997 21.3997 6.36997Z" fill="#199FD3"/>
<path fill-rule="evenodd" clip-rule="evenodd" d="M19.2997 8.47002C19.2997 8.08377 18.986 7.77002 18.5997 7.77002H3.89971C3.51346 7.77002 3.19971 8.08377 3.19971 8.47002V13.37C3.19971 13.7563 3.51346 14.07 3.89971 14.07H18.5997C18.986 14.07 19.2997 13.7563 19.2997 13.37V8.47002ZM4.59971 9.17002V12.67H17.8997V9.17002H4.59971Z" fill="#199FD3"/>
<path fill-rule="evenodd" clip-rule="evenodd" d="M36.7997 18.97C36.7997 18.5838 36.486 18.27 36.0997 18.27H3.89971C3.51346 18.27 3.19971 18.5838 3.19971 18.97V30.87C3.19971 31.2563 3.51346 31.57 3.89971 31.57H36.0997C36.486 31.57 36.7997 31.2563 36.7997 30.87V18.97ZM4.59971 19.67V30.17H35.3997V19.67H4.59971Z" fill="#199FD3"/>
<path fill-rule="evenodd" clip-rule="evenodd" d="M36.7997 8.47002C36.7997 8.08377 36.486 7.77002 36.0997 7.77002H21.3997C21.0135 7.77002 20.6997 8.08377 20.6997 8.47002V13.37C20.6997 13.7563 21.0135 14.07 21.3997 14.07H36.0997C36.486 14.07 36.7997 13.7563 36.7997 13.37V8.47002ZM22.0997 9.17002V12.67H35.3997V9.17002H22.0997Z" fill="#199FD3"/>
<path fill-rule="evenodd" clip-rule="evenodd" d="M36.7997 36.1204C36.7997 35.4707 36.5413 34.8479 36.0822 34.3879C35.6222 33.9289 34.9994 33.6704 34.3497 33.6704H28.0497C27.4 33.6704 26.7773 33.9289 26.3173 34.3879C25.8582 34.8479 25.5997 35.4707 25.5997 36.1204C25.5997 36.7701 25.8582 37.3929 26.3173 37.8529C26.7773 38.3119 27.4001 38.5704 28.0497 38.5704H34.3497C34.9994 38.5704 35.6222 38.3119 36.0822 37.8529C36.5413 37.3929 36.7997 36.7701 36.7997 36.1204ZM35.3997 36.1204C35.3997 36.3991 35.2891 36.6657 35.0925 36.8632C34.895 37.0598 34.6285 37.1704 34.3497 37.1704H28.0497C27.771 37.1704 27.5044 37.0598 27.3069 36.8632C27.1103 36.6657 26.9997 36.3991 26.9997 36.1204C26.9997 35.8416 27.1103 35.5751 27.3069 35.3776C27.5044 35.181 27.771 35.0704 28.0497 35.0704H34.3497C34.6285 35.0704 34.895 35.181 35.0925 35.3776C35.2891 35.5751 35.3997 35.8416 35.3997 36.1204Z" fill="#199FD3"/>
<path fill-rule="evenodd" clip-rule="evenodd" d="M33.2997 28.07C33.2997 27.6837 33.6135 27.37 33.9997 27.37C34.386 27.37 34.6997 27.6837 34.6997 28.07V28.77C34.6997 29.1562 34.386 29.47 33.9997 29.47H33.2997C32.9135 29.47 32.5997 29.1562 32.5997 28.77C32.5997 28.3837 32.9135 28.07 33.2997 28.07Z" fill="#199FD3"/>
</svg>
