<svg width="40" height="40" viewBox="0 0 40 40" fill="none" xmlns="http://www.w3.org/2000/svg">
<path d="M9.21692 39.9409C6.85355 39.1137 5.96729 37.4594 5.96729 34.9778C6.02637 24.8154 5.96729 14.712 6.02637 4.54948C6.02637 1.65435 7.62164 0.059082 10.5168 0.059082C16.8388 0.059082 23.2199 0.059082 29.5419 0.059082C32.3188 0.059082 33.9141 1.65436 33.9141 4.43131C33.9141 14.5938 33.855 24.7563 33.9732 34.9188C33.9732 37.4003 33.146 39.0546 30.7826 39.8818C23.5744 39.9409 16.3661 39.9409 9.21692 39.9409ZM32.6143 19.9705C32.6143 14.8301 32.6143 9.6898 32.6143 4.54948C32.6143 2.30428 31.6689 1.41802 29.4828 1.41802C23.1608 1.41802 16.8388 1.41802 10.5759 1.41802C8.33065 1.41802 7.44439 2.36336 7.44439 4.54948C7.44439 14.8301 7.44439 25.1699 7.44439 35.4505C7.44439 37.6957 8.38974 38.582 10.5759 38.582C16.8979 38.582 23.2199 38.582 29.4828 38.582C31.728 38.582 32.6143 37.6366 32.6143 35.4505C32.6143 30.3102 32.6143 25.1108 32.6143 19.9705Z" fill="#199FD3"/>
<path d="M27.2964 13.9439C27.2964 17.9616 23.9877 21.3294 19.97 21.2703C15.9523 21.2703 12.7026 17.9616 12.6436 13.9439C12.6436 9.92618 15.9523 6.55838 19.97 6.61747C23.9877 6.67655 27.2964 9.98526 27.2964 13.9439ZM19.97 19.9705C23.2787 19.9705 25.9375 17.3117 25.9966 14.0621C25.9966 10.7534 23.3378 8.03549 19.97 8.03549C16.7204 8.03549 14.0025 10.7534 14.0025 14.003C14.0025 17.3117 16.6613 19.9705 19.97 19.9705Z" fill="#199FD3"/>
<path d="M19.9108 33.2645C19.3199 33.2645 18.7882 33.3235 18.1973 33.2645C16.8975 33.1463 15.9521 32.1419 15.9521 30.9602C15.9521 29.7194 16.8975 28.715 18.1973 28.6559C19.379 28.5968 20.5016 28.5968 21.6833 28.6559C22.9832 28.715 23.9285 29.7194 23.9285 30.9602C23.9285 32.2009 22.9832 33.2054 21.6833 33.2645C21.0925 33.3235 20.5016 33.2645 19.9108 33.2645ZM19.9108 31.9646C20.5016 31.9646 21.0334 32.0237 21.6242 31.9646C22.2151 31.9055 22.6877 31.551 22.5696 30.9602C22.4514 30.6057 21.9787 30.0739 21.6833 30.0148C20.5607 29.8967 19.4381 29.8967 18.3155 30.0148C17.961 30.0739 17.4293 30.6057 17.4293 30.9602C17.4293 31.3147 17.9019 31.7873 18.2564 31.9055C18.7882 32.0828 19.379 31.9646 19.9108 31.9646Z" fill="#199FD3"/>
<path d="M17.8433 14.2985C18.1387 14.4166 18.316 14.7121 18.6705 15.0666C19.734 13.944 20.7975 12.9395 21.8019 11.876C22.1564 11.5215 22.57 11.0488 23.0427 11.6397C23.22 11.8169 23.0427 12.5259 22.8064 12.7623C21.6838 13.944 20.5021 15.0666 19.3795 16.2482C18.9068 16.78 18.4341 16.78 17.9615 16.2482C17.666 15.8937 17.2525 15.6574 17.0161 15.2438" fill="#199FD3"/>
<path d="M22.6291 26.647H17.3115C16.957 26.647 16.6616 26.3516 16.6616 25.9971C16.6616 25.6426 16.957 25.3472 17.3115 25.3472H22.6291C22.9836 25.3472 23.279 25.6426 23.279 25.9971C23.279 26.3516 22.9836 26.647 22.6291 26.647Z" fill="#199FD3"/>
<path d="M21.2115 23.9291H18.73C18.3755 23.9291 18.0801 23.6337 18.0801 23.2792C18.0801 22.9247 18.3755 22.6293 18.73 22.6293H21.2115C21.566 22.6293 21.8615 22.9247 21.8615 23.2792C21.8615 23.6337 21.566 23.9291 21.2115 23.9291Z" fill="#199FD3"/>
<path d="M21.2115 4.54949H18.73C18.3755 4.54949 18.0801 4.25407 18.0801 3.89956C18.0801 3.54505 18.3755 3.24963 18.73 3.24963H21.2115C21.566 3.24963 21.8615 3.54505 21.8615 3.89956C21.8615 4.25407 21.566 4.54949 21.2115 4.54949Z" fill="#199FD3"/>
<path d="M19.9702 35.9825H19.9112C19.5567 35.9825 19.2612 35.687 19.2612 35.3325C19.2612 34.978 19.5567 34.6826 19.9112 34.6826H19.9702C20.3247 34.6826 20.6202 34.978 20.6202 35.3325C20.6793 35.687 20.3838 35.9825 19.9702 35.9825Z" fill="#199FD3"/>
</svg>
