<svg width="49" height="48" viewBox="0 0 49 48" fill="none" xmlns="http://www.w3.org/2000/svg">
<path d="M48.5 2.71875V45.2812C48.2887 45.7562 48.13 46.2663 47.8525 46.7C47.3775 47.4425 46.6075 47.7812 45.7812 48H3.21875C2.23 47.755 1.4075 47.2687 0.90875 46.3488C0.74125 46.0413 0.635 45.7 0.5 45.375C0.5 31.125 0.5 16.875 0.5 2.625C0.74125 1.9325 0.99375 1.22625 1.62 0.7925C2.0825 0.4725 2.62 0.26 3.125 0C17.375 0 31.625 0 45.875 0C46.2925 0.1925 46.7388 0.34125 47.1237 0.585C47.9 1.07625 48.2788 1.85375 48.5 2.71875ZM2.0975 8.01625V8.585C2.0975 20.5525 2.0975 32.52 2.0975 44.4875C2.0975 45.805 2.69625 46.4012 4.0175 46.4012C17.6725 46.4012 31.3275 46.4012 44.9825 46.4012C46.3025 46.4012 46.9025 45.8025 46.9025 44.4875C46.9025 32.5037 46.9025 20.5213 46.9025 8.5375C46.9025 8.37125 46.9025 8.205 46.9025 8.015H2.0975V8.01625ZM2.1025 6.3525H46.87C46.885 6.28375 46.8975 6.25375 46.8975 6.22375C46.9 5.33375 46.9025 4.4425 46.9025 3.5525C46.9025 2.17375 46.3213 1.5975 44.93 1.5975C31.3075 1.5975 17.685 1.5975 4.06125 1.5975C3.905 1.5975 3.7475 1.59125 3.5925 1.60375C2.79 1.6675 2.13375 2.28875 2.10875 3.09125C2.075 4.16625 2.1 5.2425 2.1 6.35375L2.1025 6.3525Z" fill="#676BCB"/>
<path d="M42.0665 4.79245C41.3177 4.79245 40.5702 4.79745 39.8215 4.7912C39.2502 4.7862 38.9215 4.4962 38.9152 4.0112C38.909 3.5262 39.2415 3.20245 39.7977 3.1987C41.3415 3.18995 42.884 3.18995 44.4277 3.1987C44.939 3.20245 45.2927 3.54245 45.3015 3.9862C45.3102 4.44995 44.9477 4.78495 44.4052 4.78995C43.6252 4.79745 42.8465 4.79245 42.0665 4.79245Z" fill="#676BCB"/>
<path d="M4.85155 4.78871C4.08655 4.79121 3.70655 4.53246 3.7003 4.00871C3.6928 3.47246 4.09405 3.19371 4.8778 3.19496C5.04905 3.19496 5.2228 3.18496 5.39155 3.20871C5.8078 3.26871 6.1078 3.61871 6.1003 4.01121C6.0928 4.42996 5.7678 4.75621 5.31905 4.78746C5.16405 4.79871 5.0078 4.78871 4.85155 4.78871Z" fill="#676BCB"/>
<path d="M12.909 4.79007C12.769 4.79007 12.6277 4.79757 12.4877 4.78757C12.029 4.75632 11.7202 4.44632 11.7102 4.01757C11.7002 3.58882 11.9965 3.24632 12.449 3.20507C12.7427 3.17882 13.0427 3.17882 13.3365 3.20257C13.7865 3.23882 14.0965 3.58132 14.094 4.00132C14.0915 4.44757 13.769 4.76132 13.2827 4.78882C13.159 4.79507 13.034 4.78882 12.909 4.78882V4.79007Z" fill="#676BCB"/>
<path d="M8.87776 4.78753C8.06775 4.79253 7.70526 4.54253 7.71151 3.98878C7.71651 3.44128 8.08526 3.19378 8.89776 3.19503C9.06901 3.19503 9.24276 3.18378 9.41026 3.21128C9.83401 3.28128 10.099 3.61378 10.084 4.03128C10.069 4.45003 9.78026 4.74878 9.34526 4.78503C9.19026 4.79753 9.03401 4.78753 8.87776 4.78753Z" fill="#676BCB"/>
<path d="M11.7535 25.9646C11.9682 25.7362 12.1743 25.4993 12.4016 25.2825C12.7214 24.9765 13.1209 24.9648 13.3961 25.2326C13.6724 25.5014 13.6755 25.9147 13.3706 26.2271C12.7214 26.8922 12.0659 27.5509 11.3987 28.198C11.0682 28.5188 10.7091 28.5093 10.3755 28.1841C9.71996 27.5435 9.07292 26.8964 8.43118 26.2419C8.11138 25.9168 8.10182 25.5354 8.37594 25.2485C8.65218 24.9606 9.06867 24.9702 9.39697 25.2963C9.6594 25.5566 9.89846 25.8403 10.2214 26.1941C10.3139 25.5566 10.3776 25.0509 10.4616 24.5484C11.4337 18.7611 16.1277 14.0458 21.9299 13.0248C28.9635 11.787 35.7346 15.7628 38.0157 22.4702C38.2261 23.0875 38.1209 23.4763 37.7044 23.6208C37.255 23.777 36.9469 23.5518 36.7237 22.9037C34.8283 17.4 29.6041 13.8663 23.7998 14.1606C17.6959 14.4698 12.6046 19.1202 11.7291 25.1869C11.6951 25.4217 11.6685 25.6576 11.6388 25.8935L11.7503 25.9646H11.7535Z" fill="#676BCB"/>
<path d="M37.3233 28.0876C37.0322 28.3926 36.825 28.6274 36.5998 28.8431C36.2598 29.1692 35.8592 29.1788 35.5777 28.8824C35.3089 28.6008 35.3248 28.2109 35.6382 27.8911C36.2704 27.2472 36.9079 26.6076 37.5507 25.9744C37.9183 25.6121 38.2604 25.6046 38.6291 25.9627C39.2761 26.5917 39.9136 27.2313 40.5447 27.8762C40.8805 28.2194 40.89 28.6146 40.5989 28.9004C40.3099 29.1831 39.9221 29.1607 39.5768 28.825C39.3218 28.5774 39.0817 28.3129 38.7555 27.9729C38.6981 28.4021 38.6546 28.7177 38.6131 29.0332C37.8259 34.9841 33.2349 39.8811 27.3339 41.0615C20.413 42.447 13.5855 38.6497 11.1068 32.0369C11.0367 31.8509 10.9719 31.6629 10.9124 31.4727C10.7689 31.0137 10.9113 30.6471 11.281 30.5111C11.6699 30.3677 12.046 30.5685 12.198 31.036C12.7473 32.7243 13.5707 34.2638 14.7745 35.5674C18.2774 39.3626 22.6028 40.815 27.6102 39.5634C32.6516 38.3033 35.7742 34.9544 37.0768 29.9247C37.199 29.4519 37.2457 28.9589 37.3222 28.4754C37.3361 28.3904 37.3244 28.3023 37.3244 28.0866L37.3233 28.0876Z" fill="#676BCB"/>
<path d="M22.0832 30.7343C23.7078 28.6717 25.2802 26.6755 26.8526 24.6792C27.6134 23.7123 28.3689 22.7402 29.1391 21.7797C29.5402 21.279 30.1205 21.2179 30.5122 21.6102C30.8438 21.9427 30.8318 22.3377 30.4561 22.8167C29.1765 24.4473 27.8942 26.0742 26.6119 27.7035C25.4393 29.1915 24.268 30.6808 23.0954 32.1687C22.487 32.9407 22.0564 32.9726 21.3545 32.3025C20.6231 31.6044 19.8877 30.9101 19.159 30.2094C18.703 29.7712 18.6616 29.3074 19.0319 28.9507C19.405 28.5902 19.8997 28.617 20.3543 29.0488C20.9212 29.5864 21.4735 30.1393 22.0832 30.7343Z" fill="#676BCB"/>
</svg>
