<svg width="49" height="48" viewBox="0 0 49 48" fill="none" xmlns="http://www.w3.org/2000/svg">
<path d="M48.4988 38.1563C48.1375 39.0363 47.585 39.7063 46.59 39.8838C46.4825 39.9025 46.3738 39.9225 46.265 39.9213C45.8388 39.9163 45.5263 39.6475 45.4875 39.2625C45.445 38.84 45.6938 38.5213 46.135 38.435C46.81 38.3025 46.9975 38.0913 46.9975 37.4425C46.9975 27.8363 46.9975 18.23 46.9975 8.62251C46.9975 8.48626 46.9838 8.35001 46.9763 8.19001H1.99875V8.67876C1.99875 18.2538 1.99875 27.8288 1.99875 37.405C1.99875 38.2388 2.1875 38.4288 3.01125 38.4288C9.13501 38.4288 15.2575 38.4288 21.3813 38.4288C21.5213 38.4288 21.6625 38.425 21.8025 38.4288C22.29 38.4438 22.605 38.7213 22.6225 39.145C22.64 39.5825 22.3163 39.8963 21.81 39.925C21.67 39.9325 21.5288 39.9275 21.3888 39.9275C15.3438 39.9275 9.29876 39.9063 3.25375 39.9438C1.87625 39.9525 0.93125 39.5 0.5 38.1538V1.78125C0.78125 0.876251 1.37375 0.28125 2.28 0H46.7175C47.6188 0.28625 48.2188 0.873751 48.4988 1.78125V38.1563ZM2 6.63501H46.9988C46.9988 5.27751 46.9988 3.9525 46.9988 2.62625C46.9988 1.66875 46.8325 1.5 45.895 1.5C31.6325 1.5 17.37 1.5 3.10875 1.5C2.96875 1.5 2.82625 1.49125 2.6875 1.50375C2.27 1.54375 2.01125 1.77875 2.00625 2.19625C1.99125 3.6625 2.00125 5.13001 2.00125 6.63501H2Z" fill="#676BCB"/>
<path d="M33.5928 47.9999C32.0328 47.5937 30.9641 46.5562 29.9991 45.3237C28.5366 43.4549 27.0066 41.6399 25.5028 39.8049C25.0516 39.2549 24.6953 38.6649 24.5628 37.9499C24.1928 35.9574 25.9553 34.4262 27.8603 35.1237C28.3041 35.2862 28.7241 35.5612 29.0953 35.8599C29.8691 36.4812 30.6041 37.1537 31.4378 37.8762C31.4378 37.6124 31.4378 37.4487 31.4378 37.2862C31.4378 32.7574 31.4291 28.2287 31.4491 23.6999C31.4516 23.1799 31.5316 22.6324 31.7116 22.1474C32.0728 21.1762 32.8153 20.6062 33.8666 20.5349C34.9766 20.4587 35.8316 20.9512 36.3078 21.9324C36.5503 22.4312 36.6678 23.0349 36.6791 23.5949C36.7203 25.7962 36.6966 27.9987 36.6966 30.1999C36.6966 30.3712 36.6966 30.5412 36.6966 30.7487C37.4503 30.9362 38.1928 31.1037 38.9253 31.3087C39.8103 31.5562 40.6903 31.8249 41.5653 32.1062C42.8416 32.5162 44.1603 33.9787 44.1291 35.7162C44.0741 38.6974 44.0716 41.6824 44.1303 44.6637C44.1616 46.2812 43.6228 47.4737 41.8441 47.9999H33.5941H33.5928ZM32.9378 31.3962C32.9378 34.0212 32.9341 36.6462 32.9416 39.2712C32.9416 39.6724 32.8891 40.0274 32.4841 40.2124C32.0716 40.3999 31.7716 40.1774 31.4778 39.9174C30.4478 39.0074 29.4191 38.0937 28.3728 37.2024C28.0678 36.9424 27.7178 36.7237 27.3616 36.5387C27.0241 36.3637 26.6616 36.3812 26.3528 36.6449C26.0378 36.9137 25.9141 37.2774 26.0328 37.6587C26.1416 38.0087 26.2928 38.3737 26.5203 38.6562C28.3216 40.8962 30.1303 43.1299 31.9691 45.3387C32.6128 46.1124 33.4553 46.5237 34.5128 46.5087C36.7003 46.4762 38.8878 46.4987 41.0753 46.4987C42.1728 46.4987 42.6041 46.0699 42.6041 44.9724C42.6041 41.9099 42.6041 38.8474 42.6041 35.7849C42.6041 34.6249 42.0553 33.8199 40.9316 33.4787C39.5003 33.0437 38.0541 32.6537 36.6066 32.2712C35.5091 31.9812 35.1966 31.6087 35.1966 30.4649C35.1966 28.1999 35.2053 25.9337 35.1866 23.6687C35.1841 23.3049 35.1053 22.9199 34.9653 22.5862C34.8053 22.2049 34.4566 22.0087 34.0191 22.0212C33.5766 22.0337 33.2641 22.2612 33.1253 22.6587C33.0141 22.9749 32.9491 23.3249 32.9478 23.6612C32.9341 26.2387 32.9403 28.8174 32.9403 31.3949L32.9378 31.3962Z" fill="#676BCB"/>
<path d="M13.8109 11.7075C16.1384 11.7075 18.4659 11.705 20.7946 11.7075C22.1234 11.7088 22.8221 12.4038 22.8221 13.725C22.8234 18.1775 22.8234 22.63 22.8221 27.0825C22.8221 28.4063 22.1246 29.1126 20.8034 29.1138C16.1484 29.1176 11.4921 29.1188 6.83712 29.1138C5.52837 29.1126 4.82087 28.385 4.82087 27.0675C4.81962 22.6313 4.81962 18.1938 4.82087 13.7575C4.82087 12.42 5.53337 11.71 6.87587 11.7088C9.18837 11.7063 11.4996 11.7088 13.8121 11.7088L13.8109 11.7075ZM10.6696 13.2075C9.39337 13.2075 8.19337 13.2075 6.99212 13.2075C6.34962 13.2075 6.32587 13.23 6.32587 13.86C6.32587 18.2175 6.32587 22.5763 6.32587 26.9338C6.32587 27.5875 6.35337 27.615 7.01712 27.615C11.5621 27.615 16.1084 27.615 20.6534 27.615C20.7309 27.615 20.8096 27.6113 20.8871 27.615C21.2034 27.625 21.3271 27.4763 21.3271 27.1588C21.3221 22.66 21.3209 18.1613 21.3271 13.6625C21.3271 13.3125 21.1809 13.2 20.8471 13.2038C19.6284 13.215 18.4109 13.2088 17.1921 13.2113C17.1346 13.2113 17.0771 13.235 16.9884 13.255C16.9884 13.4388 16.9884 13.6075 16.9884 13.7763C16.9884 15.26 16.9884 16.7438 16.9884 18.2275C16.9884 18.7425 16.7759 19.145 16.2921 19.3475C15.8359 19.5388 15.4059 19.4525 15.0321 19.1163C14.6496 18.7725 14.2634 18.4325 13.8596 18.0725C13.4584 18.4213 13.0671 18.7538 12.6846 19.095C12.2884 19.4488 11.8484 19.5825 11.3484 19.36C10.8446 19.1363 10.6621 18.7113 10.6684 18.1813C10.6721 17.8538 10.6684 17.525 10.6684 17.1975C10.6684 15.8875 10.6684 14.5775 10.6684 13.205L10.6696 13.2075ZM12.1946 17.3513C12.7659 17.0475 13.2859 16.635 13.8721 16.495C14.5671 16.3288 14.8984 17.1263 15.4584 17.4225V13.2363H12.1946V17.3525V17.3513Z" fill="#676BCB"/>
<path d="M35.0952 17.4213C37.204 17.4213 39.314 17.4188 41.4227 17.4213C42.9227 17.4238 43.8502 18.3338 43.8652 19.8375C43.8777 21.04 43.8802 22.2438 43.8652 23.4463C43.8465 24.91 42.9027 25.8413 41.4452 25.8563C40.8052 25.8625 40.164 25.865 39.524 25.855C38.9677 25.8463 38.6452 25.555 38.6465 25.0925C38.6465 24.63 38.964 24.365 39.5365 24.36C40.1765 24.3538 40.8177 24.3663 41.4577 24.3563C42.064 24.3463 42.359 24.0688 42.3652 23.4663C42.379 22.2475 42.379 21.0288 42.3652 19.81C42.359 19.1913 42.0827 18.9188 41.4702 18.9175C37.2052 18.9125 32.939 18.9125 28.674 18.9175C28.0265 18.9175 27.764 19.1863 27.7602 19.83C27.754 21.0325 27.754 22.2363 27.7602 23.4388C27.764 24.07 28.044 24.34 28.6815 24.3575C28.8527 24.3625 29.0265 24.3488 29.1965 24.37C29.5665 24.415 29.799 24.6288 29.844 25C29.8915 25.39 29.7152 25.6663 29.3427 25.8C28.0027 26.28 26.3377 25.2225 26.2827 23.7975C26.2277 22.3625 26.239 20.9225 26.279 19.4863C26.3115 18.3275 27.3177 17.43 28.5315 17.4238C30.719 17.4125 32.9065 17.4213 35.094 17.42L35.0952 17.4213Z" fill="#676BCB"/>
<path d="M10.4189 32.82C8.87265 32.82 7.3264 32.8213 5.78015 32.82C5.1864 32.82 4.8339 32.5437 4.8239 32.0887C4.8139 31.62 5.1864 31.3213 5.7964 31.3213C8.8889 31.32 11.9814 31.32 15.0727 31.3213C15.6627 31.3213 16.0114 31.5962 16.0227 32.0575C16.0352 32.535 15.6802 32.8175 15.0552 32.8187C13.5089 32.8212 11.9627 32.8187 10.4164 32.8187L10.4189 32.82Z" fill="#676BCB"/>
<path d="M7.37647 34.4937C7.93897 34.4937 8.50147 34.4862 9.06272 34.495C9.58897 34.5037 9.90272 34.7875 9.90147 35.2337C9.90147 35.6812 9.58397 35.985 9.07022 35.9887C7.93022 35.9987 6.79022 35.9987 5.65022 35.9887C5.15647 35.9837 4.81272 35.645 4.82397 35.2187C4.83397 34.8012 5.15647 34.5062 5.64272 34.4962C6.22022 34.485 6.79772 34.4937 7.37647 34.4937Z" fill="#676BCB"/>
<path d="M30.3076 4.84376C26.2001 4.84376 22.0926 4.84376 17.9851 4.84126C17.7839 4.84126 17.5751 4.84126 17.3814 4.79251C17.0001 4.69626 16.7976 4.42126 16.8239 4.03376C16.8501 3.64751 17.0826 3.40751 17.4776 3.35751C17.6164 3.34001 17.7576 3.34376 17.8989 3.34376C26.1764 3.34376 34.4539 3.34376 42.7314 3.34376C42.8877 3.34376 43.0452 3.33751 43.1989 3.36126C43.5702 3.41876 43.7852 3.64501 43.8139 4.01876C43.8439 4.41001 43.6627 4.68876 43.2802 4.79001C43.0877 4.84126 42.8789 4.84001 42.6777 4.84126C38.5539 4.84376 34.4314 4.84376 30.3076 4.84376Z" fill="#676BCB"/>
<path d="M11.3135 4.80003C10.9135 4.80878 10.5885 4.51128 10.5685 4.11628C10.5473 3.71127 10.8823 3.36877 11.2973 3.36877C11.6923 3.36877 12.016 3.68627 12.0198 4.07628C12.0235 4.46628 11.706 4.79128 11.3135 4.79878V4.80003Z" fill="#676BCB"/>
<path d="M8.84394 4.06372C8.85394 4.46372 8.55644 4.78497 8.16019 4.79997C7.73769 4.81622 7.41019 4.50372 7.41019 4.08372C7.41019 3.68872 7.72019 3.37497 8.11769 3.36997C8.51644 3.36372 8.83394 3.66747 8.84394 4.06372Z" fill="#676BCB"/>
<path d="M4.97455 4.79993C4.5758 4.80618 4.26205 4.50743 4.24705 4.10993C4.23205 3.69618 4.5558 3.36493 4.9708 3.36993C5.3683 3.37493 5.6708 3.68368 5.6708 4.08368C5.6708 4.48743 5.3733 4.79368 4.9733 4.79993H4.97455Z" fill="#676BCB"/>
<path d="M17.1186 23.8912C17.5711 23.8912 18.0236 23.8812 18.4761 23.895C18.9398 23.9087 19.2348 24.1887 19.2498 24.5987C19.2661 25.03 18.9686 25.37 18.4948 25.38C17.5598 25.4012 16.6223 25.4 15.6873 25.3812C15.2048 25.3712 14.9098 25.0512 14.9136 24.6175C14.9173 24.1837 15.2136 23.9062 15.7136 23.8925C16.1811 23.8812 16.6498 23.89 17.1173 23.89L17.1186 23.8912Z" fill="#676BCB"/>
</svg>
