<svg width="40" height="40" viewBox="0 0 40 40" fill="none" xmlns="http://www.w3.org/2000/svg">
<path d="M24.724 11.6555C24.7049 11.5981 24.6699 11.5512 24.6372 11.5042C24.6282 11.4902 24.6231 11.4752 24.613 11.4615C24.5622 11.3989 24.5017 11.3482 24.432 11.3092C24.4307 11.3082 24.43 11.3069 24.4287 11.3062H24.4283C24.3658 11.2712 24.2971 11.2512 24.2258 11.2392C24.2134 11.2369 24.2016 11.2302 24.1892 11.2286C24.1505 11.2249 24.1111 11.2349 24.0714 11.2382C24.0284 11.2419 23.985 11.2402 23.9436 11.2526C23.9392 11.2539 23.9348 11.2526 23.9305 11.2539C23.4942 11.3939 23.1154 11.5855 22.7645 11.7561L22.7319 11.7758C22.1806 12.0487 21.7264 12.265 21.387 11.9917L20.611 11.3629C20.6009 11.3549 20.5877 11.3529 20.5773 11.3452C20.5309 11.3129 20.4831 11.2879 20.4313 11.2692C20.4044 11.2592 20.3782 11.2512 20.3509 11.2452C20.3022 11.2352 20.2551 11.2319 20.2053 11.2329C20.1733 11.2339 20.1434 11.2359 20.1128 11.2416C20.0657 11.2496 20.0216 11.2646 19.9762 11.2836C19.9463 11.2965 19.9183 11.3109 19.8904 11.3285C19.8692 11.3419 19.8447 11.3465 19.8245 11.3629L19.0484 11.9917C18.709 12.2646 18.2545 12.0487 17.7103 11.7758L17.6706 11.7561C17.3244 11.5855 16.9473 11.3939 16.5046 11.2539C16.4188 11.2276 16.3321 11.2222 16.2476 11.2319C16.2446 11.2322 16.2419 11.2339 16.2389 11.2342C16.1608 11.2442 16.0862 11.2672 16.0175 11.3036C16.0152 11.3046 16.0128 11.3046 16.0101 11.3059C15.9876 11.3179 15.9738 11.3382 15.9536 11.3525C15.9102 11.3832 15.8665 11.4122 15.8322 11.4538C15.7985 11.4935 15.7787 11.5398 15.7565 11.5858C15.7444 11.6101 15.7252 11.6288 15.7165 11.6555C15.7154 11.6588 15.7165 11.6621 15.7154 11.6655C15.6936 11.7358 15.6875 11.8088 15.6922 11.8827C15.6926 11.8894 15.6899 11.8967 15.6902 11.9034C15.6939 11.9441 15.7124 11.9824 15.7249 12.0224C15.737 12.063 15.7447 12.1047 15.7646 12.1417C15.7659 12.144 15.7656 12.147 15.7669 12.1493C16.9133 14.2065 17.5612 15.8688 17.9255 17.6653C18.2912 19.4801 18.3682 21.4477 18.3682 24.0687C18.3682 24.4179 18.6504 24.6909 18.9966 24.6909C19.3427 24.6909 19.625 24.4179 19.625 24.0687C19.625 21.3524 19.5415 19.3145 19.1624 17.4233C18.8765 15.992 18.4187 14.6404 17.6991 13.1448C18.414 13.4567 19.0719 13.573 19.8413 12.9551L20.216 12.6492L20.5975 12.9551C21.3625 13.5773 22.0235 13.459 22.7393 13.1491C22.0208 14.6431 21.563 15.993 21.2767 17.423C20.8929 19.3205 20.8155 21.3514 20.8095 24.0684C20.8095 24.4177 21.0917 24.6906 21.4378 24.6906C21.784 24.6906 22.0662 24.4177 22.0662 24.0684C22.0662 21.4474 22.1433 19.4803 22.5076 17.665C22.8732 15.8681 23.5212 14.2055 24.6743 12.1491C24.6763 12.1457 24.6756 12.1417 24.6776 12.1391C24.7035 12.0904 24.7153 12.0354 24.7278 11.9814C24.7331 11.9574 24.7459 11.9354 24.7486 11.9118C24.7564 11.8275 24.7506 11.7408 24.7241 11.6555L24.724 11.6555Z" fill="#199FD3"/>
<path d="M17.4515 6.03168C17.8811 5.85305 18.3356 5.71309 18.8048 5.61878C19.2529 5.52947 19.7265 5.48549 20.2204 5.48549C20.5665 5.48549 20.8488 5.20589 20.8488 4.86297C20.8488 4.51372 20.5665 4.23413 20.2204 4.23413C19.663 4.23413 19.1049 4.29112 18.5607 4.39976C18.0033 4.51339 17.4717 4.67935 16.9648 4.88696C16.4663 5.09657 15.9859 5.35817 15.5492 5.64244V5.64911C15.0951 5.94803 14.6784 6.29061 14.3059 6.65818C13.9288 7.03374 13.5894 7.44631 13.2806 7.88991H13.2873L13.2806 7.89657C12.9869 8.3288 12.7292 8.79866 12.518 9.29219C12.3834 9.61045 12.5311 9.97168 12.8527 10.1043C13.1723 10.2376 13.5447 10.093 13.6732 9.77473C13.8521 9.36184 14.0701 8.9626 14.3261 8.58838C14.5821 8.21282 14.8774 7.86523 15.197 7.54033C15.5297 7.21674 15.8829 6.92448 16.2549 6.67757C16.6377 6.42497 17.0347 6.20902 17.4515 6.03173L17.4515 6.03168Z" fill="#199FD3"/>
<path d="M13.2628 13.9205C13.1659 13.4773 13.1218 13.0074 13.1218 12.5181C13.1218 12.1752 12.8396 11.8893 12.4934 11.8893C12.1409 11.8893 11.8587 12.1749 11.8587 12.5181C11.8587 13.0703 11.9162 13.6212 12.0259 14.1623C12.1406 14.7065 12.3081 15.2347 12.5177 15.735C12.6536 16.0536 13.0179 16.1979 13.3375 16.0712C13.659 15.9379 13.8067 15.5707 13.6722 15.2524C13.4925 14.8289 13.3516 14.3766 13.2628 13.9205L13.2628 13.9205Z" fill="#199FD3"/>
<path d="M28.1446 4.9397C27.1132 3.91792 25.8759 3.09218 24.5051 2.53331C23.1784 1.98711 21.7316 1.69019 20.2194 1.69019C18.7071 1.69019 17.2588 1.98778 15.9338 2.53331C14.5626 3.0985 13.3257 3.91732 12.2943 4.9397C11.2757 5.94877 10.4424 7.16745 9.87829 8.51913L9.86517 8.54346C9.31383 9.85146 9.0141 11.2861 9.0141 12.7907C9.0141 13.9831 9.20618 15.1451 9.56544 16.2305C9.92942 17.3532 10.4808 18.4012 11.166 19.334C12.3518 20.9393 13.3001 21.9677 14.0365 22.7609C15.3434 24.1778 15.9273 24.8113 15.9273 26.8928C15.9273 26.9035 15.933 26.9125 15.9337 26.9228V32.8074C15.9337 32.8361 15.9462 32.8604 15.9502 32.8877C15.9559 32.9304 15.961 32.9714 15.9758 33.0123C15.9906 33.0533 16.0134 33.0887 16.0366 33.1256C16.0511 33.149 16.0568 33.1753 16.0753 33.1973L19.7656 37.6398C19.8827 37.7811 20.0583 37.8634 20.2429 37.8634C20.4276 37.8634 20.6032 37.7811 20.7203 37.6398L24.4108 33.1973C24.4287 33.1756 24.4344 33.149 24.4495 33.1256C24.4727 33.089 24.4953 33.054 24.5104 33.0123C24.5252 32.9714 24.5302 32.93 24.536 32.8877C24.5397 32.8604 24.5524 32.8361 24.5524 32.8074L24.5514 26.9475C24.5535 26.9285 24.5625 26.9122 24.5625 26.8925C24.5625 24.7917 25.1334 24.1645 26.4474 22.7232C27.177 21.9301 28.1122 20.902 29.2714 19.334C29.9573 18.4016 30.5016 17.3532 30.8739 16.2305C31.2332 15.1451 31.4253 13.9897 31.4253 12.7907C31.425 9.72452 30.1685 6.94454 28.1444 4.93971L28.1446 4.9397ZM21.5432 34.7187H18.9419L17.8621 33.4194H22.6227L21.5432 34.7187ZM17.1705 32.1939V27.5144H18.4797V32.1939H17.1705ZM19.717 32.1939V27.5144H20.9791V32.1939H19.717ZM23.3143 32.1939H22.2156V27.5144H23.3143V32.1939ZM29.6748 15.8499C29.3482 16.846 28.8614 17.7717 28.2525 18.5975C27.1192 20.1331 26.2153 21.1242 25.5105 21.8974C24.1081 23.439 23.4229 24.1882 23.3142 26.2713L17.169 26.271C17.061 24.2008 16.3623 23.4457 14.9667 21.9297V21.9231C14.2481 21.1416 13.3197 20.1392 12.1783 18.5969C11.5698 17.7715 11.0894 16.8387 10.756 15.8433C10.4431 14.8846 10.2689 13.8565 10.2689 12.7904C10.2689 11.4518 10.538 10.1744 11.0251 9.01905L11.0382 8.98806C11.5384 7.80035 12.2748 6.72167 13.1851 5.82154C14.1068 4.9134 15.2025 4.17732 16.4142 3.68175C17.5787 3.19921 18.8678 2.93261 20.2191 2.93261C21.5704 2.93261 22.8517 3.19921 24.0241 3.68175C25.2345 4.17729 26.3301 4.91348 27.2531 5.82154C29.0475 7.60413 30.1613 10.0672 30.1613 12.7905C30.1626 13.8566 29.9897 14.885 29.6749 15.85L29.6748 15.8499Z" fill="#199FD3"/>
</svg>
