<svg width="14" height="20" viewBox="0 0 14 20" fill="none" xmlns="http://www.w3.org/2000/svg">
<path d="M0.913043 19.7637H13.087C13.5912 19.7637 14 19.3566 14 18.8546V9.55155C14 9.04949 13.5912 8.64246 13.087 8.64246H12.1739V5.91519C12.1739 3.07464 9.8529 0.763672 7 0.763672C4.1471 0.763672 1.82609 3.07464 1.82609 5.91519V8.64246H0.913043C0.4088 8.64246 0 9.04949 0 9.55155V18.8546C0 19.3566 0.4088 19.7637 0.913043 19.7637ZM3.65217 5.91519C3.65217 4.07719 5.15401 2.58185 7 2.58185C8.84599 2.58185 10.3478 4.07719 10.3478 5.91519V8.64246H3.65217V5.91519Z" fill="white"/>
</svg>
