<svg width="20" height="21" viewBox="0 0 20 21" fill="none" xmlns="http://www.w3.org/2000/svg">
<path d="M17.7083 8.38898C15.7833 5.36398 12.9667 3.62231 10 3.62231C8.51667 3.62231 7.075 4.05565 5.75833 4.86398C4.44167 5.68065 3.25833 6.87231 2.29167 8.38898C1.45833 9.69731 1.45833 11.8223 2.29167 13.1306C4.21667 16.164 7.03333 17.8973 10 17.8973C11.4833 17.8973 12.925 17.464 14.2417 16.6556C15.5583 15.839 16.7417 14.6473 17.7083 13.1306C18.5417 11.8306 18.5417 9.69731 17.7083 8.38898ZM10 14.1306C8.13333 14.1306 6.63333 12.6223 6.63333 10.764C6.63333 8.90565 8.13333 7.39731 10 7.39731C11.8667 7.39731 13.3667 8.90565 13.3667 10.764C13.3667 12.6223 11.8667 14.1306 10 14.1306Z" fill="white" fill-opacity="0.5"/>
<path d="M9.99992 8.38074C8.69158 8.38074 7.62492 9.4474 7.62492 10.7641C7.62492 12.0724 8.69158 13.1391 9.99992 13.1391C11.3083 13.1391 12.3833 12.0724 12.3833 10.7641C12.3833 9.45574 11.3083 8.38074 9.99992 8.38074Z" fill="white" fill-opacity="0.5"/>
</svg>
