<?xml version="1.0" encoding="UTF-8"?>
<svg width="118px" height="55px" viewBox="0 0 118 55" version="1.1" xmlns="http://www.w3.org/2000/svg" xmlns:xlink="http://www.w3.org/1999/xlink">
    <title>chorus</title>
    <defs>
        <polygon id="path-1" points="0 -1.77635684e-15 14.671 -1.77635684e-15 14.671 19.93657 0 19.93657"></polygon>
        <polygon id="path-3" points="0 1.77635684e-15 22.4596 1.77635684e-15 22.4596 20.94643 0 20.94643"></polygon>
    </defs>
    <g id="Page-1" stroke="none" stroke-width="1" fill="none" fill-rule="evenodd">
        <g id="chorus" transform="translate(0.149994, 0.171387)">
            <g id="Group">
                <path d="M37.399906,6.811353 C34.837406,6.811353 33.416106,7.848143 32.773106,8.504813 L32.773106,7.21644966e-16 L28.634406,7.21644966e-16 L28.634406,26.532913 L32.773106,26.532913 L32.773106,14.180913 C32.773106,11.642113 34.126506,10.186313 36.485906,10.186313 C38.870306,10.186313 40.079406,11.494013 40.079406,14.073113 L40.079406,26.532913 L44.217306,26.532913 L44.217306,13.714413 C44.217306,9.263063 41.796106,6.811353 37.399906,6.811353 Z" id="Path" fill="#3E3E3E"></path>
                <path d="M96.069106,19.343113 C96.069106,21.844513 94.695806,23.337713 92.395706,23.337713 C89.491306,23.337713 88.881606,21.224113 88.881606,19.450913 L88.881606,7.026853 L84.743706,7.026853 L84.743706,19.845413 C84.743706,24.296613 87.150706,26.748513 91.521306,26.748513 C94.095206,26.748513 95.482106,25.747013 96.108606,25.099913 L96.108606,26.533313 L100.247006,26.533313 L100.247006,7.026853 L96.069106,7.026853 L96.069106,19.343113 Z" id="Path" fill="#3E3E3E"></path>
                <g id="Clipped" transform="translate(102.338006, 6.810543)">
                    <mask id="mask-2" fill="white">
                        <use xlink:href="#path-1"></use>
                    </mask>
                    <g id="Path"></g>
                    <path d="M9.939,8.39697 C9.38,8.22347 8.825,8.08167 8.289,7.94437 C7.695,7.79337 7.135,7.64977 6.564,7.46577 C5.163,7.00977 4.538,6.30567 4.538,5.18237 C4.538,3.82407 5.595,2.98041 7.297,2.98041 C9.622,2.98041 10.211,4.61167 10.295,5.98047 L10.305,6.13497 L14.157,6.13497 L14.155,5.96957 C14.112,2.17545 11.641,-1.77635684e-15 7.376,-1.77635684e-15 C3.275,-1.77635684e-15 0.519,2.1691 0.519,5.39757 C0.519,7.92697 1.779,9.59277 4.484,10.63887 C5.334,10.96757 6.097,11.16427 6.835,11.35387 C7.325,11.48017 7.787,11.59937 8.271,11.75397 C9.956,12.28607 10.613,13.02657 10.613,14.39537 C10.613,15.06717 10.357,15.64827 9.874,16.07497 C9.287,16.59397 8.403,16.86387 7.376,16.84887 C5.167,16.84887 4.069,15.76377 4.021,13.53227 L4.018,13.37127 L0.006,13.37127 L0.002,13.53157 C-0.045,15.47657 0.564,17.08807 1.761,18.19227 C3.017,19.34957 4.88,19.93657 7.297,19.93657 C11.777,19.93657 14.671,17.63527 14.671,14.07307 C14.671,11.14617 13.256,9.44877 9.939,8.39697 Z" id="Path" fill="#3E3E3E" mask="url(#mask-2)"></path>
                </g>
                <g id="Clipped" transform="translate(46.499806, 5.909183)">
                    <mask id="mask-4" fill="white">
                        <use xlink:href="#path-3"></use>
                    </mask>
                    <g id="Path"></g>
                    <path d="M11.1498,17.53593 C7.0453,17.53593 4.1783,14.80223 4.1783,10.88823 C4.1783,9.41503 4.5803,8.10863 5.2985,7.04983 C5.9189,8.88153 7.8907,10.43963 11.116,10.43963 C13.6844,10.43963 15.8189,9.42493 17.5303,8.06453 C17.9093,8.91043 18.1212,9.86023 18.1212,10.88823 C18.1212,14.80223 15.2541,17.53593 11.1498,17.53593 Z M10.9062,4.21533 C10.988,4.21293 11.067,4.20483 11.1498,4.20483 C12.8476,4.20483 14.3452,4.70633 15.5162,5.56943 C14.2943,6.59903 12.8183,7.35823 11.116,7.35823 C9.3098,7.35823 8.5013,6.56203 8.5013,5.77333 C8.5013,5.03243 9.2558,4.29433 10.9062,4.21533 Z M19.5515,1.77635684e-15 C19.5515,1.77635684e-15 18.9916,1.28624 17.9923,2.75479 C16.1403,1.51454 13.7982,0.79438 11.1498,0.79438 C4.689,0.79438 0.0001,5.03933 0.0001,10.88823 C0.0001,16.81053 4.5683,20.94653 11.1096,20.94653 C17.4884,20.94653 22.2987,16.60693 22.2987,10.85253 C22.2987,8.63463 21.6166,6.65073 20.4193,5.04103 C21.5065,3.58599 22.2159,2.21692 22.4596,1.63885 L19.5515,1.77635684e-15 Z" id="Shape" fill="#3E3E3E" mask="url(#mask-4)"></path>
                </g>
                <path d="M22.388206,16.939013 L22.277306,17.273713 C21.082706,20.878113 18.037006,22.945513 13.921206,22.945513 C9.421856,22.945513 4.579316,20.003913 4.579316,13.545213 C4.579316,9.034563 7.502576,4.179673 13.921206,4.179673 C18.181006,4.179673 21.078806,6.152353 22.080706,9.734263 L22.178206,10.082913 L26.375406,8.750953 L26.290106,8.458033 C24.819606,3.409983 20.195706,0.395996 13.921206,0.395996 C10.372506,0.395996 6.883826,1.640053 4.350176,3.808723 C1.504176,6.244633 4.71844785e-16,9.611513 4.71844785e-16,13.545213 C4.71844785e-16,17.505213 1.468516,20.877313 4.246636,23.297313 C6.787796,25.510413 10.223606,26.729213 13.921206,26.729213 C19.979106,26.729213 24.732606,23.602513 26.326606,18.569213 L26.419506,18.276013 L22.388206,16.939013 Z" id="Path" fill="#3E3E3E"></path>
                <path d="M82.617906,7.961693 C81.694606,7.351023 80.555506,6.990233 79.322706,6.990233 C77.790806,6.990233 76.335106,7.517803 75.395306,8.692573 L75.394806,7.025083 L71.256106,7.025083 L71.256106,26.531513 L75.394806,26.531513 C75.394806,26.531513 75.398406,13.961013 75.398406,13.814713 C75.398406,11.913013 76.970806,10.646613 78.910206,10.646613 C79.660706,10.646613 80.354606,10.860813 80.925406,11.222413 L82.618206,7.961693 L82.617906,7.961693 Z" id="Path" fill="#3E3E3E"></path>
            </g>
            <path d="M6.682376,54.805213 C5.935936,54.805213 5.265226,54.675413 4.670236,54.415713 C4.086056,54.145313 3.626296,53.777513 3.290936,53.312313 C2.955576,52.836313 2.782496,52.290013 2.771676,51.673413 L4.345696,51.673413 C4.399786,52.203413 4.616146,52.652413 4.994776,53.020213 C5.384216,53.377213 5.946756,53.555713 6.682376,53.555713 C7.385546,53.555713 7.937266,53.382613 8.337526,53.036413 C8.748616,52.679413 8.954156,52.225113 8.954156,51.673413 C8.954156,51.240613 8.835156,50.889113 8.597166,50.618613 C8.359166,50.348213 8.061676,50.142613 7.704676,50.002013 C7.347686,49.861413 6.866286,49.709913 6.260476,49.547613 C5.514036,49.352913 4.913636,49.158213 4.459286,48.963513 C4.015746,48.768713 3.631706,48.465813 3.307166,48.054813 C2.993446,47.632813 2.836586,47.070313 2.836586,46.367113 C2.836586,45.750513 2.993446,45.204213 3.307166,44.728213 C3.620886,44.252213 4.059016,43.884413 4.621546,43.624813 C5.194906,43.365213 5.849396,43.235313 6.585016,43.235313 C7.645176,43.235313 8.510616,43.500413 9.181336,44.030513 C9.862906,44.560513 10.246906,45.263713 10.333406,46.140013 L8.710746,46.140013 C8.656656,45.707213 8.429486,45.328613 8.029216,45.004113 C7.628956,44.668713 7.098866,44.501013 6.438976,44.501013 C5.822346,44.501013 5.319316,44.663313 4.929866,44.987913 C4.540416,45.301613 4.345696,45.745113 4.345696,46.318513 C4.345696,46.729513 4.459286,47.064913 4.686456,47.324513 C4.924456,47.584213 5.211136,47.784313 5.546486,47.924913 C5.892666,48.054813 6.374066,48.206213 6.990686,48.379313 C7.737136,48.584813 8.337526,48.790413 8.791886,48.995913 C9.246236,49.190613 9.635686,49.499013 9.960206,49.920913 C10.284806,50.331913 10.447006,50.894513 10.447006,51.608513 C10.447006,52.160213 10.301006,52.679413 10.008906,53.166313 C9.716826,53.653113 9.284106,54.047913 8.710746,54.350813 C8.137396,54.653713 7.461276,54.805213 6.682376,54.805213 Z" id="Path" fill="#343434" fill-rule="nonzero"></path>
            <polygon id="Path" fill="#343434" fill-rule="nonzero" points="31.946406 53.490813 35.905806 53.490813 35.905806 54.691613 30.469706 54.691613 30.469706 43.381413 31.946406 43.381413"></polygon>
            <polygon id="Path" fill="#343434" fill-rule="nonzero" points="56.800306 44.582213 56.800306 48.363113 60.921906 48.363113 60.921906 49.580113 56.800306 49.580113 56.800306 53.474613 61.408806 53.474613 61.408806 54.691613 55.323606 54.691613 55.323606 43.365213 61.408806 43.365213 61.408806 44.582213"></polygon>
            <polygon id="Path" fill="#343434" fill-rule="nonzero" points="82.969506 44.582213 82.969506 48.363113 87.091106 48.363113 87.091106 49.580113 82.969506 49.580113 82.969506 53.474613 87.577906 53.474613 87.577906 54.691613 81.492806 54.691613 81.492806 43.365213 87.577906 43.365213 87.577906 44.582213"></polygon>
            <path d="M115.224006,46.691713 C115.224006,47.632813 114.899006,48.417213 114.250006,49.044613 C113.612006,49.661213 112.633006,49.969513 111.313006,49.969513 L109.139006,49.969513 L109.139006,54.691613 L107.662006,54.691613 L107.662006,43.381413 L111.313006,43.381413 C112.590006,43.381413 113.558006,43.689713 114.218006,44.306313 C114.888006,44.922913 115.224006,45.718113 115.224006,46.691713 Z M111.313006,48.752513 C112.135006,48.752513 112.741006,48.574013 113.130006,48.217013 C113.520006,47.860013 113.715006,47.351613 113.715006,46.691713 C113.715006,45.296213 112.914006,44.598413 111.313006,44.598413 L109.139006,44.598413 L109.139006,48.752513 L111.313006,48.752513 Z" id="Shape" fill="#343434" fill-rule="nonzero"></path>
        </g>
    </g>
</svg>