<svg width="72" height="20" viewBox="0 0 72 20" fill="none" xmlns="http://www.w3.org/2000/svg">
<g clip-path="url(#clip0_35_3168)">
<path d="M22.0118 0H18.7339V20H22.0118V0Z" fill="#1F1F20"/>
<path d="M33.4845 13.62C33.4845 16.6808 30.8482 16.9248 30.064 16.9248C28.1046 16.9248 27.7481 15.1344 27.7481 14.0544V6.39999H24.4702V14.0384C24.4702 15.9344 25.0799 17.4992 26.1485 18.5424C27.0925 19.4648 28.507 19.9688 30.0394 19.9688C31.126 19.9688 32.665 19.6384 33.4845 18.908V20H36.7624V6.39999H33.4845V13.62Z" fill="#1F1F20"/>
<path d="M43.3184 1.60001H40.0405V6.40001H37.582V9.60001H40.0405V20H43.3184V9.60001H45.7768V6.40001H43.3184V1.60001Z" fill="#1F1F20"/>
<path d="M56.0995 15.9336C55.3857 16.56 54.4433 16.9072 53.4092 16.9072C51.1294 16.9072 49.4552 15.2728 49.4552 13.0288C49.4552 10.7848 51.0761 9.2192 53.4092 9.2192C54.4253 9.2192 55.3857 9.5496 56.1175 10.176L56.615 10.5936L58.8251 8.4368L58.2719 7.9496C56.9714 6.8032 55.2448 6.16 53.4084 6.16C49.311 6.16 46.3354 9.0464 46.3354 13.012C46.3354 16.9608 49.3823 19.9504 53.4084 19.9504C55.2792 19.9504 57.0239 19.3072 58.308 18.1424L58.8423 17.6552L56.5978 15.5L56.0995 15.9336Z" fill="#1F1F20"/>
<path d="M70.525 7.5856C69.5809 6.664 68.4746 6.16 66.9422 6.16C65.8556 6.16 64.6247 6.4904 63.8052 7.22V0H60.5273V20H63.8052V12.508C63.8052 9.4472 66.0326 9.204 66.8168 9.204C68.7762 9.204 68.7221 10.9952 68.7221 12.0736V20H72V12.0904C72 10.1944 71.5944 8.6296 70.525 7.5856Z" fill="#1F1F20"/>
<path d="M53.3012 10.7504C54.6108 10.7504 55.672 11.7848 55.672 13.064C55.672 14.3416 54.6108 15.3776 53.3012 15.3776C51.9925 15.3776 50.9321 14.3416 50.9321 13.064C50.9329 11.7856 51.9933 10.7504 53.3012 10.7504Z" fill="#FF3D2E"/>
<path d="M14.145 14.9768C12.8986 16.2288 11.2055 16.9072 9.42398 16.9072C5.77239 16.9072 3.11729 14.1072 3.11729 10.264C3.11729 6.4032 5.77239 3.6032 9.42398 3.6032C11.1883 3.6032 12.8625 4.2808 14.1278 5.516L14.626 6.0032L16.8173 3.864L16.3363 3.3768C14.5195 1.5504 12.0611 0.559998 9.42398 0.559998C4.04412 0.559998 0 4.7336 0 10.2808C0 15.8112 4.06214 19.968 9.42398 19.968C12.0791 19.968 14.5375 18.96 16.3543 17.1336L16.8353 16.6464L14.6621 14.4728L14.145 14.9768Z" fill="#1F1F20"/>
</g>
<defs>
<clipPath id="clip0_35_3168">
<rect width="72" height="20" fill="white"/>
</clipPath>
</defs>
</svg>
