<svg width="68" height="20" viewBox="0 0 68 20" fill="none" xmlns="http://www.w3.org/2000/svg">
<path d="M17.8512 0.641542H20.9686V19.8878H17.8512V0.641542Z" fill="white"/>
<path d="M31.8115 13.7886C31.8115 16.7705 29.3719 17.0415 28.5587 17.0415C26.6611 17.0415 26.3901 15.2796 26.3901 14.3308V6.87625H23.2727V14.1953C23.2727 15.9572 23.8149 17.5837 24.8992 18.5324C25.8479 19.4812 27.0677 19.8878 28.5587 19.8878C29.643 19.8878 30.9983 19.6167 31.8115 18.8035V19.8878H34.9289V6.87625H31.8115V13.7886Z" fill="white"/>
<path d="M41.0281 2.13244H37.9107V6.87624H35.6066V9.85806H37.9107V19.8878H41.0281V9.85806H43.3322V6.87624H41.0281V2.13244Z" fill="white"/>
<path d="M53.091 15.9572C52.4134 16.4994 51.4646 16.906 50.5158 16.906C48.3472 16.906 46.8563 15.2796 46.8563 13.111C46.8563 10.9424 48.3472 9.45146 50.5158 9.45146C51.4646 9.45146 52.4134 9.72254 53.091 10.4002L53.4977 10.8068L55.6662 8.77378L55.1241 8.36717C53.9043 7.28287 52.2778 6.60518 50.5158 6.60518C46.7208 6.60518 43.8745 9.45146 43.8745 13.2465C43.8745 17.0415 46.7208 19.8878 50.5158 19.8878C52.2778 19.8878 53.9043 19.2101 55.1241 18.1258L55.6662 17.7192L53.4977 15.5506L53.091 15.9572Z" fill="white"/>
<path d="M66.6446 7.96055C65.6958 7.01179 64.7471 6.60518 63.2562 6.60518C62.1719 6.60518 61.0876 6.87625 60.2743 7.68948V0.641542H57.157V19.8878H60.2743V12.7044C60.2743 9.72254 62.3074 9.45146 63.1206 9.45146C65.0181 9.45146 64.8826 11.2134 64.8826 12.1622V19.7523H68V12.2977C68 10.5358 67.5933 8.90931 66.6446 7.96055Z" fill="white"/>
<path d="M50.3801 15.4151C51.5778 15.4151 52.5487 14.4442 52.5487 13.2465C52.5487 12.0488 51.5778 11.0779 50.3801 11.0779C49.1825 11.0779 48.2115 12.0488 48.2115 13.2465C48.2115 14.4442 49.1825 15.4151 50.3801 15.4151Z" fill="#EF4335"/>
<path d="M13.5141 15.144C12.4298 16.2283 10.8033 16.906 9.04136 16.906C5.65293 16.906 3.21326 14.1953 3.21326 10.5358C3.21326 6.87625 5.65293 4.16551 9.1769 4.16551C10.8033 4.16551 12.4298 4.8432 13.6496 6.06303L14.0562 6.46964L16.0893 4.43658L15.6827 4.02997C13.9207 2.26799 11.6166 1.31923 9.1769 1.31923C4.02649 1.18369 0.231445 5.24981 0.231445 10.5358C0.231445 15.8217 4.02649 19.8878 9.04136 19.8878C11.481 19.8878 13.9207 18.9391 15.5471 17.1771L15.9538 16.7705L13.9207 14.7374L13.5141 15.144Z" fill="white"/>
</svg>
