<svg width="169" height="37" viewBox="0 0 169 37" fill="none" xmlns="http://www.w3.org/2000/svg">
<path d="M55.6348 27.9715V18.7734H48.2856V27.9715H44.0737V6.99353H48.2856V15.4238H55.6348V6.99353H59.8459V27.9715H55.6348Z" fill="#333333"/>
<path d="M70.0363 28.3848C65.1332 28.3848 62.646 25.4479 62.646 19.6541C62.646 15.9638 64.5146 11.6559 69.7812 11.6559C73.4432 11.6559 75.5432 13.686 75.5432 17.2256C75.5221 18.2414 75.3961 19.2524 75.1675 20.2424H66.4729L66.4743 20.4214C66.5113 24.5258 68.8143 25.3878 70.7392 25.3878C72.058 25.3845 73.3664 25.1554 74.6078 24.7104L75.288 27.4051C73.6181 28.071 71.834 28.4038 70.0363 28.3848ZM69.9092 14.4625C68.0919 14.4625 66.8842 15.706 66.5085 17.9639L66.4743 18.1705H72.3224V17.8018C72.3224 15.6791 71.4425 14.4625 69.9092 14.4625Z" fill="#333333"/>
<path d="M82.0458 28.3849C79.2398 28.3849 77.4971 26.6549 77.4971 23.8687C77.5299 19.7055 81.4712 19.256 83.164 19.256C84.0431 19.256 85.04 19.256 86.1821 19.3522L86.375 19.3673V17.6103C86.375 15.0197 85.0798 14.8138 83.387 14.8138C82.1441 14.8369 80.9119 15.0475 79.7319 15.4383L78.9067 12.9321C80.6241 11.9577 83.2336 11.5923 84.505 11.5923C88.7761 11.5923 90.3636 13.2058 90.3636 17.5459V24.2522C90.3636 24.9528 90.7002 25.3235 91.339 25.3235C91.6934 25.3129 92.0453 25.261 92.3876 25.1687L92.9238 27.5117C91.9092 28.0328 90.787 28.3102 89.6464 28.322C88.3313 28.322 87.4451 27.8813 86.8587 26.9369L86.7513 26.7631L86.5946 26.8932C85.2797 27.8695 83.6835 28.3929 82.0458 28.3849ZM84.6331 21.1689C82.4174 21.1689 81.2932 21.916 81.2932 23.3898C81.2932 24.9034 82.1266 25.771 83.5785 25.771C84.5456 25.7384 85.4852 25.4412 86.2951 24.9118L86.375 24.8596V21.2441L86.2103 21.233C85.7592 21.2003 85.1482 21.1689 84.6331 21.1689Z" fill="#333333"/>
<path d="M99.8626 28.2206C94.7375 28.2206 93.9741 23.2697 93.9741 20.3189C93.9741 14.5455 96.2443 11.6184 100.725 11.6184C101.672 11.6269 102.608 11.8152 103.485 12.1733L103.745 12.3093V5.61487H107.893V28.1577H104.508L104.228 26.8192L104.008 26.9755C102.784 27.8 101.338 28.2341 99.8626 28.2206ZM101.172 14.776C98.9991 14.776 97.8976 16.6091 97.8976 20.2234C97.8976 23.5406 98.9239 25.2224 100.948 25.2224C101.917 25.2386 102.871 24.9738 103.693 24.4599L103.777 24.4081V15.2838L103.668 15.2378C102.877 14.9119 102.027 14.7547 101.172 14.776Z" fill="#333333"/>
<path d="M115.426 28.349C113.471 28.349 111.27 27.8621 110.311 27.3859L111.291 24.5012C112.667 24.9647 114.102 25.2291 115.553 25.2864C117.091 25.2864 117.84 24.7171 117.84 23.5433C117.84 22.3662 116.533 21.7695 115.021 21.0785C113.019 20.1629 110.75 19.1258 110.75 16.4867C110.75 13.3733 112.908 11.5861 116.671 11.5861C118.754 11.5861 120.541 12.0391 121.406 12.4839L120.454 15.3412C119.315 14.9629 118.127 14.7511 116.927 14.7123C114.985 14.7123 114.578 15.5902 114.578 16.3265C114.578 17.647 116.006 18.2335 117.517 18.8547C119.463 19.6545 121.668 20.561 121.668 23.1598C121.668 26.4086 119.334 28.349 115.426 28.349Z" fill="#333333"/>
<path d="M124.611 11.9058H128.132L128.552 13.3379L128.757 13.1777C129.9 12.2112 131.337 11.6613 132.833 11.6184C136.555 11.6184 138.69 14.5338 138.69 19.6164C138.69 25.4098 136.29 28.3491 131.555 28.3491C130.666 28.3195 129.79 28.1285 128.969 27.7855L128.726 27.6896V34.2432L124.611 34.7142V11.9058ZM131.427 14.9048C130.495 14.9256 129.588 15.2111 128.812 15.728L128.726 15.7799V24.8323L128.861 24.8653C129.503 25.0172 130.16 25.0944 130.82 25.0952C133.353 25.0952 134.638 23.2944 134.638 19.7437C134.638 18.547 134.638 14.9048 131.427 14.9048Z" fill="#333333"/>
<path d="M152.044 28.3489L151.633 26.2908L151.406 26.469C150.843 26.9093 148.814 28.3489 146.31 28.3489C142.256 28.3489 141.698 25.809 141.698 23.0643V11.9056H145.813V22.2663C145.813 23.6813 145.987 25.062 148.067 25.062C149.194 25.0498 150.29 24.6915 151.207 24.0357L151.277 23.9836V11.9056H155.393V28.3489H152.044Z" fill="#333333"/>
<path d="M159.135 27.9332V11.9056H162.512L162.906 14.2367L163.154 13.9117C163.683 13.1893 164.372 12.6002 165.168 12.191C165.964 11.7818 166.845 11.5639 167.74 11.5546C168.163 11.555 168.585 11.5949 169 11.6735L168.336 14.9915C167.932 14.8928 167.517 14.8421 167.101 14.8403C165.3 14.8403 164.014 15.3706 163.283 16.4168L163.251 16.4625V27.9332H159.135Z" fill="#333333"/>
<path d="M36.9789 36.9787H34.5977C34.5977 32.7064 32.9006 28.6091 29.8796 25.5881C26.8586 22.5672 22.7613 20.87 18.489 20.87C14.2168 20.87 10.1194 22.5672 7.09849 25.5881C4.07752 28.6091 2.38036 32.7064 2.38036 36.9787H0C0 32.075 1.94799 27.3721 5.41543 23.9047C8.88288 20.4372 13.5857 18.4893 18.4894 18.4893C23.3932 18.4893 28.096 20.4372 31.5635 23.9047C35.0309 27.3721 36.9789 32.075 36.9789 36.9787Z" fill="url(#paint0_linear_137_311)"/>
<path d="M32.1215 36.9787H29.7409C29.7409 33.9946 28.5555 31.1327 26.4454 29.0227C24.3353 26.9126 21.4734 25.7272 18.4893 25.7272C15.5052 25.7272 12.6434 26.9126 10.5333 29.0227C8.42321 31.1327 7.23779 33.9946 7.23779 36.9787H4.85742C4.85742 33.3633 6.29365 29.8959 8.85015 27.3394C11.4066 24.7829 14.874 23.3467 18.4894 23.3467C22.1049 23.3467 25.5722 24.7829 28.1287 27.3394C30.6852 29.8959 32.1215 33.3633 32.1215 36.9787Z" fill="url(#paint1_linear_137_311)"/>
<path d="M27.2949 36.9787H24.9144C24.9101 35.2775 24.2313 33.6474 23.0268 32.446C21.8224 31.2446 20.1906 30.5699 18.4894 30.5699C16.7882 30.5699 15.1565 31.2446 13.952 32.446C12.7476 33.6474 12.0688 35.2775 12.0645 36.9787H9.6841C9.68161 35.8207 9.90753 34.6737 10.3489 33.6032C10.7903 32.5326 11.4385 31.5597 12.2564 30.74C13.0744 29.9204 14.0459 29.2701 15.1155 28.8264C16.185 28.3827 17.3316 28.1543 18.4895 28.1543C19.6475 28.1543 20.794 28.3827 21.8636 28.8264C22.9332 29.2701 23.9047 29.9204 24.7226 30.74C25.5405 31.5597 26.1887 32.5326 26.6301 33.6032C27.0715 34.6737 27.2974 35.8207 27.2949 36.9787Z" fill="url(#paint2_linear_137_311)"/>
<path d="M4.62207 0H6.40792C6.40792 3.20422 7.6808 6.27722 9.94653 8.54295C12.2123 10.8087 15.2852 12.0815 18.4895 12.0815C21.6937 12.0815 24.7667 10.8087 27.0324 8.54295C29.2981 6.27722 30.571 3.20422 30.571 0H32.3563C32.3563 3.67779 30.8953 7.20494 28.2947 9.80553C25.6941 12.4061 22.167 13.8671 18.4892 13.8671C14.8114 13.8671 11.2842 12.4061 8.68365 9.80553C6.08307 7.20494 4.62207 3.67779 4.62207 0Z" fill="url(#paint3_linear_137_311)"/>
<path d="M8.26514 0H10.051C10.051 2.23807 10.9401 4.38448 12.5227 5.96704C14.1052 7.54959 16.2516 8.43865 18.4897 8.43865C20.7278 8.43865 22.8742 7.54959 24.4567 5.96704C26.0393 4.38448 26.9283 2.23807 26.9283 0H28.7142C28.7142 2.71172 27.637 5.31238 25.7195 7.22985C23.8021 9.14732 21.2014 10.2245 18.4897 10.2245C15.778 10.2245 13.1773 9.14732 11.2598 7.22985C9.34236 5.31238 8.26514 2.71172 8.26514 0Z" fill="url(#paint4_linear_137_311)"/>
<path d="M11.8853 0H13.6703C13.6703 1.27809 14.1781 2.50385 15.0818 3.40759C15.9856 4.31134 17.2113 4.81906 18.4894 4.81906C19.7675 4.81906 20.9932 4.31134 21.897 3.40759C22.8007 2.50385 23.3085 1.27809 23.3085 0H25.0937C25.0937 1.75155 24.3979 3.43138 23.1594 4.66991C21.9209 5.90845 20.241 6.60425 18.4895 6.60425C16.7379 6.60425 15.0581 5.90845 13.8196 4.66991C12.5811 3.43138 11.8853 1.75155 11.8853 0Z" fill="url(#paint5_linear_137_311)"/>
<defs>
<linearGradient id="paint0_linear_137_311" x1="0" y1="27.734" x2="36.9789" y2="27.734" gradientUnits="userSpaceOnUse">
<stop stop-color="#06B0D7"/>
<stop offset="1" stop-color="#7F47BC"/>
</linearGradient>
<linearGradient id="paint1_linear_137_311" x1="4.85742" y1="30.1623" x2="32.1215" y2="30.1623" gradientUnits="userSpaceOnUse">
<stop stop-color="#06B0D7"/>
<stop offset="1" stop-color="#7F47BC"/>
</linearGradient>
<linearGradient id="paint2_linear_137_311" x1="9.6841" y1="32.5757" x2="27.2949" y2="32.5757" gradientUnits="userSpaceOnUse">
<stop stop-color="#06B0D7"/>
<stop offset="1" stop-color="#7F47BC"/>
</linearGradient>
<linearGradient id="paint3_linear_137_311" x1="4.62207" y1="6.93331" x2="32.3563" y2="6.93331" gradientUnits="userSpaceOnUse">
<stop stop-color="#06B0D7"/>
<stop offset="1" stop-color="#7F47BC"/>
</linearGradient>
<linearGradient id="paint4_linear_137_311" x1="8.26514" y1="5.11194" x2="28.7142" y2="5.11194" gradientUnits="userSpaceOnUse">
<stop stop-color="#06B0D7"/>
<stop offset="1" stop-color="#7F47BC"/>
</linearGradient>
<linearGradient id="paint5_linear_137_311" x1="11.8853" y1="3.30207" x2="25.0937" y2="3.30207" gradientUnits="userSpaceOnUse">
<stop stop-color="#06B0D7"/>
<stop offset="1" stop-color="#7F47BC"/>
</linearGradient>
</defs>
</svg>
