<svg width="28" height="28" viewBox="0 0 28 28" fill="none" xmlns="http://www.w3.org/2000/svg">
<path fill-rule="evenodd" clip-rule="evenodd" d="M0.25 2.40688C0.25 1.79754 0.492058 1.21317 0.922923 0.7823C1.35379 0.351435 1.93817 0.109378 2.5475 0.109378H25.45C25.752 0.108885 26.0511 0.167957 26.3302 0.283211C26.6093 0.398466 26.8629 0.56764 27.0766 0.781048C27.2902 0.994457 27.4597 1.24791 27.5752 1.52689C27.6908 1.80587 27.7502 2.10491 27.75 2.40688V25.3094C27.7503 25.6114 27.6911 25.9105 27.5757 26.1897C27.4603 26.4688 27.291 26.7224 27.0775 26.936C26.864 27.1496 26.6105 27.3191 26.3314 27.4346C26.0524 27.5502 25.7533 27.6095 25.4513 27.6094H2.5475C2.24568 27.6094 1.94682 27.5499 1.668 27.4344C1.38917 27.3188 1.13584 27.1495 0.92248 26.936C0.709121 26.7225 0.539915 26.4691 0.424528 26.1902C0.309142 25.9113 0.249836 25.6124 0.25 25.3106V2.40688ZM11.135 10.5944H14.8588V12.4644C15.3963 11.3894 16.7713 10.4219 18.8375 10.4219C22.7988 10.4219 23.7375 12.5631 23.7375 16.4919V23.7694H19.7288V17.3869C19.7288 15.1494 19.1913 13.8869 17.8263 13.8869C15.9325 13.8869 15.145 15.2481 15.145 17.3869V23.7694H11.135V10.5944ZM4.26 23.5981H8.27V10.4219H4.26V23.5969V23.5981ZM8.84375 6.12438C8.85131 6.46772 8.79022 6.80911 8.66405 7.12852C8.53788 7.44793 8.34919 7.73892 8.10904 7.98442C7.86889 8.22991 7.58212 8.42497 7.26557 8.55814C6.94902 8.6913 6.60905 8.7599 6.26563 8.7599C5.9222 8.7599 5.58224 8.6913 5.26568 8.55814C4.94913 8.42497 4.66236 8.22991 4.42221 7.98442C4.18206 7.73892 3.99337 7.44793 3.8672 7.12852C3.74104 6.80911 3.67994 6.46772 3.6875 6.12438C3.70234 5.45045 3.98048 4.80912 4.46236 4.33774C4.94423 3.86635 5.59153 3.6024 6.26563 3.6024C6.93972 3.6024 7.58702 3.86635 8.06889 4.33774C8.55077 4.80912 8.82891 5.45045 8.84375 6.12438Z" fill="black"/>
</svg>
