<svg width="81" height="21" viewBox="0 0 81 21" fill="none" xmlns="http://www.w3.org/2000/svg">
<path d="M9.69562 14.409V17.2946H0.778809V3.01927H3.90612V14.409H9.69562ZM11.0768 7.61328H14.0824V17.2939H11.0768V7.61328ZM12.5799 2.80444C13.0422 2.80453 13.4855 2.98816 13.8124 3.31497C14.1394 3.64178 14.3232 4.08503 14.3234 4.54729C14.3234 5.51072 13.5424 6.28948 12.5796 6.28948C11.6168 6.28948 10.8371 5.51039 10.8371 4.54729C10.8373 4.0852 11.021 3.6421 11.3477 3.31532C11.6744 2.98854 12.1178 2.80479 12.5799 2.80444ZM33.0548 7.61228H36.7348L32.7896 12.0879L36.6526 17.2939H32.8791L29.6898 12.5116H29.651V17.2939H26.6464V3.01828H29.651V11.5502L33.0548 7.61228ZM15.745 7.61792H18.63V8.94403H18.6698C19.0703 8.18251 20.0523 7.38154 21.5143 7.38154C24.5604 7.38154 25.1213 9.38497 25.1213 11.9891V17.2936H22.116V12.5872C22.116 11.4647 22.0955 10.0228 20.5525 10.0228C18.99 10.0228 18.7503 11.2452 18.7503 12.507V17.2909H15.7447V7.61792H15.745ZM43.0654 11.3291C43.0853 10.3272 42.3035 9.48575 41.2207 9.48575C39.8989 9.48575 39.1772 10.3875 39.098 11.3291H43.0654ZM45.6095 15.6157C44.6481 16.8381 43.0657 17.5399 41.4986 17.5399C38.4936 17.5399 36.089 15.5352 36.089 12.4297C36.089 9.3243 38.4936 7.32418 41.4986 7.32418C44.3059 7.32418 46.067 9.32761 46.067 12.4297V13.3713H39.0943C39.333 14.5134 40.196 15.2544 41.3587 15.2544C42.3406 15.2544 43.0014 14.7571 43.5027 14.0718L45.6095 15.6157ZM52.3296 9.95586C50.8278 9.95586 49.9267 10.9584 49.9267 12.4198C49.9267 13.8838 50.8285 14.8844 52.3296 14.8844C53.8334 14.8844 54.7355 13.8838 54.7355 12.4198C54.7352 10.9584 53.8338 9.95586 52.3296 9.95586ZM57.5015 17.2893H54.7359V16.0063H54.6967C54.2343 16.7075 53.0732 17.5293 51.7103 17.5293C48.824 17.5293 46.921 15.4463 46.921 12.5C46.921 9.79474 48.6039 7.31026 51.3688 7.31026C52.6121 7.31026 53.7741 7.65074 54.4521 8.59228H54.4912V3.01828H57.4982L57.5015 17.2893Z" fill="#3C90F7"/>
<path d="M79.278 0.0212402H62.003C61.1742 0.0212402 60.5068 0.675679 60.5068 1.48196V18.8299C60.5068 19.6372 61.1775 20.2919 62.003 20.2919H79.278C80.1049 20.2919 80.7785 19.6368 80.7785 18.8299V1.48196C80.7789 0.675679 80.1052 0.0212402 79.278 0.0212402Z" fill="#3C90F7"/>
<path d="M63.5131 7.6209H66.5201V17.2949H63.5131V7.6209ZM65.0173 2.81207C65.4793 2.81251 65.9223 2.9963 66.2489 3.32307C66.5756 3.64984 66.7592 4.09289 66.7595 4.55492C66.7594 5.01707 66.5758 5.46029 66.2492 5.78721C65.9225 6.11412 65.4794 6.298 65.0173 6.29843C64.5548 6.29843 64.1113 6.11475 63.7843 5.78779C63.4573 5.46083 63.2735 5.01736 63.2734 4.55492C63.2737 4.0926 63.4575 3.6493 63.7845 3.32248C64.1116 2.99566 64.555 2.81207 65.0173 2.81207ZM68.4055 7.6209H71.2891V8.9394H71.3289C71.7268 8.17887 72.7114 7.3769 74.1735 7.3769C77.2182 7.3769 77.7805 9.38066 77.7805 11.9852V17.2913H74.7765V12.5836C74.7765 11.4617 74.756 10.0185 73.214 10.0185C71.6492 10.0185 71.4095 11.2405 71.4095 12.5023V17.288H68.4058V7.61394L68.4055 7.6209Z" fill="white"/>
</svg>
