<?xml version="1.0" encoding="UTF-8"?>
<svg width="125px" height="30px" viewBox="0 0 125 30" version="1.1" xmlns="http://www.w3.org/2000/svg" xmlns:xlink="http://www.w3.org/1999/xlink">
    <title>footer-logo</title>
    <g id="Page-1" stroke="none" stroke-width="1" fill="none" fill-rule="evenodd">
        <g id="footer-logo" transform="translate(0.073700, 0.614870)" fill="#333333" fill-rule="nonzero">
            <polygon id="Path" points="11.5611 22.35663 11.5611 13.15853 4.2119 13.15853 4.2119 22.35663 0 22.35663 0 1.37866 4.2119 1.37866 4.2119 9.80893 11.5611 9.80893 11.5611 1.37866 15.7722 1.37866 15.7722 22.35663"></polygon>
            <path d="M25.9626,22.76993 C21.0595,22.76993 18.5723,19.83303 18.5723,14.03923 C18.5723,10.34893 20.4409,6.04103 25.7075,6.04103 C29.3695,6.04103 31.4695,8.07113 31.4695,11.61073 C31.4484,12.62653 31.3224,13.63753 31.0938,14.62753 L22.3992,14.62753 L22.4006,14.80653 C22.4376,18.91093 24.7406,19.77293 26.6655,19.77293 C27.9843,19.76963 29.2927,19.54053 30.5341,19.09553 L31.2143,21.79023 C29.5444,22.45613 27.7603,22.78893 25.9626,22.76993 Z M25.8355,8.84763 C24.0182,8.84763 22.8105,10.09113 22.4348,12.34903 L22.4006,12.55563 L28.2487,12.55563 L28.2487,12.18693 C28.2487,10.06423 27.3688,8.84763 25.8355,8.84763 Z" id="Shape"></path>
            <path d="M37.9721,22.7701204 C35.1661,22.7701204 33.4234,21.04003 33.4234,18.25383 C33.4562,14.09063 37.3975,13.64113 39.0903,13.64113 C39.9694,13.64113 40.9663,13.64113 42.1084,13.73733 L42.3013,13.75243 L42.3013,11.99543 C42.3013,9.40483 41.0061,9.19893 39.3133,9.19893 C38.0704,9.22203 36.8382,9.43263 35.6582,9.82343 L34.833,7.31723 C36.5504,6.34283 39.1599,5.97743 40.4313,5.97743 C44.7024,5.97743 46.2899,7.59093 46.2899,11.93103 L46.2899,18.63733 C46.2899,19.33793 46.6265,19.70863 47.2653,19.70863 C47.6197,19.69803 47.9716,19.64613 48.3139,19.55383 L48.8501,21.89683 C47.8355,22.41793 46.7133,22.69533 45.5727,22.70713 C44.2576,22.70713 43.3714,22.26643 42.785,21.32203 L42.6776,21.14823 L42.5209,21.27833 C41.206,22.25463 39.6098,22.77803 37.9721,22.7701204 Z M40.5594,15.55403 C38.3437,15.55403 37.2195,16.30113 37.2195,17.77493 C37.2195,19.28853 38.0529,20.15613 39.5048,20.15613 C40.4719,20.12353 41.4115,19.82633 42.2214,19.29693 L42.3013,19.24473 L42.3013,15.62923 L42.1366,15.61813 C41.6855,15.58543 41.0745,15.55403 40.5594,15.55403 Z" id="Shape"></path>
            <path d="M55.7889,22.60573 C50.6638,22.60573 49.9004,17.65483 49.9004,14.70403 C49.9004,8.93063 52.1706,6.00353 56.6513,6.00353 C57.5983,6.01203 58.5343,6.20033 59.4113,6.55843 L59.6713,6.69443 L59.6713,-1.77635684e-15 L63.8193,-1.77635684e-15 L63.8193,22.54283 L60.4343,22.54283 L60.1543,21.20433 L59.9343,21.36063 C58.7103,22.18513 57.2643,22.61923 55.7889,22.60573 Z M57.0983,9.16113 C54.9254,9.16113 53.8239,10.99423 53.8239,14.60853 C53.8239,17.92573 54.8502,19.60753 56.8743,19.60753 C57.8433,19.62373 58.7973,19.35893 59.6193,18.84503 L59.7033,18.79323 L59.7033,9.66893 L59.5943,9.62293 C58.8033,9.29703 57.9533,9.13983 57.0983,9.16113 Z" id="Shape"></path>
            <path d="M71.3523,22.73413 C69.3973,22.73413 67.1963,22.24723 66.2373,21.77103 L67.2173,18.88633 C68.5933,19.34983 70.0283,19.61423 71.4793,19.67153 C73.0173,19.67153 73.7663,19.10223 73.7663,17.92843 C73.7663,16.75133 72.4593,16.15463 70.9473,15.46363 C68.9453,14.54803 66.6763,13.51093 66.6763,10.87183 C66.6763,7.75843 68.8343,5.97123 72.5973,5.97123 C74.6803,5.97123 76.4673,6.42423 77.3323,6.86903 L76.3803,9.72633 C75.2413,9.34803 74.0533,9.13623 72.8533,9.09743 C70.9113,9.09743 70.5043,9.97533 70.5043,10.71163 C70.5043,12.03213 71.9323,12.61863 73.4433,13.23983 C75.3893,14.03963 77.5943,14.94613 77.5943,17.54493 C77.5943,20.79373 75.2603,22.73413 71.3523,22.73413 Z" id="Path"></path>
            <path d="M80.5373,6.29093 L84.0583,6.29093 L84.4783,7.72303 L84.6833,7.56283 C85.8263,6.59633 87.2633,6.04643 88.7593,6.00353 C92.4813,6.00353 94.6163,8.91893 94.6163,14.00153 C94.6163,19.79493 92.2163,22.73423 87.4813,22.73423 C86.5923,22.70463 85.7163,22.51363 84.8953,22.17063 L84.6523,22.07473 L84.6523,28.62833 L80.5373,29.09933 L80.5373,6.29093 Z M87.3533,9.28993 C86.4213,9.31073 85.5143,9.59623 84.7383,10.11313 L84.6523,10.16503 L84.6523,19.21743 L84.7873,19.25043 C85.4293,19.40233 86.0863,19.47953 86.7463,19.48033 C89.2793,19.48033 90.5643,17.67953 90.5643,14.12883 C90.5643,12.93213 90.5643,9.28993 87.3533,9.28993 Z" id="Shape"></path>
            <path d="M107.9703,22.73403 L107.5593,20.67593 L107.3323,20.85413 C106.7693,21.29443 104.7403,22.73403 102.2363,22.73403 C98.1823,22.73403 97.6243,20.19413 97.6243,17.44943 L97.6243,6.29073 L101.7393,6.29073 L101.7393,16.65143 C101.7393,18.06643 101.9133,19.44713 103.9933,19.44713 C105.1203,19.43493 106.2163,19.07663 107.1333,18.42083 L107.2033,18.36873 L107.2033,6.29073 L111.3193,6.29073 L111.3193,22.73403 L107.9703,22.73403 Z" id="Path"></path>
            <path d="M115.0613,22.31833 L115.0613,6.29073 L118.4383,6.29073 L118.8323,8.62183 L119.0803,8.29683 C119.6093,7.57443 120.2983,6.98533 121.0943,6.57613 C121.8903,6.16693 122.7713,5.94903 123.6663,5.93973 C124.0893,5.94013 124.5113,5.98003 124.9263,6.05863 L124.2623,9.37663 C123.8583,9.27793 123.4433,9.22723 123.0273,9.22543 C121.2263,9.22543 119.9403,9.75573 119.2093,10.80193 L119.1773,10.84763 L119.1773,22.31833 L115.0613,22.31833 Z" id="Path"></path>
        </g>
    </g>
</svg>