<svg width="42" height="42" viewBox="0 0 42 42" fill="none" xmlns="http://www.w3.org/2000/svg">
<path d="M42 42H39.2955C39.3046 39.5915 38.8381 37.2048 37.9227 34.977C37.0073 32.7492 35.6611 30.7241 33.9613 29.0178C32.2614 27.3115 30.2414 25.9576 28.017 25.0338C25.7927 24.11 23.4079 23.6345 20.9994 23.6345C18.5908 23.6345 16.206 24.11 13.9817 25.0338C11.7574 25.9576 9.73736 27.3115 8.0375 29.0178C6.33764 30.7241 4.99139 32.7492 4.07601 34.977C3.16063 37.2048 2.6941 39.5915 2.70323 42H0C0 36.4305 2.21252 31.089 6.15078 27.1507C10.089 23.2125 15.4305 21 21 21C26.5695 21 31.911 23.2125 35.8493 27.1507C39.7875 31.089 42 36.4305 42 42Z" fill="#0D0D0D"/>
<path d="M36.4832 41.9999H33.7789C33.7789 38.6105 32.4325 35.36 30.0359 32.9633C27.6392 30.5667 24.3886 29.2203 20.9992 29.2203C17.6099 29.2203 14.3593 30.5667 11.9627 32.9633C9.56601 35.36 8.21955 38.6105 8.21955 41.9999H5.5166C5.5166 39.9666 5.91709 37.9532 6.6952 36.0747C7.47331 34.1962 8.61379 32.4893 10.0516 31.0516C11.4893 29.6138 13.1962 28.4733 15.0747 27.6952C16.9532 26.9171 18.9666 26.5166 20.9999 26.5166C23.0332 26.5166 25.0466 26.9171 26.9251 27.6952C28.8036 28.4733 30.5105 29.6138 31.9482 31.0516C33.386 32.4893 34.5265 34.1962 35.3046 36.0747C36.0827 37.9532 36.4832 39.9666 36.4832 41.9999Z" fill="#0D0D0D"/>
<path d="M31.0001 41.9997H28.2956C28.2956 40.0644 27.5268 38.2084 26.1583 36.84C24.7899 35.4715 22.9339 34.7027 20.9986 34.7027C19.0634 34.7027 17.2073 35.4715 15.8389 36.84C14.4704 38.2084 13.7017 40.0644 13.7017 41.9997H10.9984C10.9963 40.685 11.2534 39.3828 11.7551 38.1675C12.2567 36.9523 12.993 35.8479 13.9219 34.9175C14.8507 33.9871 15.954 33.2491 17.1684 32.7455C18.3828 32.2419 19.6846 31.9827 20.9993 31.9827C22.314 31.9827 23.6158 32.2419 24.8302 32.7455C26.0446 33.2491 27.1478 33.9871 28.0767 34.9175C29.0055 35.8479 29.7419 36.9523 30.2435 38.1675C30.7452 39.3828 31.0022 40.685 31.0001 41.9997Z" fill="#0D0D0D"/>
<path d="M5.24854 0H7.27765C7.27765 3.63935 8.72337 7.12967 11.2968 9.70308C13.8702 12.2765 17.3605 13.7222 20.9998 13.7222C24.6392 13.7222 28.1295 12.2765 30.7029 9.70308C33.2763 7.12967 34.722 3.63935 34.722 0H36.7498C36.7498 4.17733 35.0904 8.1836 32.1366 11.1374C29.1827 14.0912 25.1765 15.7506 20.9992 15.7506C16.8218 15.7506 12.8156 14.0912 9.86179 11.1374C6.90797 8.1836 5.24854 4.17733 5.24854 0Z" fill="#0D0D0D"/>
<path d="M9.38635 0H11.4152C11.4152 1.25871 11.6631 2.50512 12.1448 3.66801C12.6265 4.83091 13.3325 5.88755 14.2226 6.77759C15.1126 7.66763 16.1692 8.3736 17.3321 8.85529C18.495 9.33698 19.7414 9.58492 21.0001 9.58492C22.2588 9.58492 23.5052 9.33698 24.6681 8.85529C25.831 8.3736 26.8877 7.66763 27.7777 6.77759C28.6677 5.88755 29.3737 4.83091 29.8554 3.66801C30.3371 2.50512 30.5851 1.25871 30.5851 0H32.6126C32.6126 3.07999 31.3891 6.03381 29.2112 8.2117C27.0333 10.3896 24.0795 11.6131 20.9995 11.6131C17.9195 11.6131 14.9656 10.3896 12.7877 8.2117C10.6098 6.03381 9.38635 3.07999 9.38635 0Z" fill="#0D0D0D"/>
<path d="M13.4979 0H15.5258C15.5258 1.4517 16.1024 2.84394 17.1289 3.87045C18.1554 4.89696 19.5477 5.47366 20.9994 5.47366C22.4511 5.47366 23.8434 4.89696 24.8699 3.87045C25.8964 2.84394 26.473 1.4517 26.473 0H28.5006C28.5006 1.98948 27.7103 3.89746 26.3035 5.30423C24.8967 6.71101 22.9887 7.50129 20.9993 7.50129C19.0098 7.50129 17.1018 6.71101 15.695 5.30423C14.2883 3.89746 13.4979 1.98948 13.4979 0Z" fill="#0D0D0D"/>
</svg>
