<svg width="122" height="45" viewBox="0 0 122 45" fill="none" xmlns="http://www.w3.org/2000/svg">
<path d="M25.2135 24.9277L22.7218 25.996C22.5318 26.0773 22.4419 26.3006 22.5216 26.4918C22.5637 26.5903 22.6388 26.659 22.7275 26.6945C22.8163 26.73 22.9175 26.7334 23.0165 26.6922L25.5082 25.6239C25.6982 25.5426 25.7881 25.3193 25.7084 25.1281C25.6277 24.938 25.4035 24.8475 25.2146 24.9277H25.2135Z" fill="#BDBDBD"/>
<path d="M41.6286 14.321C40.2622 12.7992 38.2017 11.9141 35.346 11.6061V10.0431C35.346 7.22518 34.1627 4.51029 32.0818 2.61754C29.9803 0.683573 27.2474 -0.221008 24.4122 0.0457859C19.5369 0.518687 15.4364 5.2706 15.4364 10.413V11.6061C12.5807 11.9141 10.5202 12.7992 9.15378 14.321C7.17523 16.5424 7.19002 19.0259 7.75435 24.2027C8.31867 29.3794 18.2729 28.5057 18.2729 28.5057C18.2729 28.5057 6.27868 41.1447 19.7007 41.1447H31.0828C39.8549 41.1447 41.4659 37.0305 41.8937 33.0401L43.3216 21.5416C43.5457 19.5057 43.5867 16.5435 41.6286 14.3221V14.321ZM17.0316 16.2595C16.2147 16.2595 15.5525 15.5931 15.5525 14.771C15.5525 13.9488 16.2147 13.2824 17.0316 13.2824C17.8485 13.2824 18.5107 13.9488 18.5107 14.771C18.5107 15.5931 17.8485 16.2595 17.0316 16.2595ZM27.7378 26.2706L24.6352 29.9187C22.5497 32.3748 21.0012 31.7473 21.2026 28.5286L21.2925 27.1076L20.2105 26.1859C17.7609 24.095 18.3844 22.5481 21.5974 22.745L26.3737 23.0485C28.5172 23.1824 29.1259 24.6309 27.7378 26.2717V26.2706ZM18.2717 11.4824V10.413C18.2717 6.75113 21.2708 3.23357 24.6977 2.90495C26.7377 2.71945 28.6753 3.35724 30.1851 4.73586C31.6744 6.09388 32.5107 8.0267 32.5107 10.0431V11.4836H18.2717V11.4824ZM33.8703 16.2595C33.0534 16.2595 32.3912 15.5931 32.3912 14.771C32.3912 13.9488 33.0534 13.2824 33.8703 13.2824C34.6872 13.2824 35.3494 13.9488 35.3494 14.771C35.3494 15.5931 34.6872 16.2595 33.8703 16.2595Z" fill="#BDBDBD"/>
<path d="M9.7545 35.9978L5.20349 38.3417C4.80869 38.5455 4.65282 39.0321 4.85534 39.4283C5.05786 39.8245 5.54368 39.9814 5.93848 39.7776L10.4895 37.4337C10.8843 37.2298 11.0402 36.7432 10.8376 36.347C10.6351 35.9508 10.1493 35.794 9.7545 35.9978Z" fill="#BDBDBD"/>
<path d="M13.5404 30.7752C13.3379 30.3791 12.852 30.2222 12.4572 30.426L0.436887 36.6149C0.042087 36.8188 -0.113785 37.3043 0.0887348 37.7016C0.291255 38.0978 0.777075 38.2546 1.17187 38.0508L13.1911 31.8619C13.5859 31.6581 13.7418 31.1714 13.5392 30.7752H13.5404Z" fill="#BDBDBD"/>
<path d="M3.40485 32.8637L7.7283 30.6378C8.1231 30.4339 8.27898 29.9473 8.07646 29.5511C7.87394 29.1549 7.38812 28.9981 6.99332 29.2019L2.66986 31.4278C2.27506 31.6317 2.11919 32.1183 2.32171 32.5145C2.52423 32.9107 3.01005 33.0675 3.40485 32.8637Z" fill="#BDBDBD"/>
<path d="M49.2728 20.1526H51.7758L52.5927 15.8117C52.8408 15.8472 53.1957 15.8827 53.6042 15.8827C55.0423 15.8827 56.4793 15.5438 57.4737 14.7755C58.3793 14.0426 59.0893 12.8816 59.0893 11.4354C59.0893 10.2033 58.5568 9.36288 57.8116 8.84532C56.8354 8.14914 55.4155 8.0415 54.6168 8.0415C53.4449 8.0415 52.2912 8.14914 51.4925 8.34494L49.2739 20.1526H49.2728ZM53.6565 10.1678C53.9046 10.114 54.2777 10.0785 54.5975 10.0785C55.8217 10.0785 56.5146 10.5251 56.5146 11.5785C56.5146 12.7579 55.6977 13.8114 53.9057 13.8114C53.586 13.8114 53.2492 13.7759 52.983 13.7037L53.6577 10.1667L53.6565 10.1678ZM64.0192 11.2213C60.9313 11.2213 58.8367 13.7037 58.8367 16.7404C58.8367 18.9022 60.3101 20.3484 62.5105 20.3484C65.5278 20.3484 67.693 18.0079 67.693 14.811C67.693 12.8278 66.3436 11.2201 64.0192 11.2201V11.2213ZM63.6824 13.1678C64.7121 13.1678 65.0488 14.0255 65.0488 14.8293C65.0488 16.3293 64.2683 18.3835 62.8655 18.3835C61.9781 18.3835 61.4809 17.7045 61.4809 16.6865C61.4627 15.3285 62.209 13.1678 63.6813 13.1678H63.6824ZM68.6134 11.4171L69.4303 20.1514H71.8446L73.318 16.99C73.673 16.2045 73.8858 15.5427 74.3477 14.3106H74.383C74.383 15.364 74.4012 16.2045 74.4535 17.1148L74.7015 20.1514H77.0976L81.3221 11.4171H78.7485L77.2751 15.0606C76.9019 16.0614 76.6004 16.9362 76.3171 17.9003H76.2637C76.3171 16.9717 76.2819 16.114 76.2455 15.0961L76.0327 11.4159H73.9381L72.2337 15.2209C71.8606 16.0957 71.4703 16.9717 71.1688 17.9003H71.1335C71.187 16.9362 71.2223 16.114 71.2223 15.1133L71.2041 11.4159H68.6123L68.6134 11.4171ZM87.5092 17.7938C86.8175 18.1327 86.0188 18.348 85.0778 18.348C84.3326 18.348 83.7467 18.1156 83.4099 17.669C83.2324 17.4194 83.1437 17.0255 83.1437 16.7759C86.6229 16.8652 88.7698 16.0614 88.7698 13.8285C88.7698 12.2026 87.5092 11.2201 85.7525 11.2201C82.6112 11.2201 80.6941 13.9888 80.6941 16.6499C80.6941 18.9182 81.9718 20.3472 84.4566 20.3472C85.4146 20.3472 86.6752 20.1686 87.6867 19.651L87.5092 17.7938ZM86.3737 13.8457C86.3737 14.6312 85.3793 14.9175 83.3917 14.8991C83.5692 14.077 84.2439 13.0946 85.4328 13.0946C86.0187 13.0946 86.3737 13.398 86.3737 13.8446V13.8457ZM91.5209 20.1514L92.1239 16.9007C92.4436 15.1854 93.2071 13.7209 94.8397 13.7209C94.982 13.7209 95.1242 13.7392 95.2482 13.7392L95.7454 11.2385C95.5861 11.2201 95.4257 11.2201 95.2664 11.2201C94.0774 11.2201 93.1013 12.0423 92.4971 13.2033H92.4436C92.4971 12.5965 92.5506 12.0068 92.6029 11.4171H90.3843C90.2956 12.1671 90.1886 13.6316 89.9406 14.9541L88.9644 20.1526H91.5198L91.5209 20.1514ZM100.879 20.1514L101.589 16.2217C101.909 14.5064 102.813 13.2743 103.683 13.2743C104.305 13.2743 104.5 13.7564 104.5 14.3461C104.5 14.6495 104.447 14.9896 104.376 15.3468L103.489 20.1514H105.956L106.684 16.1862C107.003 14.4354 107.856 13.2743 108.707 13.2743C109.31 13.2743 109.576 13.7026 109.576 14.3106C109.576 14.6495 109.522 15.0251 109.452 15.3823L108.583 20.1514H111.049L111.99 15.0606C112.079 14.614 112.149 13.935 112.149 13.5606C112.149 12.0778 111.369 11.2201 110.02 11.2201C108.901 11.2201 107.819 11.7377 107.038 12.8633C106.967 12.0949 106.363 11.2201 104.978 11.2201C103.86 11.2201 102.795 11.7022 102.014 12.8278H101.979L102.138 11.4171H99.938C99.8311 12.1854 99.69 13.1495 99.4943 14.2568L98.4111 20.1514H100.878H100.879ZM113.131 11.4171L114.853 19.3304C114.888 19.5274 114.888 19.6339 114.799 19.7587C114.48 20.3484 113.982 20.8659 113.398 21.277C112.9 21.6343 112.333 21.8484 111.924 21.9732L112.492 24.1705C113.06 24.0812 114.267 23.653 115.278 22.6877C116.432 21.5976 117.462 20.0083 118.615 17.6862L121.721 11.4159H119.024L117.443 15.2564C117.071 16.2033 116.876 16.7747 116.681 17.2923H116.645C116.574 16.7381 116.485 16.1129 116.361 15.2197L115.829 11.4148H113.131V11.4171ZM45.7025 38.977C46.4307 39.5266 47.9553 40.0533 50.0942 40.0991C53.5075 40.0991 56.3291 38.3129 56.3291 34.8778C56.3291 33.0457 55.1459 31.7862 53.2799 30.8014C51.9829 30.0686 51.0499 29.519 51.0499 28.6259C51.0499 27.7327 51.8464 26.9999 53.371 26.9999C54.6452 26.977 55.7375 27.4121 56.2381 27.6869L57.2621 24.9388C56.6022 24.5724 55.5099 24.1831 53.644 24.1831C50.299 24.1831 47.5912 26.061 47.5912 29.1755C47.5912 31.1907 49.1385 32.3816 50.7769 33.2747C52.1877 34.0075 52.8476 34.5801 52.8476 35.4503C52.8476 36.664 51.6871 37.2594 50.4128 37.2594C49.002 37.2594 47.705 36.8243 46.7948 36.2747L45.7025 38.977ZM59.9642 39.8472L60.9199 34.7175C61.3523 32.4503 62.5128 31.0533 63.6505 31.0533C64.4697 31.0533 64.7883 31.5801 64.7883 32.3129C64.7883 32.7938 64.72 33.2747 64.629 33.7098L63.4913 39.8472H66.768L67.974 33.435C68.0878 32.7938 68.1788 31.9465 68.1788 31.4198C68.1788 29.4961 67.1093 28.3969 65.3799 28.3969C63.9009 28.3969 62.7403 29.061 61.8301 30.0915L61.7846 30.0686L63.0134 23.5877H59.7367L56.6875 39.8472H59.9642ZM75.6299 28.3969C71.6706 28.3969 68.9855 31.5801 68.9855 35.4732C68.9855 38.2442 70.8741 40.0991 73.6958 40.0991C77.5641 40.0991 80.3402 37.0991 80.3402 32.9999C80.3402 30.4579 78.6108 28.3969 75.6299 28.3969ZM75.1976 30.893C76.5174 30.893 76.9497 31.9923 76.9497 33.0228C76.9497 34.9465 75.9485 37.5801 74.1509 37.5801C73.0131 37.5801 72.376 36.7098 72.376 35.4045C72.3532 33.664 73.3089 30.893 75.1976 30.893ZM82.7659 44.3816L83.6761 39.6411H83.7216C84.1085 39.8701 84.8821 40.0991 85.7923 40.0991C89.6607 40.0991 92.232 36.5266 92.232 32.6335C92.232 30.3434 91.0715 28.3969 88.6595 28.3969C87.3169 28.3969 85.9971 29.061 85.0869 30.2747H85.0414L85.2462 28.5572H82.3108C82.1743 29.7022 81.9012 31.6488 81.6509 32.977L79.5119 44.3816H82.7659ZM84.5863 34.6488C84.9504 32.4274 86.1337 31.0533 87.3624 31.0533C88.4319 31.0533 88.796 31.9923 88.796 32.8854C88.796 35.0839 87.4307 37.603 85.6786 37.603C85.0414 37.603 84.5408 37.3969 84.1767 37.0533L84.5863 34.6488ZM95.5429 39.8472L97.6591 28.6488H94.3824L92.2661 39.8472H95.5429ZM96.4303 27.2518C97.477 27.2518 98.3645 26.5648 98.3645 25.3969C98.3645 24.4121 97.6818 23.7709 96.7261 23.7709C95.7704 23.7709 94.8602 24.5266 94.8375 25.6488C94.8375 26.6335 95.5201 27.2518 96.4303 27.2518ZM101.019 39.8472L102.634 31.1449H104.819L105.297 28.6488H103.09L103.203 28.0991C103.408 26.977 104.068 26.061 105.115 26.061C105.547 26.061 105.888 26.1068 106.184 26.2442L106.753 23.6106C106.389 23.4503 105.797 23.3358 105.001 23.3358C103.909 23.3358 102.725 23.6335 101.838 24.4121C100.723 25.351 100.2 26.748 99.9721 28.0533L99.8584 28.6488H98.4248L97.9469 31.1449H99.3805L97.7649 39.8472H101.019ZM105.683 28.6488L107.89 38.7938C107.935 39.0457 107.935 39.1831 107.821 39.3434C107.412 40.0991 106.775 40.7633 106.024 41.29C105.387 41.748 104.659 42.0228 104.135 42.1831L104.863 44.9999C105.591 44.8854 107.139 44.3358 108.436 43.0991C109.915 41.7022 111.235 39.664 112.714 36.6869L116.696 28.6488H113.237L111.212 33.5724C110.734 34.7862 110.484 35.519 110.234 36.1831H110.188C110.097 35.4732 109.983 34.6717 109.824 33.5266L109.141 28.6488H105.683Z" fill="#BDBDBD"/>
</svg>
