<svg width="25" height="24" viewBox="0 0 25 24" fill="none" xmlns="http://www.w3.org/2000/svg">
<path d="M19.3828 14.6697C19.0737 14.9692 18.9317 15.4024 19.0021 15.8272L20.063 21.6984C20.1525 22.196 19.9424 22.6996 19.526 22.9872C19.1178 23.2855 18.5749 23.3213 18.1298 23.0827L12.8445 20.326C12.6607 20.2282 12.4566 20.1757 12.2478 20.1697H11.9244C11.8122 20.1864 11.7025 20.2222 11.6022 20.2771L6.31575 23.0469C6.05441 23.1781 5.75847 23.2247 5.46849 23.1781C4.76203 23.0445 4.29067 22.3714 4.40642 21.6614L5.46849 15.7902C5.53889 15.3618 5.39689 14.9262 5.08781 14.6219L0.778689 10.4453C0.418302 10.0956 0.293002 9.57054 0.457682 9.09679C0.617589 8.62423 1.02571 8.27935 1.51856 8.20179L7.44942 7.34139C7.9005 7.29485 8.29669 7.02039 8.49955 6.61465L11.113 1.25659C11.175 1.13725 11.255 1.02747 11.3516 0.934386L11.459 0.850853C11.5151 0.7888 11.5795 0.737486 11.6511 0.69572L11.7812 0.647986L11.9841 0.564453H12.4865C12.9352 0.610993 13.3302 0.879493 13.5366 1.28045L16.1846 6.61465C16.3756 7.00487 16.7467 7.27576 17.1751 7.34139L23.1059 8.20179C23.6071 8.27339 24.026 8.61945 24.1919 9.09679C24.3482 9.57531 24.2134 10.1004 23.8458 10.4453L19.3828 14.6697Z" fill="#FFBA40"/>
</svg>
