<svg width="22" height="23" viewBox="0 0 22 23" fill="none" xmlns="http://www.w3.org/2000/svg">
<path fill-rule="evenodd" clip-rule="evenodd" d="M22 11.5001C22 5.14885 17.0751 0.00012207 11 0.00012207C4.92487 0.00012207 0 5.14885 0 11.5001C0 17.8514 4.92487 23.0001 11 23.0001C17.0751 23.0001 22 17.8514 22 11.5001ZM16.669 9.74342C17.0795 9.37396 17.1128 8.74167 16.7433 8.33116C16.3738 7.92065 15.7415 7.88737 15.331 8.25683L9.33333 13.6548L6.66896 11.2568C6.25845 10.8874 5.62616 10.9206 5.25671 11.3312C4.88725 11.7417 4.92053 12.374 5.33104 12.7434L8.66437 15.7434L9.33333 16.3455L10.0023 15.7434L16.669 9.74342Z" fill="#676BCB"/>
</svg>
