<svg width="68" height="20" viewBox="0 0 68 20" fill="none" xmlns="http://www.w3.org/2000/svg">
<g clip-path="url(#clip0_35_3178)">
<path d="M43.4297 4.6C40.4414 4.6 38.0508 7 38.0508 10C38.0508 13 40.4414 15.4 43.4297 15.4C46.418 15.4 48.8086 13 48.8086 10C48.8086 7 46.418 4.6 43.4297 4.6ZM43.4297 13.2C41.7031 13.2 40.2422 11.8 40.2422 10C40.2422 8.2 41.6367 6.8 43.4297 6.8C45.1562 6.8 46.6172 8.2 46.6172 9.93333C46.6172 11.7333 45.2227 13.2 43.4297 13.2ZM55.3828 7.2C53.8555 7.2 52.5937 8.46667 52.5937 10V15.1333H50.2695V4.93333H52.5937V6.53333C53.2578 5.53333 54.3867 4.93333 55.582 4.93333H56.3125V7.2H55.3828ZM32.0078 4.93333L33.7344 12L35.6602 4.93333H37.918L34.9961 15.1333H32.6719L30.8789 8L29.0859 15.1333H26.7617L23.8398 4.93333H26.0977L28.0234 12L29.8164 4.93333H32.0078ZM63.0859 9.6C64.8125 8.66667 65.8086 6.86667 65.8086 4.86667H63.5508C63.5508 6.6 62.1562 7.93333 60.4961 7.93333H60.1641V0H57.8398V15.1333H60.1641V10.3333H60.4297C60.6953 10.3333 60.9609 10.4667 61.0938 10.6667L64.3477 15.1333H67.1367L63.0859 9.6Z" fill="#858585"/>
<path d="M18.3281 4.60001C15.8047 4.60001 13.8789 6.26668 13.082 8.93335C11.8867 7.13335 11.0234 5.13335 10.4258 3.06668H7.70313V10.1333C7.70313 11.5333 6.57422 12.6667 5.17969 12.6667C3.78516 12.6667 2.65625 11.5333 2.65625 10.1333V3.13335H0V10.2C0 13.0667 2.32422 15.4667 5.24609 15.4667C8.16797 15.4667 10.4922 13.1333 10.4922 10.2V9.00001C11.0234 10.1333 11.6875 11.2 12.418 12.2L10.7578 20H13.5469L14.7422 14.3333C15.8047 15.0667 17.0664 15.4667 18.3945 15.4667C21.3828 15.4667 23.7734 13.0667 23.7734 10.0667C23.707 7.06668 21.3164 4.60001 18.3281 4.60001ZM18.3281 12.7333C17.1992 12.6667 16.1367 12.2667 15.2734 11.5333L15.4727 10.4667V10.4C15.6719 9.26668 16.3359 7.33335 18.2617 7.33335C19.7227 7.26668 20.918 8.46668 20.9844 9.93335C21.0508 11.4 19.8555 12.6 18.3945 12.6667L18.3281 12.7333Z" fill="#6FDA44"/>
</g>
<defs>
<clipPath id="clip0_35_3178">
<rect width="68" height="20" fill="white"/>
</clipPath>
</defs>
</svg>
