<svg width="86" height="26" viewBox="0 0 86 26" fill="none" xmlns="http://www.w3.org/2000/svg">
<g clip-path="url(#clip0_1070_434)">
<path d="M23.5032 16.2068C22.1076 16.2068 20.7999 15.6159 19.6117 14.654L19.901 13.2961L19.9136 13.2458C20.1712 11.8 20.9886 9.37323 23.5032 9.37323C25.3891 9.37323 26.9231 10.9072 26.9231 12.7931C26.9168 14.6728 25.3829 16.2068 23.5032 16.2068ZM23.5032 5.90941C20.2907 5.90941 17.8013 7.99656 16.7893 11.429C15.2427 9.10924 14.0733 6.32435 13.3882 3.97941H9.93055V12.9754C9.93055 14.7483 8.48461 16.194 6.71177 16.194C4.93893 16.194 3.49315 14.7483 3.49315 12.9754V3.97941H0.0351957V12.9754C0.0226164 16.6595 3.02135 19.6832 6.70523 19.6832C10.3893 19.6832 13.388 16.6595 13.388 12.9754V11.4668C14.0606 12.8686 14.8841 14.283 15.8837 15.5404L13.765 25.4982H17.3045L18.8384 18.275C20.1837 19.1363 21.7302 19.677 23.5031 19.677C27.2938 19.677 30.3806 16.5714 30.3806 12.7805C30.3806 8.99602 27.294 5.90941 23.5032 5.90941Z" fill="#6FDA44"/>
<path d="M40.9358 6.29919L43.1675 15.2952L45.6257 6.29919H48.5551L44.777 19.2998H41.8474L39.5277 10.2471L37.2142 19.2934H34.2847L30.5062 6.29299H33.4359L35.8938 15.289L38.1256 6.29299H40.9356V6.29936L40.9358 6.29919ZM55.5646 5.9094C51.7613 5.9094 48.6809 8.99602 48.6809 12.7931C48.6809 16.5966 51.7675 19.677 55.5646 19.677C59.3681 19.677 62.4547 16.5966 62.4547 12.7931C62.4547 8.98982 59.3681 5.9094 55.5646 5.9094ZM55.5646 16.848C53.3267 16.848 51.5161 15.0374 51.5161 12.7995C51.5161 10.5614 53.3329 8.75098 55.5646 8.75098C57.8027 8.75098 59.6131 10.5614 59.6131 12.7995C59.6131 15.0312 57.8027 16.848 55.5646 16.848ZM70.8221 9.20987C68.8545 9.20987 67.264 10.8066 67.264 12.768V19.2934H64.3154V6.29919H67.264V8.29829C67.264 8.29829 68.5213 6.29282 71.1051 6.29282H72.0103V9.20987H70.8221ZM80.7173 12.2903C82.8105 11.1083 84.2314 8.86402 84.2314 6.29282H81.2829C81.2829 8.46165 79.5228 10.2219 77.3539 10.2219H76.9578V0.0251579H74.0095V19.2932H76.9578V13.1703H77.31C77.5991 13.1703 77.9764 13.359 78.1461 13.5915L82.3328 19.2934H85.8659L80.7173 12.2903Z" fill="white"/>
</g>
<defs>
<clipPath id="clip0_1070_434">
<rect width="85.8826" height="25.6617" fill="white"/>
</clipPath>
</defs>
</svg>
