<svg width="135" height="40" viewBox="0 0 135 40" fill="none" xmlns="http://www.w3.org/2000/svg">
<g clip-path="url(#clip0_784_1227)">
<path d="M38.7867 20.0551H33.4957L33.4672 17.5487H38.0879C38.8675 17.5487 39.5283 17.4391 40.0702 17.22C40.6217 16.9917 41.04 16.6676 41.3252 16.2476C41.6105 15.8184 41.7531 15.3025 41.7531 14.6999C41.7531 14.0333 41.6199 13.4901 41.3538 13.07C41.0875 12.65 40.6787 12.3441 40.1273 12.1524C39.5853 11.9606 38.8913 11.8648 38.0451 11.8648H34.5796V29.0671H31V9.12555H38.0451C39.186 9.12555 40.2034 9.23055 41.0971 9.44056C42.0003 9.65057 42.7657 9.97928 43.3931 10.4267C44.0301 10.865 44.5103 11.4219 44.8335 12.0976C45.1663 12.7733 45.3327 13.5768 45.3327 14.5081C45.3327 15.3299 45.1283 16.0832 44.7194 16.768C44.3106 17.4437 43.7069 17.9961 42.9083 18.4252C42.1096 18.8544 41.1161 19.11 39.9276 19.1922L38.7867 20.0551ZM38.6298 29.0671H32.3691L33.9806 26.3416H38.6298C39.438 26.3416 40.113 26.2138 40.6549 25.9581C41.1969 25.6933 41.601 25.3326 41.8671 24.8761C42.1429 24.4104 42.2807 23.8672 42.2807 23.2462C42.2807 22.598 42.1619 22.0364 41.9242 21.5616C41.6865 21.0777 41.311 20.7079 40.7975 20.4523C40.2842 20.1875 39.6139 20.0551 38.7867 20.0551H34.765L34.7935 17.5487H40.0275L40.8403 18.4937C41.9812 18.5302 42.9178 18.7722 43.6498 19.2196C44.3914 19.667 44.9429 20.2468 45.3042 20.959C45.6654 21.6712 45.8461 22.4382 45.8461 23.26C45.8461 24.5291 45.5561 25.5929 44.9762 26.4512C44.4057 27.3094 43.5833 27.9623 42.5089 28.4097C41.4346 28.848 40.1415 29.0671 38.6298 29.0671Z" fill="#C0C0C0"/>
<path d="M75.7167 26.0951V19.0279C75.7167 18.4982 75.6169 18.0417 75.4173 17.6582C75.2176 17.2748 74.9133 16.978 74.5045 16.768C74.1052 16.558 73.6013 16.453 72.9928 16.453C72.4319 16.453 71.947 16.5443 71.5382 16.7269C71.1293 16.9095 70.8108 17.156 70.5826 17.4665C70.3544 17.7769 70.2404 18.1285 70.2404 18.5211H66.8176C66.8176 17.9367 66.965 17.3706 67.2598 16.8228C67.5545 16.2749 67.9823 15.7864 68.5433 15.3573C69.1042 14.9281 69.7745 14.5903 70.5541 14.3438C71.3337 14.0972 72.2084 13.974 73.1782 13.974C74.3381 13.974 75.3649 14.1612 76.2586 14.5355C77.1619 14.9099 77.8702 15.476 78.3836 16.2338C78.9065 16.9826 79.168 17.9231 79.168 19.0553V25.6431C79.168 26.3188 79.2155 26.926 79.3106 27.4647C79.4152 27.9942 79.5625 28.4554 79.7527 28.848V29.0671H76.2301C76.0685 28.711 75.9401 28.259 75.8451 27.7112C75.7595 27.1542 75.7167 26.6155 75.7167 26.0951ZM76.2159 20.0551L76.2444 22.0958H73.7772C73.1402 22.0958 72.5792 22.1551 72.0943 22.2738C71.6095 22.3834 71.2054 22.5478 70.8821 22.7669C70.5589 22.9861 70.3164 23.2508 70.1548 23.5613C69.9932 23.8717 69.9124 24.2233 69.9124 24.6159C69.9124 25.0085 70.0074 25.3691 70.1976 25.6979C70.3877 26.0174 70.6634 26.2686 71.0247 26.4512C71.3956 26.6338 71.8424 26.7251 72.3653 26.7251C73.0689 26.7251 73.6821 26.5881 74.205 26.3142C74.7375 26.0312 75.1558 25.6888 75.46 25.287C75.7642 24.8761 75.9259 24.4881 75.9449 24.1228L77.0573 25.5883C76.9432 25.9627 76.7483 26.3644 76.4726 26.7936C76.1968 27.2227 75.8356 27.6336 75.3887 28.0262C74.9514 28.4097 74.4237 28.7247 73.8057 28.9713C73.1972 29.2178 72.4937 29.3411 71.695 29.3411C70.6872 29.3411 69.7888 29.1493 68.9996 28.7658C68.2105 28.3732 67.5925 27.8482 67.1456 27.1908C66.6988 26.5242 66.4753 25.7709 66.4753 24.9309C66.4753 24.1457 66.6275 23.4517 66.9317 22.8491C67.2455 22.2373 67.7018 21.726 68.3008 21.3151C68.9093 20.9042 69.6509 20.5938 70.5256 20.3838C71.4003 20.1646 72.3986 20.0551 73.5205 20.0551H76.2159Z" fill="#C0C0C0"/>
<path d="M90.2501 25.0541C90.2501 24.7255 90.1647 24.4287 89.9935 24.1639C89.8223 23.89 89.4943 23.6435 89.0095 23.4243C88.5343 23.2052 87.8303 23.0043 86.8986 22.8217C86.081 22.6482 85.3301 22.4428 84.6453 22.2054C83.9704 21.9588 83.3905 21.6621 82.9056 21.3151C82.4207 20.9682 82.0451 20.5573 81.779 20.0825C81.5127 19.6077 81.3797 19.0598 81.3797 18.4389C81.3797 17.8363 81.5175 17.2656 81.7932 16.7269C82.0689 16.1882 82.4635 15.7134 82.9769 15.3025C83.4903 14.8916 84.113 14.5675 84.8453 14.3301C85.5866 14.0927 86.4138 13.974 87.3269 13.974C88.6197 13.974 89.7274 14.184 90.6495 14.604C91.5813 15.0149 92.2943 15.5764 92.7887 16.2886C93.2831 16.9917 93.5301 17.7861 93.5301 18.6717H90.0933C90.0933 18.2791 89.9887 17.9139 89.7797 17.576C89.5797 17.2291 89.2757 16.9506 88.8666 16.7406C88.4581 16.5215 87.9445 16.4119 87.3269 16.4119C86.737 16.4119 86.2474 16.5032 85.8575 16.6858C85.4773 16.8593 85.1919 17.0876 85.0021 17.3706C84.8213 17.6537 84.7311 17.9641 84.7311 18.302C84.7311 18.5485 84.7786 18.7722 84.8735 18.9731C84.9781 19.1648 85.1493 19.3429 85.3871 19.5072C85.625 19.6624 85.9482 19.8085 86.3567 19.9455C86.7754 20.0825 87.2981 20.2149 87.9258 20.3427C89.1045 20.5801 90.1173 20.8859 90.9631 21.2603C91.8191 21.6256 92.4751 22.1004 92.9311 22.6847C93.3877 23.26 93.6159 23.9904 93.6159 24.8761C93.6159 25.5335 93.4687 26.1362 93.1738 26.684C92.8885 27.2227 92.4703 27.6929 91.9189 28.0947C91.3674 28.4873 90.7066 28.7932 89.9365 29.0123C89.1759 29.2315 88.3199 29.3411 87.3695 29.3411C85.9717 29.3411 84.7882 29.1037 83.8183 28.6289C82.8486 28.1449 82.1117 27.5286 81.6078 26.7799C81.1134 26.022 80.8662 25.2368 80.8662 24.4241H84.1891C84.2272 25.0359 84.4031 25.5244 84.7167 25.8896C85.0399 26.2457 85.4394 26.506 85.9146 26.6703C86.3994 26.8255 86.8986 26.9031 87.4122 26.9031C88.0303 26.9031 88.5482 26.8255 88.9669 26.6703C89.385 26.506 89.7034 26.2868 89.9221 26.0129C90.1407 25.7298 90.2501 25.4103 90.2501 25.0541Z" fill="#C0C0C0"/>
<path d="M102.531 14.2479V16.6584H93.8311V14.2479H102.531ZM96.3409 10.6184H99.7783V24.972C99.7783 25.4285 99.8449 25.78 99.9777 26.0266C100.121 26.264 100.315 26.4238 100.562 26.506C100.81 26.5881 101.1 26.6292 101.433 26.6292C101.67 26.6292 101.898 26.6155 102.117 26.5881C102.336 26.5607 102.512 26.5334 102.645 26.506L102.659 29.026C102.373 29.1082 102.041 29.1813 101.66 29.2452C101.29 29.3091 100.862 29.3411 100.377 29.3411C99.5879 29.3411 98.8892 29.2087 98.2807 28.9439C97.6721 28.6699 97.1969 28.2271 96.8545 27.6153C96.5121 27.0036 96.3409 26.1909 96.3409 25.1774V10.6184Z" fill="#C0C0C0"/>
<mask id="mask0_784_1227" style="mask-type:luminance" maskUnits="userSpaceOnUse" x="47" y="13" width="19" height="17">
<path d="M65.5572 13.9113H47.1079V29.6133H65.5572V13.9113Z" fill="white"/>
</mask>
<g mask="url(#mask0_784_1227)">
<path d="M62.607 21.6394C62.607 21.727 62.6081 21.8517 62.6081 21.9594V21.981C62.6081 22.0231 62.6081 22.0626 62.607 22.0935V22.0958C62.6058 22.1438 62.6031 22.1952 62.6019 22.2492C62.5631 23.4647 62.3835 24.5241 62.0678 25.4267C61.752 26.3293 61.3028 27.0762 60.7199 27.6752C60.1881 28.2217 59.5578 28.6508 58.8227 28.9674C58.0889 29.2826 57.2475 29.4852 56.2992 29.5679C56.2918 29.569 56.2841 29.5717 56.2767 29.5728C55.9536 29.5981 55.6177 29.6133 55.2709 29.6133H54.4722C53.264 29.6133 52.2058 29.4502 51.297 29.1302C50.3871 28.8102 49.6257 28.3342 49.0004 27.6979C48.3763 27.065 47.9046 26.263 47.5877 25.2815C47.2689 24.3002 47.1079 23.1388 47.1079 21.7989C47.1079 20.4589 47.2689 19.2807 47.5873 18.2906C47.9042 17.3004 48.3763 16.4902 49 15.8491C49.6264 15.2054 50.3879 14.7238 51.2978 14.4001C52.119 14.1069 53.0627 13.9452 54.1297 13.9166C53.9552 13.9765 53.7826 14.0399 53.6182 14.1106C52.8257 14.4463 52.1368 14.9101 51.56 15.4964C50.8987 16.1677 50.4007 17.0065 50.0647 18.0037C49.7288 19.001 49.5543 20.1565 49.5341 21.4703C49.5329 21.553 49.5318 21.6394 49.5318 21.727C49.5318 21.8145 49.5329 21.8994 49.5341 21.9836V21.9848C49.5477 22.6668 49.6163 23.2829 49.7373 23.8331C49.7824 24.0488 49.8336 24.2552 49.8945 24.4504C50.0841 25.0546 50.3548 25.559 50.7133 25.9583C51.1089 26.4005 51.6306 26.7301 52.2598 26.9447C52.5519 27.0442 52.8676 27.1198 53.2058 27.1723C53.2306 27.1761 53.2559 27.1809 53.2807 27.1843C53.2958 27.1865 53.3105 27.1879 53.3245 27.1902C53.6763 27.2394 54.0495 27.2632 54.449 27.2647H55.2476C55.345 27.2647 55.4424 27.2636 55.537 27.2599C55.8279 27.2528 56.1049 27.23 56.3682 27.1928H56.3694C56.9311 27.1172 57.4303 26.9771 57.8697 26.7696C58.3092 26.5621 58.6847 26.2865 58.9903 25.946C59.3922 25.5012 59.6842 24.9261 59.8766 24.2306C60.069 23.5344 60.1625 22.7167 60.1625 21.7735C60.1625 20.8303 60.0702 20.0138 59.8793 19.3165C59.6897 18.6203 59.4015 18.0425 59.0058 17.5918C58.7025 17.2491 58.3282 16.9708 57.8875 16.761C57.8713 16.754 57.8538 16.748 57.8375 16.7394H58.1932C58.5838 16.7394 58.9457 16.7648 59.2804 16.8102C59.2894 16.8113 59.2991 16.8125 59.3091 16.8139C59.3316 16.8177 59.3542 16.8225 59.3767 16.8259C59.4317 16.8344 59.4852 16.8438 59.5388 16.8534C59.5698 16.8594 59.6012 16.8654 59.6322 16.8713C59.6412 16.8736 59.6497 16.8761 59.6586 16.8773L59.6772 16.881C59.6936 16.8847 59.7083 16.8881 59.7234 16.8918C59.7533 16.8977 59.7832 16.9048 59.8134 16.9123C59.8921 16.9313 59.9705 16.9529 60.0457 16.9745C60.0609 16.9793 60.0744 16.9831 60.0896 16.9875C60.1408 17.0031 60.1908 17.0199 60.2393 17.0367C60.7959 17.2334 61.2342 17.521 61.5709 17.9021C61.8905 18.2664 62.1488 18.7532 62.3296 19.3619C62.3707 19.4986 62.4072 19.6435 62.4394 19.7922C62.5255 20.2142 62.5806 20.6851 62.6015 21.2077C62.6027 21.2617 62.6054 21.312 62.6065 21.3585V21.3608C62.6077 21.3921 62.6077 21.429 62.6077 21.471C62.6077 21.5154 62.6065 21.5608 62.6065 21.6387L62.607 21.6394Z" fill="#C0C0C0"/>
<path d="M65.5573 21.7266C65.5573 23.0739 65.3962 24.2436 65.0778 25.2337C64.7609 26.2239 64.2888 27.0341 63.6652 27.6751C63.0387 28.3189 62.2773 28.8005 61.3673 29.1242C60.5361 29.4204 59.5776 29.582 58.4954 29.6073C58.6766 29.5463 58.855 29.4792 59.0272 29.4047C59.8197 29.0643 60.5074 28.5957 61.0842 28.0022C61.7218 27.3477 62.2075 26.5364 62.5407 25.5787C62.875 24.621 63.06 23.5157 63.1012 22.2645V22.2622C63.1023 22.2157 63.105 22.1639 63.1062 22.1076V22.1065C63.1074 22.0611 63.1074 22.0201 63.1074 21.9855V21.959C63.1074 21.8476 63.1062 21.7217 63.1062 21.639C63.1062 21.566 63.1074 21.525 63.1074 21.4736V21.4676C63.1074 21.433 63.1074 21.3932 63.1062 21.3477V21.3455C63.105 21.2904 63.1023 21.2401 63.1012 21.1931V21.1894C63.0686 20.3826 62.96 19.6778 62.7703 19.0739C62.5818 18.4697 62.311 17.9653 61.9515 17.566C61.5558 17.1238 61.0341 16.7953 60.405 16.5796C59.7758 16.3639 59.0385 16.2607 58.1933 16.2596H57.3946C57.0052 16.2596 56.6383 16.2835 56.2961 16.3315H56.295C55.7345 16.4071 55.2341 16.5472 54.7946 16.7547C54.3567 16.9622 53.9797 17.2378 53.6741 17.5783C53.2734 18.0231 52.9801 18.5982 52.7878 19.2937C52.5957 19.9899 52.5018 20.8076 52.5018 21.7508C52.5018 22.6939 52.5942 23.5105 52.785 24.2078C52.9747 24.9041 53.2629 25.4818 53.6585 25.9326C53.9618 26.2753 54.3362 26.5535 54.7768 26.7633C54.7931 26.7703 54.8105 26.7763 54.8269 26.7848H54.4487C53.6562 26.7848 52.9809 26.6828 52.4255 26.4876C51.87 26.2909 51.4305 26.0033 51.095 25.6223C50.7742 25.2579 50.5159 24.7711 50.3348 24.1624C50.1536 23.5534 50.0501 22.8225 50.0326 21.9762C50.0314 21.8923 50.0303 21.8096 50.0303 21.7269C50.0303 21.6443 50.0314 21.5589 50.0326 21.4763C50.0512 20.1997 50.2223 19.0911 50.5392 18.1512C50.8561 17.2102 51.3181 16.4384 51.9208 15.826C52.4526 15.2855 53.0829 14.8612 53.818 14.5494C54.553 14.2365 55.3932 14.0376 56.3427 13.9549C56.6798 13.9262 57.0304 13.9117 57.3935 13.9117H58.1921C59.4004 13.9117 60.4585 14.0734 61.3673 14.3937C62.2773 14.7137 63.0387 15.1898 63.6652 15.826C63.9758 16.1423 64.2504 16.501 64.4852 16.9037C64.7209 17.3064 64.9196 17.7522 65.0778 18.2425C65.3947 19.224 65.5557 20.3855 65.5557 21.7269L65.5573 21.7266Z" fill="#C0C0C0"/>
</g>
</g>
<defs>
<clipPath id="clip0_784_1227">
<rect width="72" height="21" fill="white" transform="translate(31 9)"/>
</clipPath>
</defs>
</svg>
