<svg width="135" height="40" viewBox="0 0 135 40" fill="none" xmlns="http://www.w3.org/2000/svg">
<path fill-rule="evenodd" clip-rule="evenodd" d="M48.0241 13.04C45.6243 13.04 44.2933 14.1116 43.6912 14.7903V6.00002H39.8154V33.4234H43.6912V20.6568C43.6912 18.0329 44.9586 16.5282 47.1681 16.5282C49.4011 16.5282 50.5333 17.8797 50.5333 20.5454V33.4234H54.4084V20.1747C54.4084 15.574 52.141 13.04 48.0241 13.04Z" fill="#CDCDCD"/>
<path fill-rule="evenodd" clip-rule="evenodd" d="M102.967 25.9919C102.967 28.5772 101.681 30.1206 99.5267 30.1206C96.8068 30.1206 96.2359 27.936 96.2359 26.1033V13.2622H92.3608V26.511C92.3608 31.1116 94.6149 33.6458 98.7079 33.6458C101.118 33.6458 102.417 32.6107 103.004 31.9419V33.4234H106.879V13.2622H102.967V25.9919Z" fill="#CDCDCD"/>
<mask id="mask0_784_1020" style="mask-type:alpha" maskUnits="userSpaceOnUse" x="108" y="13" width="15" height="21">
<path d="M108.836 13.0401H122.576V33.6457H108.836V13.0401Z" fill="#CDCDCD"/>
</mask>
<g mask="url(#mask0_784_1020)">
<path fill-rule="evenodd" clip-rule="evenodd" d="M118.144 21.7189C117.621 21.5395 117.101 21.393 116.599 21.2511C116.043 21.095 115.518 20.9466 114.984 20.7564C113.672 20.2851 113.086 19.5573 113.086 18.3964C113.086 16.9924 114.077 16.1205 115.67 16.1205C117.847 16.1205 118.399 17.8065 118.477 19.2212L118.487 19.3809H122.094L122.092 19.21C122.052 15.2885 119.738 13.0401 115.744 13.0401C111.903 13.0401 109.323 15.282 109.323 18.6188C109.323 21.2331 110.502 22.9548 113.035 24.036C113.832 24.3757 114.546 24.579 115.237 24.775C115.696 24.9055 116.129 25.0287 116.582 25.1886C118.16 25.7385 118.775 26.5038 118.775 27.9186C118.775 28.6129 118.535 29.2136 118.083 29.6546C117.533 30.1909 116.706 30.4699 115.744 30.4545C113.675 30.4545 112.647 29.3329 112.603 27.0265L112.6 26.8601H108.842L108.839 27.0258C108.795 29.0361 109.365 30.7016 110.486 31.8429C111.662 33.0391 113.406 33.6457 115.67 33.6457C119.865 33.6457 122.576 31.2672 122.576 27.5855C122.576 24.5603 121.251 22.8059 118.144 21.7189Z" fill="#CDCDCD"/>
</g>
<mask id="mask1_784_1020" style="mask-type:alpha" maskUnits="userSpaceOnUse" x="56" y="12" width="22" height="22">
<path d="M56.5464 12.1076H77.5791V33.757H56.5464V12.1076Z" fill="#CDCDCD"/>
</mask>
<g mask="url(#mask1_784_1020)">
<path fill-rule="evenodd" clip-rule="evenodd" d="M66.9877 30.232C63.144 30.232 60.4592 27.4067 60.4592 23.3612C60.4592 21.8386 60.8357 20.4883 61.5083 19.394C62.0892 21.2872 63.9357 22.8976 66.9561 22.8976C69.3613 22.8976 71.3602 21.8488 72.9629 20.4428C73.3178 21.3171 73.5163 22.2987 73.5163 23.3612C73.5163 27.4067 70.8313 30.232 66.9877 30.232ZM66.7597 16.4643C66.8363 16.4619 66.9103 16.4536 66.9877 16.4536C68.5777 16.4536 69.9802 16.9718 71.0768 17.8639C69.9326 18.9281 68.5503 19.7128 66.9561 19.7128C65.2647 19.7128 64.5075 18.8898 64.5075 18.0746C64.5075 17.3089 65.2141 16.546 66.7597 16.4643ZM74.8558 12.1076C74.8558 12.1076 74.3314 13.437 73.3956 14.9548C71.6612 13.6729 69.4679 12.9286 66.9877 12.9286C60.9375 12.9286 56.5464 17.316 56.5464 23.3612C56.5464 29.4823 60.8244 33.7571 66.9501 33.7571C72.9236 33.7571 77.4284 29.2719 77.4284 23.3243C77.4284 21.032 76.7896 18.9816 75.6684 17.3178C76.6865 15.8139 77.3509 14.3989 77.5791 13.8014L74.8558 12.1076Z" fill="#CDCDCD"/>
</g>
<path fill-rule="evenodd" clip-rule="evenodd" d="M33.9659 23.5063L33.8621 23.8523C32.7433 27.5777 29.8911 29.7145 26.0368 29.7145C21.8233 29.7145 17.2884 26.6741 17.2884 19.9986C17.2884 15.3366 20.0259 10.3188 26.0368 10.3188C30.026 10.3188 32.7397 12.3577 33.6779 16.0598L33.7692 16.4202L37.6998 15.0435L37.6199 14.7407C36.2428 9.52326 31.9127 6.40811 26.0368 6.40811C22.7135 6.40811 19.4465 7.69392 17.0738 9.93538C14.4086 12.4531 13 15.9329 13 19.9986C13 24.0916 14.3752 27.5768 16.9768 30.078C19.3566 32.3654 22.5741 33.6251 26.0368 33.6251C31.7098 33.6251 36.1614 30.3935 37.6541 25.1913L37.7411 24.8883L33.9659 23.5063Z" fill="#CDCDCD"/>
<path fill-rule="evenodd" clip-rule="evenodd" d="M90.369 14.2303C89.5044 13.5991 88.4376 13.2262 87.2831 13.2262C85.8486 13.2262 84.4854 13.7715 83.6052 14.9857L83.6048 13.2622H79.729V33.4234H83.6048C83.6048 33.4234 83.6082 20.431 83.6082 20.2797C83.6082 18.3142 85.0806 17.0053 86.8969 17.0053C87.5996 17.0053 88.2495 17.2267 88.784 17.6005L90.3693 14.2303H90.369Z" fill="#CDCDCD"/>
</svg>
