<svg width="135" height="40" viewBox="0 0 135 40" fill="none" xmlns="http://www.w3.org/2000/svg">
<path fill-rule="evenodd" clip-rule="evenodd" d="M7 7C5.89543 7 5 7.89543 5 9V22.795L7.4253 21.4452C7.4253 21.4452 9.23089 24.7572 11.0712 24.7572C12.9115 24.7572 14.8213 22.193 14.8213 20.1987C14.8213 19.3796 14.6895 18.6715 13.4048 18.6715C12.1907 18.6715 11.5039 19.4941 10.6269 20.5442C10.5759 20.6054 10.5242 20.6673 10.4717 20.7299C10.3968 20.8068 10.4761 20.9622 10.565 21.1365C10.641 21.2855 10.7241 21.4483 10.7241 21.5878C10.7241 21.8905 10.3595 22.5493 9.665 22.5493C9.05081 22.5493 8.4127 21.7733 8.78478 20.5234C8.80594 20.4523 8.79728 20.3706 8.78835 20.2865C8.77676 20.1773 8.76473 20.064 8.81686 19.964C10.9482 16.2619 14.03 16.2632 14.9842 16.2635C14.9938 16.2636 15.0032 16.2636 15.0123 16.2636C15.1369 16.2636 15.2563 16.2649 15.3699 16.2661C16.0956 16.274 16.5819 16.2793 16.627 15.9251C16.6279 15.9176 16.6289 15.9101 16.6299 15.9025C16.6605 15.6644 16.7011 15.3485 16.4359 14.9787C16.4069 14.9384 16.318 14.8614 16.2304 14.7857C16.1467 14.7133 16.0642 14.642 16.0365 14.6047C15.6989 14.1501 15.4292 13.7605 15.3942 13.5897C15.3247 13.2514 15.8457 13.3255 15.8457 13.3255C15.8457 13.3255 15.866 12.8819 15.8456 12.4679C15.8421 12.3984 15.809 12.3436 15.7741 12.2859C15.7329 12.2178 15.6893 12.1457 15.6893 12.0406C15.6893 10.9544 17.6166 9.65728 19.0055 9.7285C20.1222 9.78577 21.0527 10.4289 21.4501 11.2231C21.4717 11.2662 21.8547 11.1903 22.2366 11.1146C22.6193 11.0387 23.0008 10.9631 23.0159 11.0078C23.3576 10.9484 23.3977 11.7299 23.0929 11.8039C22.9904 11.8288 22.8866 11.8542 22.7823 11.8798C22.4251 11.9673 22.0611 12.0565 21.7134 12.1329C21.7082 12.2473 21.7032 12.3594 21.6982 12.4693C21.5582 15.5895 21.5003 16.8793 18.884 17.1717C22.2513 19.2439 23.6916 16.1198 23.9399 15.5811C23.9541 15.5504 23.9643 15.5281 23.9709 15.5157C24.0256 15.4115 24.026 14.8778 24.0264 14.3143C24.0269 13.6259 24.0275 12.8931 24.1271 12.8447C24.2627 12.7788 24.3734 12.9852 24.5004 13.2222C24.5846 13.3794 24.6761 13.5502 24.7869 13.6638C24.8604 13.6745 25.0348 13.6412 25.2439 13.6012C25.7263 13.5089 26.3931 13.3813 26.4294 13.6794C26.4294 13.8355 26.4395 13.999 26.4498 14.1646C26.5028 15.0187 26.5591 15.9267 25.2424 16.1472C24.8604 19.2099 21.8677 20.8882 19.8885 20.8882C19.8113 21.7986 19.6131 22.5848 19.1617 23.2614C22.103 23.8648 22.6977 25.2609 23.3828 26.8692C23.4661 27.0646 23.5507 27.2632 23.6409 27.4638C25.9674 27.4638 26.5577 28.461 26.5577 28.461L21.627 29.9924C21.627 29.9924 21.3145 29.4226 21.3145 28.1761C21.2487 28.0827 21.1734 27.9537 21.0848 27.8022C20.5654 26.9134 19.591 25.2461 17.4255 25.3982C13.2935 27.6775 9.092 28.5322 6.27944 24.4011C5.805 24.4482 5.37777 24.452 5 24.4294V30.27C5 31.3746 5.89543 32.27 7 32.27H27.6383C28.7428 32.27 29.6383 31.3746 29.6383 30.27V9C29.6383 7.89543 28.7428 7 27.6383 7H7Z" fill="#BFBFBF"/>
<path fill-rule="evenodd" clip-rule="evenodd" d="M42.6347 13.4796C43.9339 13.4796 44.9421 13.8239 45.6592 14.5127C46.3763 15.2015 46.7745 15.984 46.8536 16.8602H45.4986C45.3449 16.1948 45.0387 15.6677 44.58 15.2788C44.1214 14.8899 43.4776 14.6955 42.6487 14.6955C41.6382 14.6955 40.8222 15.0527 40.2005 15.7673C39.5789 16.4818 39.268 17.5771 39.268 19.0531C39.268 20.2619 39.5486 21.2424 40.1097 21.9944C40.6708 22.7465 41.5078 23.1225 42.6208 23.1225C43.6452 23.1225 44.4252 22.7265 44.9607 21.9347C45.2448 21.5177 45.4566 20.9695 45.5963 20.29H46.9514C46.8303 21.3771 46.4299 22.2884 45.75 23.0241C44.9351 23.9097 43.8362 24.3524 42.4531 24.3524C41.261 24.3524 40.2599 23.9893 39.4496 23.263C38.3833 22.3025 37.8501 20.8195 37.8501 18.8141C37.8501 17.2913 38.2506 16.0426 39.0515 15.068C39.9176 14.009 41.112 13.4796 42.6347 13.4796ZM48.474 16.5932H49.7522V24.0854H48.474V16.5932ZM48.474 13.7607H49.7522V15.1945H48.474V13.7607ZM51.9038 14.4565H53.1751V16.5579H54.3695V17.5911H53.1751V22.5039C53.1751 22.7663 53.2635 22.942 53.4405 23.0311C53.5383 23.0826 53.7013 23.1084 53.9294 23.1084C53.99 23.1084 54.0552 23.1072 54.125 23.1049C54.1949 23.1025 54.2763 23.0967 54.3695 23.0873V24.0853C54.2251 24.1275 54.075 24.1579 53.919 24.1767C53.763 24.1954 53.5942 24.2048 53.4125 24.2048C52.8258 24.2048 52.4277 24.0537 52.2181 23.7515C52.0086 23.4493 51.9038 23.0568 51.9038 22.5742V17.5911H50.891V16.5579H51.9038V14.4565ZM55.6272 16.5932H56.9054V24.0854H55.6272V16.5932ZM55.6272 13.7607H56.9054V15.1945H55.6272V13.7607ZM58.2464 23.0873L62.6818 17.6895H58.5747V16.558H64.3722V17.5911L59.9647 22.9538H64.5049V24.0853H58.2464V23.0873ZM69.0735 16.3893C69.6043 16.3893 70.1189 16.5147 70.6171 16.7654C71.1154 17.016 71.4949 17.3405 71.7557 17.7388C72.0071 18.1183 72.1748 18.5611 72.2586 19.0671C72.3331 19.4139 72.3703 19.9668 72.3703 20.7258H66.8872C66.9105 21.4896 67.0898 22.1022 67.425 22.5638C67.7603 23.0253 68.2795 23.2561 68.9827 23.2561C69.6393 23.2561 70.1631 23.0382 70.5543 22.6024C70.7778 22.3494 70.9361 22.0565 71.0292 21.7239H72.2656C72.233 22.0003 72.1247 22.3084 71.9408 22.6481C71.7568 22.9878 71.5508 23.2654 71.3226 23.481C70.9408 23.8558 70.4681 24.1088 69.9047 24.24C69.602 24.315 69.2597 24.3525 68.8779 24.3525C67.9466 24.3525 67.1573 24.0116 66.51 23.3298C65.8628 22.6481 65.5391 21.6934 65.5391 20.4658C65.5391 19.2569 65.8651 18.2753 66.517 17.5209C67.1689 16.7665 68.0211 16.3893 69.0735 16.3893ZM71.0772 19.7208C71.026 19.1725 70.9072 18.7344 70.721 18.4065C70.3764 17.7973 69.8013 17.4928 68.9957 17.4928C68.4183 17.4928 67.934 17.7024 67.5429 18.1218C67.1517 18.5412 66.9445 19.0741 66.9212 19.7208H71.0772ZM73.9135 16.558H75.108V17.6263C75.4619 17.1859 75.8367 16.8696 76.2325 16.6775C76.6283 16.4854 77.0684 16.3893 77.5527 16.3893C78.6144 16.3893 79.3315 16.7618 79.704 17.5068C79.9089 17.9145 80.0113 18.4978 80.0113 19.2569V24.0854H78.7331V19.3413C78.7331 18.8821 78.6656 18.5119 78.5306 18.2308C78.307 17.7622 77.9019 17.5279 77.3152 17.5279C77.0172 17.5279 76.7727 17.5584 76.5818 17.6193C76.2372 17.7224 75.9345 17.9285 75.6737 18.2378C75.4642 18.4861 75.328 18.7427 75.2651 19.0074C75.2022 19.2721 75.1708 19.6505 75.1708 20.1425V24.0854H73.9135V16.558ZM82.9456 20.7539C82.9782 21.3396 83.1156 21.8152 83.3577 22.1806C83.8188 22.8647 84.6313 23.2068 85.7955 23.2068C86.317 23.2068 86.792 23.1318 87.2204 22.9819C88.0493 22.6914 88.4637 22.1713 88.4637 21.4216C88.4637 20.8593 88.2891 20.4587 87.9398 20.2197C87.5859 19.9854 87.0318 19.7816 86.2774 19.6082L84.8874 19.292C83.9794 19.0858 83.3368 18.8586 82.9596 18.6102C82.3077 18.1791 81.9817 17.5349 81.9817 16.6774C81.9817 15.7497 82.3007 14.9883 82.9387 14.3932C83.5766 13.7981 84.48 13.5006 85.6488 13.5006C86.7245 13.5006 87.6383 13.7618 88.3904 14.2843C89.1424 14.8067 89.5184 15.6419 89.5184 16.7899H88.2122C88.1424 16.237 87.9934 15.8129 87.7652 15.5177C87.3415 14.9789 86.622 14.7095 85.6069 14.7095C84.7873 14.7095 84.1983 14.8828 83.8397 15.2296C83.4811 15.5763 83.3019 15.9793 83.3019 16.4385C83.3019 16.9445 83.5114 17.3147 83.9305 17.5489C84.2052 17.6989 84.8269 17.8863 85.7955 18.1112L87.2344 18.4415C87.9282 18.6009 88.4637 18.8187 88.8409 19.0952C89.4928 19.5778 89.8188 20.2783 89.8188 21.1967C89.8188 22.3399 89.4055 23.1576 88.579 23.6496C87.7524 24.1416 86.792 24.3875 85.6977 24.3875C84.4218 24.3875 83.4229 24.0596 82.7012 23.4036C81.9794 22.7523 81.6255 21.869 81.6395 20.7539H82.9456ZM91.4115 13.7256H92.6688V17.5771C92.9668 17.1976 93.2346 16.9305 93.4721 16.7759C93.8772 16.5088 94.3824 16.3753 94.9878 16.3753C96.0728 16.3753 96.8085 16.7572 97.195 17.5209C97.4046 17.9379 97.5093 18.5166 97.5093 19.2569V24.0854H96.2171V19.3413C96.2171 18.7884 96.1473 18.3831 96.0076 18.1254C95.7794 17.713 95.351 17.5069 94.7224 17.5069C94.2008 17.5069 93.7282 17.6873 93.3044 18.048C92.8807 18.4088 92.6688 19.0906 92.6688 20.0933V24.0854H91.4115V13.7256ZM99.3656 16.5932H100.644V24.0854H99.3656V16.5932ZM99.3656 13.7607H100.644V15.1945H99.3656V13.7607ZM105.701 23.235C106.288 23.235 106.776 22.9878 107.165 22.4935C107.554 21.9992 107.748 21.26 107.748 20.276C107.748 19.6763 107.662 19.1609 107.49 18.7298C107.164 17.9004 106.568 17.4858 105.701 17.4858C104.831 17.4858 104.235 17.9239 103.913 18.8001C103.741 19.2686 103.655 19.8637 103.655 20.5853C103.655 21.1663 103.741 21.6606 103.913 22.0683C104.239 22.8461 104.835 23.235 105.701 23.235ZM102.447 16.5932H103.67V17.5912C103.921 17.2491 104.196 16.9844 104.494 16.797C104.918 16.5158 105.416 16.3753 105.989 16.3753C106.836 16.3753 107.556 16.7021 108.147 17.3557C108.738 18.0094 109.034 18.943 109.034 20.1565C109.034 21.7965 108.608 22.9679 107.756 23.6707C107.216 24.1159 106.587 24.3384 105.87 24.3384C105.306 24.3384 104.834 24.2142 104.452 23.9659C104.228 23.8253 103.979 23.584 103.705 23.242V27.0865H102.447V16.5932ZM113.657 23.235C114.244 23.235 114.732 22.9878 115.12 22.4935C115.509 21.9992 115.704 21.26 115.704 20.276C115.704 19.6763 115.617 19.1609 115.445 18.7298C115.119 17.9004 114.523 17.4858 113.657 17.4858C112.786 17.4858 112.19 17.9239 111.869 18.8001C111.697 19.2686 111.61 19.8637 111.61 20.5853C111.61 21.1663 111.697 21.6606 111.869 22.0683C112.195 22.8461 112.791 23.235 113.657 23.235ZM110.403 16.5932H111.625V17.5912C111.877 17.2491 112.152 16.9844 112.45 16.797C112.873 16.5158 113.372 16.3753 113.944 16.3753C114.792 16.3753 115.511 16.7021 116.103 17.3557C116.694 18.0094 116.99 18.943 116.99 20.1565C116.99 21.7965 116.564 22.9679 115.712 23.6707C115.171 24.1159 114.543 24.3384 113.826 24.3384C113.262 24.3384 112.79 24.2142 112.408 23.9659C112.184 23.8253 111.935 23.584 111.66 23.242V27.0865H110.403V16.5932ZM121.57 16.3893C122.101 16.3893 122.616 16.5147 123.114 16.7654C123.612 17.016 123.992 17.3405 124.252 17.7388C124.504 18.1183 124.672 18.5611 124.755 19.0671C124.83 19.4139 124.867 19.9668 124.867 20.7258H119.384C119.407 21.4896 119.587 22.1022 119.922 22.5638C120.257 23.0253 120.776 23.2561 121.479 23.2561C122.136 23.2561 122.66 23.0382 123.051 22.6024C123.275 22.3494 123.433 22.0565 123.526 21.7239H124.762C124.73 22.0003 124.622 22.3084 124.438 22.6481C124.254 22.9878 124.048 23.2654 123.819 23.481C123.438 23.8558 122.965 24.1088 122.401 24.24C122.099 24.315 121.757 24.3525 121.375 24.3525C120.443 24.3525 119.654 24.0116 119.007 23.3298C118.36 22.6481 118.036 21.6934 118.036 20.4658C118.036 19.2569 118.362 18.2753 119.014 17.5209C119.666 16.7665 120.518 16.3893 121.57 16.3893ZM123.576 19.7208C123.525 19.1725 123.406 18.7344 123.22 18.4065C122.875 17.7973 122.3 17.4928 121.494 17.4928C120.917 17.4928 120.433 17.7024 120.042 18.1218C119.65 18.5412 119.443 19.0741 119.42 19.7208H123.576ZM126.447 16.558H127.642V17.8583C127.739 17.6052 127.979 17.2972 128.361 16.934C128.743 16.5709 129.183 16.3893 129.681 16.3893C129.704 16.3893 129.744 16.3917 129.8 16.3964C129.856 16.401 129.951 16.4104 130.086 16.4245V17.7599C130.012 17.7458 129.943 17.7364 129.88 17.7318C129.817 17.7271 129.749 17.7247 129.674 17.7247C129.041 17.7247 128.554 17.9297 128.214 18.3397C127.874 18.7497 127.704 19.2218 127.704 19.7559V24.0854H126.447V16.558Z" fill="#BFBFBF"/>
</svg>
