<svg width="135" height="40" viewBox="0 0 135 40" fill="none" xmlns="http://www.w3.org/2000/svg">
<g clip-path="url(#clip0_784_1218)">
<path d="M51.0537 7.00947H48.2399V0H44.2097V18.5579H48.2399V10.8021H51.0537V18.5579H55.084V0H51.0537V7.00947Z" fill="#C2C2C2"/>
<path d="M61.2655 10.7008H65.4217V7.25826H61.2655V3.36732H66.2102V0H57.3877V18.5579H66.3597V15.1414H61.2655V10.7008Z" fill="#C2C2C2"/>
<path d="M75.1792 0L73.5085 7.00947L71.8085 0H67.7812L71.3542 11.5484V18.5579H75.5339V11.6236L78.9808 0H75.1792Z" fill="#C2C2C2"/>
<path d="M104.103 35.4929C103.728 35.4929 103.373 35.6578 103.039 36.3173C102.538 37.327 100.891 38.3973 97.7808 38.3973C93.5454 38.3973 88.4952 36.4215 83.9052 34.1332C81.9648 33.1872 80.253 32.3628 78.6879 31.6829C79.7518 29.5219 80.6282 26.9675 81.4841 24.147C81.7332 23.2617 82.2139 21.7574 82.6741 20.6263C83.571 19.2262 83.9052 18.6071 83.9052 18.2368C83.9052 17.826 83.5915 17.5367 83.1138 17.5367C82.51 17.5367 82.0293 17.8665 81.487 19.122C80.9243 20.418 80.2355 21.9831 79.5056 23.0129C78.7113 24.147 77.9404 25.0119 77.1696 25.0119C76.897 25.0119 76.5423 24.766 76.5423 24.1065C76.5423 23.0968 77.023 21.8616 77.7323 20.4007C78.5267 19.1451 78.7963 18.5666 78.7963 18.2397C78.7963 17.8289 78.4827 17.5396 78.0049 17.5396C77.4011 17.5396 76.9204 17.9504 76.2316 19.2898C75.8096 20.1027 75.3465 21.0834 75.0211 22.0294C75.0094 22.0525 74.9947 22.0785 74.983 22.1075C74.7251 22.715 74.2854 23.5568 74.0451 23.9965C74.0245 24.0312 74.0011 24.0631 73.9747 24.092C73.919 24.1527 73.8633 24.2251 73.8106 24.3119C73.5175 24.766 73.1423 25.1161 72.7876 25.1161C72.474 25.1161 72.2249 24.8268 72.2249 24.2106C72.2249 23.4498 72.7466 21.9657 73.538 19.9696C73.6054 19.7903 73.6787 19.6051 73.752 19.42L76.1466 15.1414L76.1584 15.1501C76.2609 14.9534 76.3665 14.7566 76.472 14.5599L76.9996 13.6168L76.9908 13.611C77.3191 13.0209 77.6415 12.4539 77.9258 11.9679C78.9253 10.6632 79.3151 9.93708 79.3649 9.48868C79.403 9.12128 79.1451 8.80306 78.6673 8.75389C78.2101 8.7076 77.621 8.93614 77.2399 9.55811C76.7182 10.4694 75.8184 12.1444 75.0885 13.5503L72.3275 18.4885L72.2923 18.4653C71.8966 17.8462 71.2899 17.5396 70.478 17.5396C68.0891 17.5396 65.5333 19.6919 64.7272 22.1653C64.3638 23.0187 63.6632 24.28 63.6457 24.3119C63.6457 24.3119 63.6457 24.3119 63.6457 24.3147C63.3525 24.7689 62.9774 25.119 62.6227 25.119C62.3091 25.119 62.0599 24.8297 62.0599 24.2135C62.0599 23.4527 62.5817 21.9686 63.3731 19.9725C63.4405 19.7932 63.5138 19.608 63.587 19.4229L65.9788 15.1443L65.9905 15.153C66.0931 14.9562 66.1986 14.7595 66.3041 14.5628L66.8317 13.6197L66.8229 13.6139C67.1512 13.0238 67.4736 12.4568 67.7579 11.9708C68.7574 10.6661 69.1473 9.93997 69.1971 9.49157C69.2352 9.12418 68.9773 8.80596 68.4995 8.75678C68.0422 8.71049 67.4531 8.93903 67.0721 9.561C66.5503 10.4723 65.6505 12.1472 64.9207 13.5532L62.1596 18.4914L62.1244 18.4682C61.7287 17.8491 61.122 17.5425 60.3101 17.5425C58.147 17.5425 55.8461 19.3072 54.8349 21.4768C54.6532 21.8645 54.5125 22.2666 54.4216 22.6745C54.2282 22.958 54.0318 23.2328 53.8325 23.4903C53.0997 24.4334 52.3376 25.1392 51.6957 25.1392C51.3616 25.1392 51.0919 24.8499 51.0919 24.2135C51.0919 23.1634 51.7192 21.6996 52.5106 19.9725C53.1144 19.0034 53.3664 18.5319 53.3664 18.2426C53.3664 17.8318 53.0733 17.5425 52.5721 17.5425C52.0709 17.5425 51.5081 17.9533 51.2355 18.5926C50.8398 17.8925 50.2126 17.5425 49.3362 17.5425C47.0177 17.5425 44.5381 19.5588 43.6617 21.9455C43.5532 22.0641 43.4506 22.2145 43.3451 22.3823C41.906 24.5664 38.9427 25.6165 36.6476 25.6165C33.9364 25.6165 32.1836 23.9907 32.1836 21.3322C32.1836 16.2262 37.1694 11.6526 41.2377 11.6323C40.5284 12.5175 40.0682 13.5272 40.0682 14.5975C40.0682 16.2233 41.2172 17.2127 42.926 17.2127C44.6582 17.2127 46.1589 15.8328 46.1589 13.8367C46.1589 12.7027 45.6782 11.7162 44.7608 11.0161C45.177 10.7905 45.5522 10.6256 45.8864 10.5214C46.7012 10.2755 46.9503 10.1309 46.9503 9.76061C46.9503 9.24568 46.6162 8.93614 45.9684 8.93614C45.051 8.93614 43.861 9.41057 42.797 10.1714C42.3163 10.0673 41.7946 10.0065 41.2318 10.0065C36.1552 9.99783 30 15.2687 30 21.3235C30 25.0929 32.7552 27.2539 36.4894 27.2539C39.1185 27.2539 41.5806 26.2067 43.4037 24.4825C43.6968 25.6975 44.7022 26.3484 46.03 26.3484C47.1555 26.3484 48.2429 25.6281 49.1603 24.578C49.3274 25.7323 50.2859 26.3484 51.4349 26.3484C52.5164 26.3484 53.5511 25.7294 54.4802 24.8123C54.8642 25.8133 55.8021 26.3484 57.0039 26.3484C58.1294 26.3484 59.2168 25.6281 60.1342 24.578C60.3013 25.7323 61.2598 26.3484 62.4087 26.3484C63.4639 26.3484 64.3345 25.6079 64.7096 24.9512C65.1229 25.8653 66.0286 26.3484 67.1776 26.3484C68.3031 26.3484 69.3905 25.6281 70.308 24.578C70.475 25.7323 71.4335 26.3484 72.5825 26.3484C73.5526 26.3484 74.3675 25.7207 74.7837 25.1074C75.1061 25.9261 75.8418 26.3484 76.8354 26.3484C77.6913 26.3484 78.5472 25.8133 79.318 24.9888C78.5882 27.2742 77.8379 29.2934 77.023 30.98C74.5609 30.0108 72.4125 29.4757 70.0969 29.4757C66.1752 29.4757 63.9212 31.4718 63.8801 34.1911C63.9212 36.867 66.0696 38.6606 69.5342 38.6606C73.3533 38.6606 75.918 36.5604 77.9229 33.141C79.362 33.76 80.8656 34.4804 82.3663 35.2412C88.7707 38.4957 92.6749 39.9971 97.7867 39.9971C102.189 39.9971 104.171 38.4523 104.818 37.0319C104.985 36.6616 105.006 36.4128 105.006 36.2074C105 35.7995 104.645 35.4929 104.103 35.4929ZM43.2484 12.0981C43.8756 12.4886 44.2069 13.0874 44.2069 13.8685C44.2069 14.7335 43.6646 15.6187 42.9348 15.6187C42.3925 15.6187 42.0379 15.2687 42.0379 14.5888C42.0379 13.6429 42.5596 12.7779 43.2484 12.0981ZM48.9493 23.0129C48.1579 24.1672 47.3021 25.0322 46.4667 25.0322C45.9039 25.0322 45.4848 24.6214 45.4848 23.7969C45.4848 21.4508 47.6538 18.8327 49.2835 18.8327C50.0748 18.8327 50.535 19.203 50.62 19.8221C50.1393 20.9937 49.6586 21.9426 48.9493 23.0129ZM59.9232 23.0129C59.1289 24.1672 58.2759 25.0322 57.4406 25.0322C56.8778 25.0322 56.4587 24.6214 56.4587 23.7969C56.4587 21.471 58.6277 18.8327 60.2573 18.8327C61.0517 18.8327 61.5089 19.203 61.5939 19.8221C61.1103 20.9937 60.6325 21.9426 59.9232 23.0129ZM70.094 23.0129C69.2997 24.1672 68.4467 25.0322 67.6114 25.0322C67.0486 25.0322 66.6295 24.6214 66.6295 23.7969C66.6295 21.471 68.7985 18.8327 70.4252 18.8327C71.2195 18.8327 71.6768 19.203 71.7618 19.8221C71.284 20.9937 70.8033 21.9426 70.094 23.0129ZM69.6338 37.0984C67.3593 37.0984 65.9817 35.9037 65.9407 34.2142C65.9817 32.4438 67.3798 31.0841 70.094 31.0841C71.9288 31.0841 74.0157 31.6193 76.2287 32.464C74.4964 35.4495 72.4095 37.0984 69.6338 37.0984Z" fill="#C2C2C2"/>
</g>
<defs>
<clipPath id="clip0_784_1218">
<rect width="75" height="40" fill="white" transform="translate(30)"/>
</clipPath>
</defs>
</svg>
