<svg width="135" height="40" viewBox="0 0 135 40" fill="none" xmlns="http://www.w3.org/2000/svg">
<mask id="mask0_788_1307" style="mask-type:luminance" maskUnits="userSpaceOnUse" x="13" y="9" width="108" height="22">
<path d="M121 9.60468H13.6028V30.3954H121V9.60468Z" fill="white"/>
</mask>
<g mask="url(#mask0_788_1307)">
<path d="M19.6665 28.1894H16.9816C15.1112 28.1894 13.6028 26.6784 13.6028 24.8049V12.9892C13.6028 11.1156 15.1112 9.60468 16.9816 9.60468H19.6665V11.5085H16.9816C16.167 11.5085 15.5034 12.1733 15.5034 12.9892V24.8049C15.5034 25.6208 16.167 26.2856 16.9816 26.2856H19.6665V28.1894Z" fill="#A6A6A6"/>
<path d="M39.3058 28.1894H36.6208V26.2856H39.3058C40.1203 26.2856 40.784 25.6208 40.784 24.8049V12.9892C40.784 12.1733 40.1203 11.5085 39.3058 11.5085H36.6208V9.60468H39.3058C41.1762 9.60468 42.6846 11.1156 42.6846 12.9892V24.8049C42.6846 26.6784 41.146 28.1894 39.3058 28.1894Z" fill="#A6A6A6"/>
<path d="M56.26 11.5085H52.0063V26.2856H53.8466V20.9368L56.2299 20.967C57.8288 20.967 59.0958 20.5137 59.9706 19.6374C60.8455 18.7611 61.3282 17.6128 61.3282 16.2529C61.3282 14.893 60.8757 13.7447 59.9706 12.8381C59.0656 11.9316 57.8589 11.5085 56.26 11.5085ZM58.7338 18.4286C58.1908 18.9423 57.4366 19.1841 56.4712 19.1841H53.8768V13.2612H56.4712C57.4366 13.2612 58.1908 13.5332 58.7338 14.0771C59.2467 14.621 59.5181 15.3463 59.5181 16.2227C59.5181 17.1594 59.2467 17.9149 58.7338 18.4286Z" fill="#A6A6A6"/>
<path d="M71.977 24.5328C71.8261 24.3817 71.7658 24.0795 71.7658 23.596V19.456C71.7658 18.3077 71.4038 17.3709 70.6797 16.6758C69.9557 15.9808 68.9903 15.6484 67.8138 15.6484C66.6976 15.6484 65.7322 15.9808 64.9478 16.6457C64.1333 17.3104 63.7412 18.1264 63.7412 19.0329V19.456L65.4909 19.4258H65.6115V19.3049C65.6417 18.6401 65.8227 18.1566 66.2149 17.8242C66.607 17.4616 67.1199 17.2802 67.8138 17.2802C68.4775 17.2802 69.0205 17.4616 69.4127 17.8544C69.8049 18.217 69.9859 18.761 69.9859 19.4258V19.7582L67.1199 20.1208C65.9132 20.2719 64.978 20.6346 64.2842 21.1785C63.5903 21.7526 63.2283 22.5081 63.2283 23.4449C63.2283 24.3213 63.5601 25.0768 64.1937 25.6811C64.8574 26.2553 65.7021 26.5575 66.8484 26.5575C68.2965 26.5575 69.4127 26.0437 70.2272 25.0163C70.3177 25.379 70.5289 25.6811 70.8004 25.9229C71.1624 26.2251 71.6451 26.4064 72.1881 26.4064C72.6406 26.4064 73.063 26.346 73.455 26.2553L73.5457 26.2251V24.7745H72.7613C72.3692 24.7444 72.0976 24.6537 71.977 24.5328ZM66.9088 24.9256C66.3054 24.9256 65.8227 24.8047 65.521 24.5328C65.2194 24.2608 65.0685 23.9284 65.0685 23.4751L65.0383 23.4147C65.0383 22.9916 65.2194 22.629 65.5512 22.357C65.8831 22.0548 66.4261 21.8735 67.0596 21.7526L69.9859 21.3598V22.0548C69.9859 22.9009 69.6842 23.596 69.111 24.14C68.5378 24.6537 67.7836 24.9256 66.9088 24.9256Z" fill="#A6A6A6"/>
<path d="M79.7914 24.0796L76.5934 15.9507L76.5635 15.86H74.5725L78.826 26.2554L78.2831 27.6152C78.162 27.9175 77.9812 28.1592 77.8004 28.3103C77.4078 28.5822 76.5934 28.5218 75.7187 28.4916H75.4168V30.335L77.1966 30.3954C77.8905 30.3954 78.4639 30.2141 78.9161 29.8514C79.3386 29.519 79.7312 28.9751 80.0325 28.1894L84.8898 16.0413L84.9501 15.86H82.959L79.7914 24.0796Z" fill="#A6A6A6"/>
<path d="M92.4617 15.6484C91.7976 15.6484 91.164 15.8599 90.5912 16.2226C90.1986 16.4945 89.837 16.7967 89.6258 17.1896V15.8902H87.9062V26.3157H89.7159V21.4807C89.7159 20.2417 89.9271 19.2445 90.4098 18.489C90.8627 17.7335 91.4963 17.3709 92.3406 17.3709C92.9742 17.3709 93.4569 17.6126 93.8793 18.1264C94.3018 18.6401 94.4825 19.3351 94.4825 20.2417V20.8461L96.2624 20.8158V20.1812C96.2624 18.7912 95.9306 17.6731 95.2367 16.8874C94.513 16.0412 93.6079 15.6484 92.4617 15.6484Z" fill="#A6A6A6"/>
<path d="M103.564 14.3792C104.076 14.3792 104.499 14.1979 104.861 13.8353C105.223 13.4726 105.404 13.0496 105.404 12.5358C105.404 12.0221 105.223 11.599 104.861 11.2364C104.529 10.8738 104.076 10.6925 103.564 10.6925C103.05 10.6925 102.628 10.8738 102.266 11.2364C101.904 11.599 101.723 12.0221 101.723 12.5358C101.723 13.0496 101.904 13.4726 102.266 13.8353C102.628 14.1979 103.05 14.3792 103.564 14.3792Z" fill="#A6A6A6"/>
<path d="M104.619 15.8902H98.8867V17.5522H102.839V24.6537H98.9171V26.3157H108.48V24.6537H104.619V15.8902Z" fill="#A6A6A6"/>
<path d="M117.077 20.9066L120.728 15.86H118.586L115.841 19.6979L113.126 15.9205L113.095 15.86H110.924L114.574 20.9066L110.652 26.3158H112.794L115.871 22.1456L118.827 26.2554L118.858 26.3158H120.999L117.077 20.9066Z" fill="#A6A6A6"/>
</g>
</svg>
