<svg width="135" height="40" viewBox="0 0 135 40" fill="none" xmlns="http://www.w3.org/2000/svg">
<rect width="135" height="40" fill="white"/>
<path d="M5.61405 24.5167H7.60328L5.20147 20.8391C6.38027 20.6567 7.52961 19.7583 7.52961 18.088C7.52961 16.3615 6.26239 15.1544 4.31737 15.1544H0V24.5167H1.724V21.0216H3.43326L5.61405 24.5167ZM5.7614 18.088C5.7614 18.9863 5.05412 19.5759 4.08161 19.5759H1.724V16.6001H4.08161C5.05412 16.6001 5.7614 17.1897 5.7614 18.088ZM11.2664 19.8426C11.2664 22.6358 13.344 24.6851 16.291 24.6851C19.238 24.6851 21.3157 22.6358 21.3157 19.8426C21.3157 17.0493 19.238 15 16.291 15C13.344 15 11.2664 17.0493 11.2664 19.8426ZM19.5474 19.8426C19.5474 21.7655 18.2655 23.2253 16.291 23.2253C14.3018 23.2253 13.0346 21.7655 13.0346 19.8426C13.0346 17.9055 14.3018 16.4598 16.291 16.4598C18.2655 16.4598 19.5474 17.9055 19.5474 19.8426ZM25.4314 24.5167H30.3971C32.239 24.5167 33.2557 23.4359 33.2557 21.9901C33.2557 20.8391 32.4011 19.8426 31.3549 19.6882C32.2685 19.5057 33.0641 18.7196 33.0641 17.5406C33.0641 16.2212 32.0622 15.1544 30.2645 15.1544H25.4314V24.5167ZM27.1554 19.0284V16.6001H29.9108C30.795 16.6001 31.2959 17.1195 31.2959 17.8213C31.2959 18.5231 30.795 19.0284 29.9108 19.0284H27.1554ZM27.1554 23.0709V20.4742H29.9845C30.9718 20.4742 31.4875 21.0637 31.4875 21.7655C31.4875 22.5797 30.9276 23.0709 29.9845 23.0709H27.1554ZM37.442 24.5167H39.166V15.1544H37.442V24.5167ZM50.5629 24.5167H52.2279V15.1544H50.5039V21.7936L45.4793 15.1544H43.7111V24.5167H45.4351V17.695L50.5629 24.5167ZM62.379 23.1973C63.2483 24.0816 64.5597 24.6851 66.3722 24.6851C69.0245 24.6851 70.1738 23.3517 70.1738 21.7936C70.1738 19.7583 68.2435 19.2811 66.6227 18.8881C65.4586 18.6074 64.4566 18.3687 64.4566 17.6388C64.4566 16.937 65.1049 16.4738 66.1217 16.4738C67.1531 16.4738 68.1993 16.8107 68.9655 17.5406L69.9528 16.3194C69.0392 15.4772 67.8015 15.014 66.269 15.014C64.1177 15.014 62.6884 16.2071 62.6884 17.7511C62.6884 19.7303 64.5745 20.1794 66.1806 20.5584C67.3741 20.8532 68.4203 21.1058 68.4203 21.948C68.4203 22.5656 67.8604 23.2253 66.4458 23.2253C65.0755 23.2253 64.0145 22.6218 63.3367 21.934L62.379 23.1973ZM81.0544 24.5167H82.7784V15.1544H81.0544V18.9863H75.9413V15.1544H74.2173V24.5167H75.9413V20.4321H81.0544V24.5167ZM94.2766 24.5167H96.1627L92.3021 15.1544H90.1508L86.2903 24.5167H88.1763L88.8983 22.72H93.5546L94.2766 24.5167ZM91.2265 16.544L93.0684 21.2743H89.3846L91.2265 16.544ZM105.306 24.5167H107.295L104.893 20.8391C106.072 20.6567 107.221 19.7583 107.221 18.088C107.221 16.3615 105.954 15.1544 104.009 15.1544H99.6918V24.5167H101.416V21.0216H103.125L105.306 24.5167ZM105.453 18.088C105.453 18.9863 104.746 19.5759 103.773 19.5759H101.416V16.6001H103.773C104.746 16.6001 105.453 17.1897 105.453 18.088ZM119.887 24.5167H121.611V15.1544H119.18L116.498 21.4567L113.831 15.1544H111.4V24.5167H113.124V17.4283L116.13 24.5167H116.867L119.887 17.4283V24.5167ZM133.114 24.5167H135L131.139 15.1544H128.988L125.128 24.5167H127.014L127.736 22.72H132.392L133.114 24.5167ZM130.064 16.544L131.906 21.2743H128.222L130.064 16.544Z" fill="#ADADAD"/>
</svg>
