<svg width="135" height="40" viewBox="0 0 135 40" fill="none" xmlns="http://www.w3.org/2000/svg">
<path d="M35.748 14.584H33.4854V27.5647H35.748V14.584Z" fill="#BFBFBF"/>
<path d="M28 11.5647V13.5534H28.0086V13.5499H41.2254V13.5534H41.234V11.5647H28Z" fill="#BFBFBF"/>
<path d="M105.982 11.5648H98.0105V13.5535H105.982V11.5648Z" fill="#BFBFBF"/>
<path d="M104.999 18.4674H98.0105V20.4104H104.999V18.4674Z" fill="#BFBFBF"/>
<path d="M96.9758 11.5648H94.6907V27.5647H96.9758V11.5648Z" fill="#BFBFBF"/>
<path d="M106.302 25.576H98.0105V27.5647H106.302V25.576Z" fill="#BFBFBF"/>
<path d="M65.0438 19.0008L60.5304 11.5648H58.0842L63.8306 20.9895L65.0438 19.0008Z" fill="#BFBFBF"/>
<path d="M70.7926 11.5648L65.6503 19.9995L65.6478 19.996L64.4363 21.983L64.4389 21.9873V27.5648H66.7015V22.033L73.0553 11.5648H70.7926Z" fill="#BFBFBF"/>
<path d="M54.2312 11.5648V18.4442H46.1353V20.4329H54.2312V27.5647H56.4996V11.5648H54.2312Z" fill="#BFBFBF"/>
<path d="M45.109 26.1163V12.8995H45.1098V11.5648H42.8406V27.5647H45.1098V26.1163H45.109Z" fill="#BFBFBF"/>
<path d="M82.4089 21.7934L76.3377 11.5648H74.4636V27.5647H76.6582V15.9764L81.2913 23.7037L82.4089 21.7934Z" fill="#BFBFBF"/>
<path d="M91.4688 11.5648H89.5947L83.0117 22.8101L81.8967 24.7144L82.4404 25.6217H83.4916L89.2741 15.9075L89.2974 27.5647H91.492L91.4688 11.5648Z" fill="#BFBFBF"/>
</svg>
