<svg width="135" height="40" viewBox="0 0 135 40" fill="none" xmlns="http://www.w3.org/2000/svg">
<g opacity="0.4">
<rect width="66" height="36" transform="translate(34 2)" fill="#989898"/>
<path d="M41.0799 26.44H41.095L41.2755 26.5636C41.3412 27.119 41.3831 27.5782 41.3957 28.2299C41.3957 28.5527 41.3957 28.8143 41.4096 28.9955C41.4096 29.3688 41.3831 30.4382 41.3831 30.6474C41.3552 30.8538 41.2844 32.2309 41.2844 32.3012C41.2844 32.5224 41.2755 33.3136 41.2576 33.6479C41.2451 33.995 41.1657 34.5637 40.9735 34.9674C40.7299 35.5922 39.9277 36.315 39.0841 36.424C38.6508 36.4952 38.2568 36.4667 37.8754 36.3573C37.0872 36.1738 36.3561 35.715 36.0417 35.161C35.9875 35.092 35.9596 34.9237 35.918 34.6483C35.8889 34.4111 35.8498 34.0906 35.8246 33.6626C35.6858 32.0929 35.5516 29.6474 35.5402 28.0359C35.5237 27.2576 35.5402 26.7592 35.5516 26.5368V26.4657C35.5807 26.4118 35.6338 26.328 35.7673 26.3421L35.8383 26.3689C36.1074 26.4118 36.5846 26.4236 37.2767 26.4236L37.4407 26.5509L37.5759 26.6887C37.5759 30.0768 37.6187 32.5224 37.6731 34.023C37.6997 34.3955 37.9296 34.6759 38.2568 34.7435C38.6106 34.8437 38.9084 34.7168 39.1548 34.383C39.194 34.3421 39.2202 34.2184 39.247 34.0359C39.2898 33.8571 39.3163 33.6203 39.3278 33.3136C39.4239 32.2037 39.4652 29.1624 39.3278 27.8277L39.2898 27.4388C39.2202 27.0919 39.2077 26.9796 39.2202 26.6057L39.1937 26.5218C39.1937 26.4233 39.2331 26.3841 39.3566 26.3841C39.5334 26.3841 39.7759 26.3686 40.1319 26.3559C40.4845 26.3418 40.7296 26.3418 40.9073 26.3418L41.0799 26.44Z" fill="white"/>
<path d="M47.2127 26.87C47.7975 27.2575 48.1616 28.3141 48.2158 29.3844C48.27 30.5081 47.9708 31.5099 47.2002 31.8262L46.9537 31.9242L47.0736 32.1605C47.1015 32.2037 47.1837 32.3416 47.3047 32.5632C47.4424 32.7881 47.5357 32.9541 47.5894 33.0639C48.2027 34.2856 48.5843 35.2731 48.7333 36.0359L48.6101 36.2019L48.5558 36.2299C48.2029 36.3003 47.7408 36.3416 47.2004 36.3416C47.0739 36.3416 47.0362 36.3003 47.0362 36.2019L46.954 36.1329C46.7735 35.857 46.3958 35.0501 45.7819 33.7168L45.1471 32.2446L45.1041 32.1472C44.93 32.1472 44.7241 32.1472 44.4805 32.132C44.4805 32.5628 44.4262 33.6042 44.4145 33.9393C44.3983 34.1067 44.4145 34.452 44.4262 34.9793C44.4402 35.4258 44.4262 35.7853 44.3983 36.0511V36.0612C44.3983 36.161 44.3441 36.2014 44.22 36.2014H43.7995C43.5961 36.2157 43.4598 36.2157 43.3938 36.2157C43.1466 36.2157 42.9303 36.2157 42.7526 36.2014L42.6992 36.2299L42.5364 36.189C42.4131 36.1734 42.3735 36.1324 42.3866 36.0354L42.4394 35.9527C42.4128 35.801 42.3989 35.6198 42.3989 35.4106C42.3989 35.3821 42.3989 35.2842 42.4128 35.121V34.7292C42.3586 33.1039 42.3586 31.229 42.4394 29.0754C42.452 28.9251 42.4394 28.4924 42.3866 27.7858C42.3586 27.2431 42.3735 26.7994 42.4131 26.4802C42.2916 26.4113 42.3735 26.1771 42.5909 26.2432C42.7808 26.2993 42.9714 26.3134 43.298 26.2739C43.4483 26.2584 43.5813 26.2432 43.6746 26.2432C44.0979 26.2305 44.5059 26.2305 44.8859 26.2305C45.6757 26.231 46.5564 26.4398 47.2127 26.87ZM44.6148 27.91C44.4799 27.925 44.3977 27.925 44.3712 27.925C44.3558 28.0782 44.3558 28.2584 44.3712 28.4805L44.4394 28.9959C44.4799 29.2433 44.4936 29.4253 44.4936 29.5504C44.5048 29.8975 44.5048 30.2856 44.5048 30.6883C45.0462 30.6754 45.4723 30.6193 45.7299 30.5223C46.2172 30.3541 46.4483 29.9941 46.3119 29.2313C46.3008 29.1895 46.3008 29.0938 46.2882 28.9536C46.2728 28.7159 46.2477 28.4101 46.0571 28.2442C45.7705 28.0364 45.3924 27.925 44.885 27.91H44.6148Z" fill="white"/>
<path d="M55.2303 29.6759C55.1079 30.1196 54.7668 30.5509 54.182 30.9826L53.9649 31.0787L54.1138 31.1775C54.3435 31.3136 54.4676 31.384 54.4801 31.3982C54.7934 31.6189 54.9702 32.1205 55.1079 32.6074C55.7039 34.8989 54.1138 36.5366 51.3123 36.5366C51.258 36.5366 51.1228 36.5366 50.8792 36.5509C50.4045 36.5647 50.1038 36.5647 49.8197 36.4677L49.7236 36.3008L49.7627 36.2309L49.6026 36.0929C49.6026 35.8019 49.5872 35.4272 49.5344 34.9398C49.4522 33.8157 49.4078 33.4396 49.4676 31.7601C49.5218 30.6336 49.5344 29.9679 49.5344 29.7449V28.6185C49.5218 28.1334 49.5218 27.7594 49.5218 27.5096C49.5218 27.244 49.5218 27.0504 49.5065 26.8986V26.8283L49.4075 26.716L49.2891 26.5774L49.452 26.4405C49.6414 26.4405 50.0619 26.4123 50.7856 26.3694C51.341 26.3285 51.8021 26.3285 52.1569 26.3567C54.21 26.5224 55.6774 27.9688 55.2303 29.6759ZM51.3944 28.0235C51.45 28.7159 51.464 29.4805 51.4794 30.2985H51.5992C51.9241 30.3136 52.3734 30.3136 52.6877 30.1352C53.0401 29.9233 53.1792 29.5638 53.0817 29.0506C53.0261 28.6042 52.742 28.2162 52.3606 28.0925C52.2256 28.0502 52.0194 28.0235 51.7758 28.0235H51.3944ZM51.4919 31.9247C51.4919 32.1481 51.4919 33.0511 51.4794 34.6484C52.346 34.7049 52.6877 34.5923 52.9593 34.1334C53.2183 33.6755 53.2578 32.9964 53.0532 32.4948C52.8506 32.0088 52.5506 31.898 52.0049 31.898C51.8984 31.898 51.7076 31.9123 51.4919 31.9247Z" fill="white"/>
<path d="M59.3858 26.4531C59.6462 26.4237 59.7367 26.4807 59.6837 26.5908L59.671 26.6337L59.6557 26.6591V26.6885L59.7364 26.8558V26.8699L61.0186 31.8262C61.0186 31.8566 61.1371 32.3972 61.2052 32.7729L61.9661 35.8014C62.0617 36.1333 62.0781 36.1471 62.0365 36.2018L61.9935 36.3007L61.9661 36.3577H61.3849L60.1069 36.3421L59.7242 34.7577L59.656 34.4947L59.6462 34.4244H59.4959L57.7555 34.3954L57.7124 34.5637L57.4029 36.2455L57.4285 36.3421L55.183 36.3577L55.2003 36.3421L55.1587 36.2584C55.1587 36.2455 55.9049 34.189 55.934 34.0497L55.9896 33.8851C56.0681 33.5356 56.112 33.4262 56.1819 33.1329L56.3671 32.4667L56.8711 30.8837L57.7024 27.9812C57.8088 27.4392 57.9717 26.8 58.0002 26.7297L57.9591 26.6887L57.8631 26.634V26.5911V26.577L57.9591 26.4401H58.0941C58.0938 26.4398 58.1363 26.4531 59.3858 26.4531ZM58.6657 30.1053L58.6378 30.2037L58.585 30.4533L58.1905 32.1195L58.1514 32.3283L58.0796 32.6336L58.0404 32.8722V32.9108H58.2738C58.2738 32.9108 58.4068 32.9108 58.5557 32.8979C58.7208 32.8979 58.8549 32.8979 58.8675 32.8841L59.0846 32.8722L59.2919 32.857C59.3324 32.829 59.3045 32.7729 59.2788 32.6069C59.2377 32.3563 58.8429 30.354 58.7901 30.1894L58.7448 30.0207L58.7057 29.9531L58.6657 30.1053Z" fill="white"/>
<path d="M63.2705 26.1623L63.2579 26.2438C63.5533 26.2311 63.7215 26.2311 63.7326 26.2311C64.057 26.2311 64.316 26.2438 64.5346 26.2593L64.6849 26.3691L64.7936 26.4809C64.8883 26.8562 65.0512 27.1749 65.2822 27.6064L65.5399 28.1499C66.4934 30.2713 67.0489 31.5228 67.1973 31.8975C67.1833 30.9664 67.0492 28.6878 67.0366 28.3425C67.0366 28.2708 67.0366 28.1329 67.0193 27.925C67.0081 27.7162 66.9802 27.5502 66.9802 27.4252C66.9802 27.2031 66.9802 26.8 67.0492 26.5223L66.9671 26.3973L67.1291 26.2596C67.7161 26.2596 68.2087 26.2441 68.5448 26.2063L68.7343 26.3005L68.8986 26.4405C68.8986 27.1755 68.9126 28.3012 68.9237 29.7881C68.9405 31.2731 68.9642 32.3982 68.9642 33.1467C68.9642 33.3292 68.9642 33.577 68.9796 33.9103V34.6064C68.9936 35.177 68.9796 35.6616 68.924 36.0621L68.7485 36.1899L68.6281 36.2308H67.3073L67.1579 36.1747C66.7793 35.7154 66.5203 35.1485 66.2599 34.3297C66.1123 33.9264 66.0009 33.6487 65.962 33.5085C65.7698 33.0648 65.4163 32.2864 64.8581 31.1775C64.8581 31.3278 64.8581 32.0092 64.8483 33.2175C64.8343 34.4253 64.8193 35.3554 64.8193 35.9963V36.0777C64.8193 36.1747 64.7665 36.217 64.6424 36.217H64.2915C64.0992 36.2308 63.9629 36.2308 63.8682 36.2308C63.5536 36.217 63.3141 36.1899 63.1219 36.1338L63.0788 36.1058H63.0537L62.9702 35.9269L62.9855 35.8975C62.9855 35.5522 62.9855 35.0235 63.0154 34.3297V32.48C63.0154 31.3839 62.9855 30.9674 62.9296 29.4538C62.8891 28.7039 62.8768 28.2161 62.8768 27.9816C62.8768 27.7452 62.8894 27.2581 62.9048 26.5091L62.8101 26.3846L62.9299 26.2441L62.9467 26.1343C62.9601 25.9517 63.2817 25.9794 63.2705 26.1623Z" fill="white"/>
<path d="M75.4581 26.3971C75.3899 26.6341 75.3771 26.9406 75.3899 27.3281L75.4317 27.7453C75.4454 28.0097 75.4581 28.2037 75.4581 28.3288V29.8285C75.4454 31.4819 75.4454 31.76 75.5123 32.9821C75.5291 33.5922 75.5806 34.1485 75.6225 34.6331C76.2765 34.8019 77.0221 34.7444 77.7709 34.7049C78.1232 34.6892 78.3945 34.6764 78.5588 34.6764H78.5729L78.6134 34.6626L78.805 34.7734C78.8296 34.9113 78.8433 35.0667 78.8433 35.2327C78.8433 35.3987 78.8433 35.5798 78.8296 35.7596C78.805 35.9536 78.805 36.0929 78.805 36.1895C78.805 36.2888 78.7627 36.3274 78.6412 36.3274H78.6248L78.5592 36.3421C78.0135 36.3421 77.2392 36.3274 76.221 36.3154C75.1869 36.3003 74.4253 36.3003 73.9506 36.3003L73.8978 36.3154L73.8168 36.3003H73.7057C73.5874 36.3003 73.5314 36.2584 73.5314 36.1614C73.5314 36.0612 73.5874 36.0235 73.7057 36.0235C73.6502 35.5927 73.6502 34.9954 73.6652 34.2451C73.7057 33.2603 73.7057 32.6184 73.6775 32.3288L73.4868 29.4943C73.4354 28.8299 73.4076 27.2708 73.4868 26.6059V26.591L73.4476 26.4806L73.6497 26.3689C73.9629 26.4236 74.1841 26.4236 74.6566 26.4118H75.1058L75.135 26.3421C75.1864 26.1622 75.5123 26.2311 75.4581 26.3971Z" fill="white"/>
<path d="M82.0612 26.4937L83.3671 26.4398C83.9379 26.4234 84.318 26.4116 84.496 26.4116H84.5214C84.6416 26.4116 84.7008 26.4528 84.7008 26.5507L84.6721 26.6055C84.7135 26.7432 84.7276 27.1053 84.7276 27.6898L84.7135 27.7586L84.7413 27.8558L84.5647 27.9807C84.186 27.954 83.5192 27.954 82.5392 27.995C82.0612 28.0088 81.7103 28.023 81.4891 28.023C81.4654 28.7311 81.4654 29.6189 81.4782 30.6878C81.9415 30.7288 82.4035 30.7035 83.2297 30.6626C83.6502 30.6469 83.9384 30.6331 84.0995 30.6331L84.2233 30.6878H84.2624L84.399 30.8538C84.3599 30.966 84.3471 31.0782 84.3471 31.2032C84.3471 31.3269 84.3471 31.4943 84.3599 31.674V32.063C84.3599 32.1605 84.318 32.2037 84.1955 32.2037L84.13 32.1881H84.1177C84.0367 32.1881 83.4217 32.2166 82.2815 32.2851C81.9556 32.3007 81.6953 32.3145 81.4891 32.3145C81.5059 33.3003 81.4891 34.1072 81.4782 34.7573C81.6816 34.743 81.8468 34.7292 81.9556 34.7292H84.6157L84.7836 34.8695L84.7012 34.9945C84.7681 35.1334 84.7932 35.3131 84.7932 35.5352C84.7932 35.6042 84.7932 35.714 84.7836 35.857C84.7681 35.9945 84.7681 36.0915 84.7681 36.1462L84.7012 36.2575V36.2998C84.7012 36.3954 84.6421 36.4396 84.5214 36.4396C83.9812 36.4396 83.1932 36.4396 82.1036 36.4524C81.0298 36.4667 80.2151 36.4819 79.6825 36.4819L79.5232 36.3412L79.5896 36.2295C79.5896 35.9665 79.6024 34.8428 79.6456 32.8281C79.6743 30.8124 79.6743 29.6888 79.6165 29.4244C79.6024 29.1462 79.6165 28.6603 79.6456 27.9803C79.6579 27.3805 79.6456 26.91 79.6165 26.5629V26.5501V26.439L79.8336 26.3678C80.1463 26.4804 81.0166 26.5087 82.0612 26.4937Z" fill="white"/>
<path d="M89.755 26.4531C90.0103 26.4237 90.1073 26.4807 90.0526 26.5908L90.0403 26.6337L90.0276 26.6591V26.6885L90.1068 26.8558V26.8699L91.3817 31.8262C91.3817 31.8566 91.5074 32.3972 91.5756 32.7729L92.3353 35.8014C92.43 36.1333 92.4409 36.1471 92.4054 36.2018L92.3649 36.3007L92.3353 36.3577H91.7491L90.4723 36.3421L90.0931 34.7577L90.0281 34.4947L90.0103 34.4244H89.8601L88.1204 34.3954L88.0831 34.5637L87.7681 36.2455L87.795 36.3421L85.5519 36.3577L85.5706 36.3421L85.5269 36.2584C85.5269 36.2455 86.2793 34.189 86.3025 34.0497L86.3566 33.8851C86.4386 33.5356 86.4777 33.4262 86.5474 33.1329L86.7367 32.4667L87.2406 30.8837L88.0708 27.9812C88.1764 27.4392 88.3407 26.8 88.3671 26.7297L88.3284 26.6887L88.2306 26.634V26.5911V26.577L88.3284 26.4401H88.4659C88.4659 26.4398 88.5046 26.4531 89.755 26.4531ZM89.0353 30.1053L89.0062 30.2037L88.9488 30.4533L88.5578 32.1195L88.5151 32.3283L88.4518 32.6336L88.4076 32.8722V32.9108H88.6402C88.6402 32.9108 88.775 32.9108 88.9252 32.8979C89.0868 32.8979 89.2247 32.8979 89.237 32.8841L89.4554 32.8722L89.6589 32.857C89.7022 32.829 89.673 32.7729 89.6434 32.6069C89.6047 32.3563 89.2106 30.354 89.1537 30.1894L89.1145 30.0207L89.0713 29.9531L89.0353 30.1053Z" fill="white"/>
<path d="M98.4365 26.4532C98.5047 26.7157 98.5047 27.0094 98.4884 27.4136C98.477 27.6202 98.477 27.7449 98.477 27.8129L98.3281 27.9543L98.2071 27.9954C98.0273 27.9954 97.6613 28.0092 97.1447 28.0234C96.0992 28.0781 95.7459 28.0781 95.2694 28.0781V28.5761C95.2694 28.9126 95.2462 29.3131 95.2293 29.6478C95.2157 29.8147 95.2157 29.9232 95.2157 29.9788C95.1888 30.1632 95.1888 30.4257 95.1765 30.7715C95.4596 30.7715 95.8948 30.7572 96.4387 30.7448C96.9799 30.7292 97.3768 30.7177 97.6358 30.7177C97.7014 30.663 97.9335 30.6478 97.9044 30.8262C97.8921 30.954 97.8921 31.3696 97.8921 32.0781L97.7569 32.217L97.6358 32.2731H95.1069C95.0632 33.8855 95.0791 35.1609 95.1765 36.1053C95.1888 36.2023 95.1474 36.246 95.0263 36.2584L94.8743 36.3425C94.1283 36.3425 93.6772 36.3425 93.5333 36.3273L93.4628 36.3425L93.2998 36.2023C93.2998 35.8018 93.2857 35.0363 93.2316 33.9264C93.1897 32.8294 93.1897 31.9797 93.2024 31.3839L93.2316 30.8262C93.2721 30.2322 93.2998 29.4804 93.2998 28.8565C93.3235 28.2584 93.3413 27.7709 93.3235 27.3969C93.2998 26.9533 93.2716 26.6761 93.2138 26.5771L93.202 26.5223C93.1342 26.4238 93.2716 26.244 93.446 26.3563L93.6644 26.3973L94.1947 26.4402C94.9289 26.4534 95.9353 26.4402 97.1288 26.3846L98.2061 26.3563L98.2339 26.3422C98.3559 26.3278 98.4228 26.3561 98.4365 26.4532Z" fill="white"/>
<path d="M61.5439 7.2199L63.6289 10.3594L63.6828 3.40984C62.8443 4.54469 61.6934 6.91002 61.5439 7.2199Z" fill="white"/>
<path d="M59.5295 12.4209L63.5097 14.7753L63.6133 11.487L61.1487 7.91374C60.9324 8.39494 60.0233 10.4721 59.5295 12.4209Z" fill="white"/>
<path d="M58.9807 16.1115L63.3369 19.52L63.4724 15.5691L59.3982 13.1642C59.3311 13.5546 59.0743 15.093 58.9807 16.1115Z" fill="white"/>
<path d="M59.5052 24.1299L63.1606 24.1488L63.1975 23.6442L59.2166 21.9155C59.2244 22.2212 59.2674 23.1808 59.5052 24.1299Z" fill="white"/>
<path d="M59.209 21.3153L63.2033 23.0467L63.2799 20.1638L58.886 16.7881C58.9159 17.4383 59.0489 20.1861 59.209 21.3153Z" fill="white"/>
<path d="M64.3018 3.42464V8.34105L66.0505 6.35783C65.9008 6.08381 65.0167 4.47595 64.3018 3.42464Z" fill="white"/>
<path d="M64.302 9.32804L64.2495 12.2124L67.8731 10.6993C67.3241 9.01052 66.5208 7.39084 66.3269 7.00896L64.302 9.32804Z" fill="white"/>
<path d="M64.2462 12.8907L64.1462 16.158L68.6516 14.0579C68.5583 12.8704 68.1822 11.6972 68.0884 11.4172L64.2462 12.8907Z" fill="white"/>
<path d="M64.1419 16.9115L63.9902 21.472L68.9083 18.821C69.0838 17.2199 68.8326 15.1162 68.7745 14.6621L64.1419 16.9115Z" fill="white"/>
<path d="M63.8506 24.0943H68.2964C68.6242 23.3912 68.8212 20.2303 68.8589 19.5817L63.9333 22.2652L63.8506 24.0943Z" fill="white"/>
<path d="M82.0671 10.4388L82.1013 14.2737L83.4349 12.8911C83.3093 12.6294 82.6011 11.189 82.0671 10.4388Z" fill="white"/>
<path d="M82.114 15.0519L82.1818 17.8781L84.7786 16.3428C84.4568 15.0787 83.8737 13.7331 83.7176 13.3851L82.114 15.0519Z" fill="white"/>
<path d="M82.2068 18.4554L82.2965 21.0256L85.1422 18.7935C85.0817 18.1444 84.9251 17.1826 84.8746 16.882L82.2068 18.4554Z" fill="white"/>
<path d="M82.3247 21.6352L82.413 24.1182L84.804 24.1069C85.0275 23.2075 85.1236 20.0872 85.1427 19.3887L82.3247 21.6352Z" fill="white"/>
<path d="M80.4985 12.3253L81.611 13.5882V10.4518C81.1563 11.1331 80.6137 12.1153 80.4985 12.3253Z" fill="white"/>
<path d="M79.2896 15.1962L81.6451 16.1803L81.6109 14.3069L80.2964 12.7979C80.1471 13.0927 79.6409 14.1218 79.2896 15.1962Z" fill="white"/>
<path d="M78.7686 17.4229L81.714 18.3549L81.6493 16.6804L79.135 15.7155C79.0626 15.9314 78.8305 16.6691 78.7686 17.4229Z" fill="white"/>
<path d="M78.599 20.5889L81.818 22.3261L81.7183 18.8951L78.6832 17.866C78.6409 18.201 78.4839 19.5515 78.599 20.5889Z" fill="white"/>
<path d="M78.9956 24.0816H81.9091L81.8577 22.9053L78.6292 21.1465C78.6596 21.648 78.7898 23.6103 78.9956 24.0816Z" fill="white"/>
<path d="M53.6599 8.85661L53.7309 12.5227L54.9703 10.4955C54.8426 10.3174 54.2447 9.49781 53.6599 8.85661Z" fill="white"/>
<path d="M53.7612 13.6036V17.2231L56.9011 13.6428C56.4717 12.4066 55.555 11.3037 55.3175 11.0311L53.7612 13.6036Z" fill="white"/>
<path d="M53.7612 18.012V19.9523L57.7399 16.5407C57.6097 15.3689 57.2582 14.4968 57.1387 14.2271L53.7612 18.012Z" fill="white"/>
<path d="M53.8093 24.0619H56.904C57.1572 23.4977 57.2608 22.9474 57.3505 22.3457L53.8093 23.634V24.0619Z" fill="white"/>
<path d="M53.7627 20.629L53.8227 23.0531L57.41 21.7667C57.8166 19.8605 57.7696 17.7515 57.7492 17.2093L53.7627 20.629Z" fill="white"/>
<path d="M51.6326 10.7777L53.1883 12.2554L53.1506 8.89209C52.8482 9.22515 52.0036 10.1745 51.6326 10.7777Z" fill="white"/>
<path d="M51.3728 11.2009C51.3619 11.2158 50.3267 12.6684 50.1001 13.5188L53.2283 16.4853V13.022L51.3728 11.2009Z" fill="white"/>
<path d="M49.1545 16.5984L53.1925 18.9198L53.2274 17.2888L49.8682 13.9904C49.7217 14.3697 49.173 15.8424 49.1545 16.5984Z" fill="white"/>
<path d="M49.2215 20.1546L53.1915 22.1426L53.2273 19.5737L49.0427 17.1971C49.0133 17.6213 48.9217 19.2652 49.2215 20.1546Z" fill="white"/>
<path d="M49.3918 20.9032C49.6213 21.9003 50.2522 24.0816 50.8747 24.0895C51.222 24.0931 51.9942 24.0946 52.5807 24.0946H53.1848L53.2269 22.7887L49.3918 20.9032Z" fill="white"/>
<path d="M74.0734 16.2215L75.4994 14.3913C74.9086 13.9434 73.9218 13.8432 73.9109 13.8418L74.0734 16.2215Z" fill="white"/>
<path d="M74.1038 16.6874L74.1534 19.1067L77.2349 17.1347C76.8143 15.5537 76.0387 14.8064 75.8421 14.637L74.1038 16.6874Z" fill="white"/>
<path d="M71.957 14.4245L73.6609 15.85L73.5699 13.8405C73.32 13.8682 72.4234 13.9966 71.957 14.4245Z" fill="white"/>
<path d="M70.5503 16.3634L73.7443 18.2269L73.7015 16.3888L71.6392 14.7002C71.4718 14.8755 70.8294 15.5813 70.5503 16.3634Z" fill="white"/>
<path d="M70.0198 18.8852L73.7466 20.6398V18.7269L70.4098 16.7332C70.3254 17.0468 70.0323 18.1853 70.0198 18.8852Z" fill="white"/>
<path d="M70.0636 20.9148L73.6887 22.7648L73.7452 21.0873L69.9792 19.3281C69.9918 19.636 70.0323 20.5245 70.0636 20.9148Z" fill="white"/>
<path d="M70.1299 21.3737C70.2092 21.8202 70.5663 23.3436 71.8055 24.0741C71.8256 24.0825 71.9267 24.098 72.3525 24.098C72.5531 24.098 72.7834 24.0958 73.0043 24.0918C73.21 24.0896 73.4071 24.0868 73.5701 24.0868L73.6534 23.2231L70.1299 21.3737Z" fill="white"/>
<path d="M74.1512 19.6016L74.1052 21.729L77.5545 18.9694C77.5468 18.6053 77.4193 17.8424 77.3729 17.576L74.1512 19.6016Z" fill="white"/>
<path d="M74.1016 22.2351L74.0552 23.3832L77.3047 21.9748C77.5327 21.4437 77.585 19.9558 77.596 19.4977L74.1016 22.2351Z" fill="white"/>
<path d="M74.0489 23.7841L74.0425 24.085C74.3424 24.0822 75.022 24.0813 75.4913 24.0799L75.9228 24.0785C76.672 24.0748 77.0366 22.85 77.1354 22.4512L74.0489 23.7841Z" fill="white"/>
</g>
</svg>
